<svg width="290" height="618" viewBox="0 0 290 618" fill="none" xmlns="http://www.w3.org/2000/svg">
<path fill-rule="evenodd" clip-rule="evenodd" d="M247.965 1.3305C310.44 -5.28901 377.967 12.7665 423.493 56.0598C466.961 97.3953 455.824 167.39 480.217 222.19C509.105 287.09 594.037 335.773 578.896 405.179C564.001 473.46 472.785 488.4 413.924 526.076C359.464 560.934 312.428 611.951 247.965 616.999C181.034 622.24 109.188 601.374 61.9835 553.635C17.2873 508.432 18.8861 438.097 8.97942 375.305C0.716219 322.929 -6.38081 270.759 9.36653 220.128C25.2672 169.004 58.0698 126.782 97.5299 90.597C141.583 50.1996 188.526 7.62829 247.965 1.3305Z" fill="#FBFBFB"/>
</svg>
