<svg width="412" height="274" viewBox="0 0 412 274" fill="none" xmlns="http://www.w3.org/2000/svg">
<path fill-rule="evenodd" clip-rule="evenodd" d="M269.85 -275.048C329.078 -273.389 391.646 -295.78 443.034 -266.282C496.509 -235.586 518.519 -173.035 544.764 -117.24C575.038 -52.8785 617.551 11.2286 606.628 81.511C594.939 156.722 556.081 241.14 484.883 268.053C413.594 295.001 345.484 218.189 269.85 208.815C208.878 201.259 146.853 243.264 90.3423 219.156C28.0342 192.575 -21.4375 137.89 -45.1523 74.4354C-69.431 9.47229 -64.4289 -63.7084 -39.5696 -128.452C-15.5443 -191.022 28.9028 -247.485 89.4735 -276.182C145.173 -302.571 208.239 -276.773 269.85 -275.048Z" fill="#FBFBFB"/>
</svg>
