<svg width="412" height="352" viewBox="0 0 412 352" fill="none" xmlns="http://www.w3.org/2000/svg">
<path fill-rule="evenodd" clip-rule="evenodd" d="M102.85 12.9521C162.078 14.6105 224.646 -7.77988 276.034 21.7179C329.509 52.4141 351.519 114.965 377.764 170.76C408.038 235.121 450.551 299.229 439.628 369.511C427.939 444.722 389.081 529.14 317.883 556.053C246.594 583.001 178.484 506.189 102.85 496.815C41.8778 489.259 -20.1465 531.264 -76.6577 507.156C-138.966 480.575 -188.437 425.89 -212.152 362.435C-236.431 297.472 -231.429 224.292 -206.57 159.548C-182.544 96.9776 -138.097 40.5152 -77.5265 11.8181C-21.8267 -14.5713 41.2391 11.227 102.85 12.9521Z" fill="#FBFBFB"/>
</svg>
