<svg width="158" height="30" viewBox="0 0 158 30" fill="none" xmlns="http://www.w3.org/2000/svg">
<g clip-path="url(#clip0_1274_16484)">
<path d="M-56 54.2019C-53.7995 52.0034 -46.7245 42.7145 -39.2763 37.0532C-31.7164 31.3072 -26.8472 28.6749 -17.9315 25.4009C3.19316 19.9045 7.15403 38.3724 21.0171 21.0038C35.5403 1.21685 44.7824 -0.102289 58.8655 11.7699C72.0703 22.9016 84.8083 30.557 94.9536 25.6208M214 -9.99577C194.636 -10.2156 187.594 -1.86114 176.592 11.7699C165.589 25.4009 151.286 -1.86113 131.922 1.65655C115.508 4.63831 110.127 13.1712 102.435 20.1244" stroke="#9C42E2" stroke-width="2.1987" stroke-linecap="round"/>
<circle cx="99.0082" cy="23.2004" r="4.39739" stroke="#9C42E2" stroke-width="2.1987"/>
<rect x="86.4755" y="4.51135" width="25.5049" height="10.9935" rx="2.1987" fill="#9C42E2"/>
<path d="M96.0782 9.59902V10.227H94.9823V11.3844H94.3113V10.227H93.2093V9.59902H94.3113V8.47241H94.9823V9.59902H96.0782ZM96.4671 7.90603H97.8462V12H97.1874V8.50319H96.4671V7.90603ZM99.8887 11.3721H101.415V12H98.6143V11.8215C99.2258 11.1525 99.667 10.6538 99.9379 10.3255C100.213 9.99303 100.396 9.74062 100.486 9.56824C100.576 9.39586 100.621 9.22554 100.621 9.05726C100.621 8.93824 100.595 8.83358 100.541 8.74329C100.492 8.653 100.42 8.58322 100.326 8.53397C100.235 8.48062 100.129 8.45394 100.006 8.45394C99.8127 8.45394 99.6568 8.5114 99.5378 8.62632C99.4228 8.73713 99.3654 8.88283 99.3654 9.06342V9.15577H98.7005V9.06342C98.7005 8.69404 98.8195 8.39648 99.0576 8.17075C99.2956 7.94091 99.6096 7.82599 99.9995 7.82599C100.381 7.82599 100.691 7.94091 100.929 8.17075C101.171 8.40059 101.292 8.69609 101.292 9.05726C101.292 9.24606 101.257 9.4287 101.188 9.60518C101.122 9.78166 100.987 10.0094 100.781 10.2885C100.58 10.5635 100.283 10.9247 99.8887 11.3721ZM103.627 12.0739C103.13 12.0739 102.736 11.883 102.445 11.5013C102.153 11.1196 102.007 10.6025 102.007 9.94993C102.007 9.29736 102.151 8.78228 102.438 8.40469C102.73 8.023 103.126 7.83215 103.627 7.83215C104.123 7.83215 104.515 8.023 104.802 8.40469C105.094 8.78228 105.24 9.29736 105.24 9.94993C105.24 10.6025 105.094 11.1196 104.802 11.5013C104.511 11.883 104.119 12.0739 103.627 12.0739ZM103.627 11.4459C103.922 11.4459 104.152 11.3146 104.316 11.0519C104.484 10.7893 104.568 10.4219 104.568 9.94993C104.568 9.63801 104.529 9.37124 104.451 9.14961C104.378 8.92388 104.269 8.75355 104.125 8.63863C103.986 8.51961 103.819 8.4601 103.627 8.4601C103.43 8.4601 103.259 8.51961 103.116 8.63863C102.972 8.75355 102.863 8.92388 102.789 9.14961C102.715 9.37124 102.678 9.63801 102.678 9.94993C102.678 10.4219 102.761 10.7893 102.925 11.0519C103.093 11.3146 103.327 11.4459 103.627 11.4459Z" fill="white"/>
</g>
<defs>
<clipPath id="clip0_1274_16484">
<rect width="158" height="30" fill="white"/>
</clipPath>
</defs>
</svg>
