<svg width="84" height="68" viewBox="0 0 84 68" fill="none" xmlns="http://www.w3.org/2000/svg">
<path fill-rule="evenodd" clip-rule="evenodd" d="M79.559 4.14099C77.121 1.70301 73.8144 0.333374 70.3666 0.333374H13.1666C9.71881 0.333374 6.41221 1.70301 3.97424 4.14099C1.53626 6.57896 0.166626 9.88556 0.166626 13.3334V54.9334C0.166626 58.3812 1.53626 61.6878 3.97424 64.1258C6.41221 66.5637 9.71881 67.9334 13.1666 67.9334H70.3666C73.8144 67.9334 77.121 66.5637 79.559 64.1258C81.997 61.6878 83.3666 58.3812 83.3666 54.9334V13.3334C83.3666 9.88556 81.997 6.57896 79.559 4.14099ZM42.002 41.9222C42.3851 41.888 42.7558 41.7693 43.0874 41.5746L57.6106 33.0277V26.992L41.7666 36.3174L5.36663 14.9038V13.3334C5.36663 11.2647 6.18841 9.28072 7.65119 7.81794C9.11398 6.35516 11.0979 5.53337 13.1666 5.53337H70.3666C72.4353 5.53337 74.4193 6.35516 75.8821 7.81794C77.3448 9.28072 78.1666 11.2647 78.1666 13.3334V14.8934L73.4547 17.6667L73.8333 24.1667L78.1666 20.9306V54.9334C78.1666 57.0021 77.3448 58.986 75.8821 60.4488C74.4193 61.9116 72.4353 62.7334 70.3666 62.7334H13.1666C11.0979 62.7334 9.11398 61.9116 7.65119 60.4488C6.18841 58.986 5.36663 57.0021 5.36663 54.9334V20.941L40.4458 41.5746L40.8722 41.7722C41.2331 41.9051 41.619 41.9564 42.002 41.9222Z" fill="#232323"/>
<path fill-rule="evenodd" clip-rule="evenodd" d="M68.243 55.4508C67.3908 56.2614 66.3653 56.6667 65.1665 56.6667C64.3865 56.6667 63.6716 56.478 63.0216 56.1007C62.3716 55.7233 61.8516 55.2202 61.4616 54.5912C61.0572 53.9483 60.8478 53.2425 60.8333 52.4738C60.8478 51.3278 61.2811 50.3494 62.1333 49.5388C62.9855 48.7142 63.9965 48.3019 65.1665 48.3019C66.3653 48.3019 67.3908 48.7142 68.243 49.5388C69.0952 50.3494 69.5141 51.3278 69.4996 52.4738C69.5141 53.6339 69.0952 54.6262 68.243 55.4508Z" fill="#E74C3C"/>
<path d="M61.6133 13.3334L62.1766 43.9204H68.178L68.7413 13.3334H61.6133Z" fill="#E74C3C"/>
</svg>
