<svg width="91" height="78" viewBox="0 0 91 78" fill="none" xmlns="http://www.w3.org/2000/svg">
<path d="M70.2 0C73.6478 0 76.9544 1.36964 79.3924 3.80761C81.8304 6.24558 83.2 9.55219 83.2 13V54.6C83.2 58.0478 81.8304 61.3544 79.3924 63.7924C76.9544 66.2304 73.6478 67.6 70.2 67.6H13C9.55219 67.6 6.24558 66.2304 3.80761 63.7924C1.36964 61.3544 0 58.0478 0 54.6V13C0 9.55219 1.36964 6.24558 3.80761 3.80761C6.24558 1.36964 9.55219 0 13 0H70.2ZM78 20.5972L42.9208 41.2412C42.5892 41.4359 42.2185 41.5546 41.8354 41.5888C41.4523 41.623 41.0665 41.5717 40.7056 41.4388L40.2792 41.2412L5.2 20.6076V54.6C5.2 56.6687 6.02178 58.6527 7.48457 60.1154C8.94735 61.5782 10.9313 62.4 13 62.4H70.2C72.2687 62.4 74.2526 61.5782 75.7154 60.1154C77.1782 58.6527 78 56.6687 78 54.6V20.5972ZM70.2 5.2H13C10.9313 5.2 8.94735 6.02178 7.48457 7.48457C6.02178 8.94735 5.2 10.9313 5.2 13V14.5704L41.6 35.984L78 14.56V13C78 10.9313 77.1782 8.94735 75.7154 7.48457C74.2526 6.02178 72.2687 5.2 70.2 5.2Z" fill="#101010"/>
<path d="M69.3333 77.9998C81.2995 77.9998 91 68.2993 91 56.3332C91 44.367 81.2995 34.6665 69.3333 34.6665C57.3671 34.6665 47.6666 44.367 47.6666 56.3332C47.6666 68.2993 57.3671 77.9998 69.3333 77.9998Z" fill="#27AE60"/>
<path d="M77.9845 48.3691L66.475 59.1586L60.6255 53.151C58.4088 50.8737 54.8153 54.2685 57.0263 56.5389L64.5941 64.3099C65.5243 65.2658 67.2509 65.1932 68.1934 64.3099L81.582 51.757C83.9063 49.5785 80.307 46.1899 77.9845 48.3691Z" fill="white"/>
</svg>
