<svg width="471" height="470" viewBox="0 0 471 470" fill="none" xmlns="http://www.w3.org/2000/svg">
<path d="M115.264 108.139C110.502 108.141 105.787 107.208 101.387 105.396C96.9874 103.583 92.9896 100.926 89.6221 97.5752C86.2545 94.2248 83.5832 90.2469 81.7606 85.8687C79.9381 81.4906 79 76.798 79 72.059C79.0084 62.4927 82.8328 53.321 89.6327 46.5595C96.4326 39.7981 105.652 36 115.264 36C120.026 36 124.742 36.9335 129.142 38.7472C133.541 40.561 137.539 43.2194 140.906 46.5707C144.274 49.922 146.945 53.9006 148.767 58.2794C150.59 62.6581 151.528 67.3512 151.528 72.0906C151.519 81.656 147.695 90.8266 140.895 97.5864C134.094 104.346 124.875 108.142 115.264 108.139Z" fill="#EBEBEB"/>
<path d="M163.77 0L168.734 9.03846L177.816 13.9791L168.734 18.9197L163.77 27.9581L158.806 18.9197L149.724 13.9791L158.806 9.03846L163.77 0Z" fill="#F5F5F5"/>
<path d="M370.864 244.807L374.59 251.581L381.396 255.289L374.59 258.997L370.864 265.771L367.138 258.997L360.332 255.289L367.138 251.581L370.864 244.807Z" fill="#EBEBEB"/>
<path d="M381.396 211.34L383.079 214.405L386.148 216.07L383.079 217.745L381.396 220.8L379.713 217.745L376.643 216.07L379.713 214.405L381.396 211.34Z" fill="#E0E0E0"/>
<path d="M128.3 3.40259L129.983 6.45755L133.052 8.13251L129.983 9.79693L128.3 12.8624L126.617 9.79693L123.547 8.13251L126.617 6.45755L128.3 3.40259Z" fill="#E0E0E0"/>
<path d="M44.065 287.45C46.0181 286.563 47.6667 285.125 48.8068 283.314C49.947 281.504 50.5285 279.4 50.4795 277.264C50.416 271.228 45.7692 266.371 40.0851 266.424C34.401 266.477 29.8283 271.396 29.8812 277.432C29.8681 279.588 30.4977 281.7 31.6903 283.5C32.8829 285.3 34.585 286.708 36.5815 287.545C20.7676 290.126 21.7626 307.255 21.7626 307.255L59.2226 306.939C59.2226 306.939 59.8048 289.61 44.065 287.45Z" fill="#E0E0E0"/>
<path d="M403.423 400.357C403.152 399.013 402.411 397.808 401.332 396.955C400.253 396.102 398.905 395.658 397.528 395.699C396.151 395.741 394.833 396.266 393.808 397.183C392.783 398.099 392.117 399.347 391.928 400.705C391.731 399.344 391.055 398.096 390.021 397.184C388.986 396.273 387.66 395.756 386.278 395.727C384.896 395.698 383.549 396.158 382.477 397.026C381.404 397.893 380.676 399.111 380.422 400.463C380.146 402.455 380.65 404.477 381.83 406.109C383.012 407.721 384.395 409.176 385.947 410.439C388.064 412.293 389.97 414.031 392.065 415.885C394.182 414.021 395.908 412.261 397.993 410.386C399.53 409.109 400.899 407.643 402.068 406.025C403.238 404.381 403.723 402.35 403.423 400.357Z" fill="#EBEBEB"/>
<path d="M427.821 178.304L431.843 177.514L438.194 163.64L436.607 155.666C436.607 155.666 442.735 154.054 444.08 164.641C445.424 175.228 445.689 172.415 445.689 172.415C445.689 172.415 458.877 169.866 460.2 170.793C461.164 171.457 464.117 184.414 465.662 191.451C466.088 193.138 465.935 194.918 465.227 196.508C464.519 198.098 463.298 199.407 461.756 200.226C461.316 200.442 460.85 200.601 460.37 200.7C457.088 201.343 439.761 202.006 439.761 202.006L432.828 203.376L427.821 178.304Z" fill="#E0E0E0"/>
<path d="M415.903 178.388L423.81 205.23L430.69 203.871L425.355 177.093L415.903 178.388Z" fill="#E0E0E0"/>
<path d="M387.334 167.77C377.077 172.736 365.259 173.444 354.478 169.737C343.697 166.031 334.837 158.215 329.847 148.007C327.377 142.953 325.931 137.463 325.593 131.852C325.254 126.241 326.03 120.619 327.875 115.306C329.719 109.993 332.598 105.094 336.345 100.889C340.093 96.6833 344.636 93.2535 349.715 90.7955C354.797 88.3384 360.315 86.9018 365.955 86.5679C371.594 86.234 377.245 87.0093 382.584 88.8494C387.922 90.6896 392.844 93.5585 397.068 97.2924C401.292 101.026 404.736 105.552 407.202 110.611C412.174 120.814 412.875 132.564 409.15 143.281C405.425 153.998 397.578 162.805 387.334 167.77Z" fill="#9C42E2"/>
<path d="M430.087 288.096C426.446 286.716 423.114 284.634 420.282 281.971C417.45 279.307 415.173 276.114 413.582 272.574C411.992 269.034 411.118 265.217 411.011 261.34C410.904 257.464 411.567 253.604 412.96 249.983C414.349 246.361 416.441 243.047 419.116 240.231C421.792 237.414 425 235.15 428.556 233.568C432.111 231.986 435.946 231.117 439.839 231.011C443.732 230.905 447.609 231.563 451.246 232.949C454.886 234.329 458.217 236.411 461.048 239.073C463.879 241.736 466.155 244.928 467.746 248.467C469.337 252.006 470.211 255.822 470.318 259.697C470.426 263.572 469.765 267.431 468.373 271.052C466.985 274.674 464.894 277.989 462.219 280.807C459.543 283.624 456.336 285.89 452.78 287.473C449.224 289.056 445.39 289.925 441.496 290.032C437.602 290.139 433.725 289.481 430.087 288.096Z" fill="#9C42E2"/>
<path d="M44.5943 152.063C41.6252 152.065 38.6848 151.484 35.9412 150.354C33.1976 149.225 30.7044 147.569 28.6039 145.48C26.5034 143.392 24.8369 140.912 23.6994 138.182C22.5619 135.453 21.9757 132.527 21.9743 129.572C21.9743 123.602 24.3575 117.876 28.5995 113.654C32.8416 109.432 38.5951 107.06 44.5943 107.06C50.5934 107.06 56.3469 109.432 60.589 113.654C64.8311 117.876 67.2142 123.602 67.2142 129.572C67.2128 132.527 66.6267 135.453 65.4891 138.182C64.3516 140.912 62.6851 143.392 60.5846 145.48C58.4841 147.569 55.9909 149.225 53.2473 150.354C50.5037 151.484 47.5634 152.065 44.5943 152.063Z" fill="#9C42E2"/>
<path d="M32.538 137.094C34.7097 138.477 37.2216 139.24 39.7992 139.298C42.3769 139.357 44.9212 138.709 47.1541 137.427C49.387 136.144 51.2228 134.275 52.4607 132.024C53.6986 129.773 54.2912 127.227 54.1736 124.663C55.1427 123.968 55.9781 123.104 56.6399 122.114C55.7406 122.519 54.7836 122.782 53.8031 122.894C54.8376 122.279 55.6096 121.308 55.973 120.165C54.993 120.747 53.9183 121.153 52.7976 121.366C52.0592 120.55 51.0677 120.004 49.9811 119.813C48.8945 119.623 47.7752 119.8 46.8013 120.316C45.8275 120.832 45.0552 121.658 44.6072 122.661C44.1593 123.665 44.0616 124.789 44.3296 125.854C42.3632 125.757 40.4393 125.249 38.6831 124.363C36.9268 123.478 35.3777 122.234 34.1364 120.713C33.5009 121.796 33.3047 123.079 33.588 124.301C33.8713 125.522 34.6127 126.59 35.6606 127.286C34.8775 127.256 34.1125 127.043 33.4272 126.665C33.4115 127.811 33.7985 128.927 34.5213 129.819C35.244 130.711 36.2572 131.325 37.3859 131.553C36.6613 131.75 35.9007 131.779 35.1631 131.637C35.4754 132.617 36.0888 133.474 36.9168 134.088C37.7448 134.703 38.7456 135.043 39.7781 135.061C37.723 136.651 35.1254 137.381 32.538 137.094Z" fill="white"/>
<path d="M85.2403 404.234C80.2633 405.414 75.1014 405.607 70.0495 404.802C64.9975 403.996 60.1546 402.208 55.7972 399.539C51.4398 396.87 47.6533 393.374 44.6541 389.248C41.6549 385.123 39.5017 380.45 38.3174 375.496C37.1314 370.544 36.9372 365.407 37.746 360.38C38.5548 355.353 40.3506 350.533 43.0311 346.197C45.7115 341.861 49.2239 338.092 53.3679 335.107C57.5118 332.121 62.206 329.977 67.1825 328.798C72.1595 327.618 77.3214 327.425 82.3733 328.23C87.4253 329.036 92.2682 330.824 96.6256 333.493C100.983 336.161 104.769 339.658 107.769 343.784C110.768 347.909 112.921 352.582 114.105 357.535C115.291 362.488 115.486 367.624 114.677 372.652C113.868 377.679 112.072 382.498 109.392 386.835C106.711 391.171 103.199 394.94 99.0549 397.925C94.911 400.911 90.2168 403.054 85.2403 404.234Z" fill="#455A64"/>
<path d="M72.1574 349.561C77.7039 348.244 78.3601 348.118 80.6253 347.696C81.9444 347.4 83.3045 347.328 84.6476 347.486C85.6316 347.605 86.576 347.943 87.4102 348.476C88.2591 348.975 88.983 349.659 89.5272 350.477C90.2827 351.6 90.8377 352.844 91.1679 354.154C91.7924 356.261 91.9618 356.956 93.2849 362.476C94.608 367.996 94.7456 368.66 95.169 370.903C95.4653 372.22 95.5333 373.578 95.3701 374.917C95.2495 375.891 94.9133 376.827 94.3857 377.656C93.8822 378.503 93.1906 379.223 92.364 379.763C91.2202 380.494 89.9605 381.029 88.6381 381.343C86.5211 381.954 85.8225 382.133 80.2654 383.45C74.7083 384.767 74.0627 384.904 71.7975 385.314C70.4784 385.611 69.1183 385.682 67.7752 385.525C66.793 385.405 65.8496 385.071 65.0126 384.545C64.1686 384.036 63.4462 383.349 62.8956 382.533C62.145 381.41 61.5936 380.166 61.2655 378.857C60.641 376.75 60.4716 376.055 59.1485 370.535C57.8254 365.015 57.6878 364.351 57.2644 362.107C56.9681 360.791 56.9001 359.433 57.0633 358.094C57.1966 357.12 57.5329 356.186 58.0506 355.349C58.5683 354.513 59.2559 353.794 60.0694 353.237C61.1944 352.49 62.4405 351.941 63.753 351.615C65.9229 350.994 66.5685 350.815 72.1256 349.508L72.1574 349.561ZM71.2259 345.79C65.5841 347.127 64.875 347.317 62.6945 347.896C60.9792 348.344 59.3513 349.074 57.8783 350.056C56.6231 350.912 55.5626 352.021 54.7658 353.312C53.9689 354.602 53.4534 356.045 53.2527 357.546C53.0291 359.302 53.1079 361.083 53.4856 362.813C53.909 365.046 54.0572 365.752 55.4015 371.367C56.7457 376.982 56.9363 377.688 57.5714 379.868C58.0043 381.572 58.7198 383.192 59.6883 384.661C60.5414 385.917 61.6617 386.971 62.9697 387.748C64.2554 388.55 65.6994 389.067 67.2036 389.265C68.9682 389.487 70.758 389.409 72.4961 389.033C74.7401 388.601 75.4493 388.464 81.1016 387.126C86.754 385.788 87.4526 385.588 89.6331 384.967C91.35 384.524 92.9787 383.794 94.4492 382.807C95.7045 381.951 96.7649 380.842 97.5618 379.552C98.3587 378.261 98.8741 376.819 99.0748 375.317C99.2984 373.561 99.2197 371.78 98.842 370.05C98.4186 367.817 98.2704 367.111 96.9261 361.496C95.5818 355.882 95.3913 355.176 94.8091 352.995C94.3789 351.294 93.6631 349.677 92.6921 348.213C91.8271 346.967 90.7115 345.913 89.416 345.119C88.1205 344.325 86.6733 343.807 85.1662 343.599C83.401 343.381 81.6116 343.463 79.8738 343.841C77.6404 344.262 76.9206 344.41 71.2788 345.747" fill="white"/>
<path d="M73.671 355.903C71.5612 356.403 69.6479 357.516 68.1733 359.099C66.6987 360.682 65.7289 362.665 65.3866 364.796C65.0443 366.928 65.3449 369.113 66.2504 371.074C67.1558 373.036 68.6254 374.686 70.4734 375.816C72.3213 376.947 74.4646 377.506 76.632 377.424C78.7995 377.342 80.8938 376.622 82.6502 375.355C84.4065 374.089 85.7459 372.332 86.499 370.308C87.2521 368.283 87.385 366.082 86.881 363.982C86.5477 362.588 85.9415 361.273 85.097 360.112C84.2525 358.951 83.1862 357.967 81.9593 357.217C80.7324 356.466 79.3688 355.964 77.9466 355.738C76.5244 355.513 75.0715 355.569 73.671 355.903ZM77.905 373.411C76.534 373.733 75.0976 373.644 73.7775 373.155C72.4573 372.665 71.3128 371.797 70.4885 370.659C69.6641 369.522 69.1971 368.168 69.1464 366.766C69.0958 365.365 69.4637 363.981 70.2037 362.787C70.9437 361.594 72.0226 360.646 73.3039 360.063C74.5853 359.481 76.0115 359.289 77.4023 359.513C78.7931 359.736 80.086 360.366 81.1175 361.321C82.149 362.276 82.8728 363.513 83.1975 364.878C83.4145 365.784 83.4497 366.724 83.301 367.644C83.1523 368.563 82.8227 369.445 82.331 370.238C81.8393 371.03 81.1953 371.719 80.4358 372.263C79.6763 372.808 78.8162 373.198 77.905 373.411Z" fill="white"/>
<path d="M87.1562 352.258C87.274 352.748 87.2431 353.262 87.0675 353.735C86.8918 354.207 86.5793 354.618 86.1694 354.914C85.7595 355.21 85.2707 355.378 84.7646 355.398C84.2585 355.418 83.7579 355.287 83.3262 355.024C82.8944 354.761 82.5507 354.376 82.3387 353.918C82.1266 353.46 82.0557 352.95 82.1348 352.452C82.2139 351.954 82.4396 351.491 82.7832 351.121C83.1268 350.751 83.573 350.49 84.0654 350.372C84.7264 350.217 85.4223 350.328 86.0014 350.681C86.5804 351.034 86.9955 351.601 87.1562 352.258Z" fill="white"/>
<path d="M380.316 370.113C377.93 370.113 375.567 369.645 373.363 368.736C371.158 367.827 369.155 366.495 367.469 364.815C365.782 363.135 364.444 361.141 363.532 358.947C362.62 356.753 362.151 354.401 362.152 352.026C362.151 349.651 362.62 347.299 363.532 345.105C364.444 342.911 365.782 340.917 367.469 339.237C369.155 337.557 371.158 336.225 373.363 335.316C375.567 334.406 377.93 333.939 380.316 333.939C382.702 333.937 385.065 334.404 387.27 335.311C389.475 336.219 391.479 337.551 393.167 339.229C394.854 340.908 396.193 342.901 397.107 345.095C398.02 347.289 398.49 349.641 398.49 352.015C398.492 354.392 398.023 356.745 397.11 358.94C396.197 361.136 394.859 363.131 393.171 364.812C391.483 366.493 389.479 367.826 387.274 368.736C385.068 369.645 382.704 370.113 380.316 370.113Z" fill="#455A64"/>
<path d="M377.553 362.961H381.978V351.931H385.058L385.386 348.244H381.978V346.137C381.978 345.263 382.147 344.915 383.036 344.915H385.429V341.102H382.327C379.035 341.102 377.553 342.545 377.553 345.316V348.255H375.257V351.994H377.553V362.961Z" fill="white"/>
<path d="M375.102 150.201C371.645 151.127 368.445 151.479 365.503 151.255C362.574 151.04 359.944 150.268 357.612 148.94C355.283 147.623 353.29 145.786 351.635 143.43C349.981 141.073 348.698 138.217 347.787 134.861C346.918 131.576 346.614 128.487 346.874 125.594C347.131 122.69 347.936 120.051 349.288 117.677C350.637 115.292 352.515 113.236 354.923 111.508C357.331 109.781 360.241 108.46 363.655 107.545C366.871 106.683 369.85 106.409 372.593 106.721C375.346 107.03 377.813 107.828 379.993 109.114C382.181 110.387 384.026 112.069 385.527 114.161C387.037 116.238 388.155 118.633 388.882 121.344C389.385 123.221 389.718 125.038 389.883 126.793C390.045 128.538 389.953 130.151 389.609 131.631C389.275 133.109 388.624 134.389 387.656 135.472C386.684 136.544 385.323 137.35 383.574 137.89C382.48 138.242 381.481 138.398 380.576 138.358C379.671 138.318 378.886 138.087 378.22 137.665C377.562 137.23 377.057 136.618 376.705 135.83L376.507 135.883C376.431 136.609 376.115 137.341 375.56 138.078C375.012 138.801 374.27 139.453 373.331 140.034C372.39 140.604 371.286 141.029 370.02 141.31C368.663 141.603 367.341 141.628 366.052 141.385C364.771 141.128 363.575 140.613 362.462 139.841C361.357 139.054 360.383 138.01 359.54 136.706C358.696 135.403 358.032 133.846 357.547 132.034C357.073 130.267 356.908 128.641 357.051 127.156C357.194 125.67 357.56 124.337 358.15 123.155C358.75 121.971 359.516 120.966 360.448 120.14C361.376 119.303 362.391 118.654 363.491 118.195C364.632 117.712 365.751 117.43 366.847 117.349C367.942 117.267 368.89 117.336 369.691 117.557C370.502 117.775 371.06 118.102 371.365 118.538L371.596 118.476L371.102 116.632L375.695 115.401L379.895 131.075C380.127 131.896 380.502 132.507 381.022 132.909C381.552 133.308 382.169 133.413 382.871 133.225C383.749 132.99 384.365 132.454 384.717 131.619C385.078 130.769 385.185 129.588 385.038 128.074C384.899 126.546 384.52 124.648 383.9 122.379C383.411 120.51 382.711 118.886 381.8 117.506C380.898 116.113 379.836 114.962 378.617 114.054C377.397 113.145 376.047 112.477 374.568 112.05C373.097 111.609 371.535 111.398 369.881 111.418C368.227 111.438 366.523 111.683 364.766 112.153C362.077 112.874 359.822 113.919 358.001 115.289C356.177 116.649 354.775 118.266 353.795 120.14C352.826 122.011 352.266 124.073 352.117 126.325C351.975 128.563 352.238 130.927 352.906 133.419C353.621 136.086 354.617 138.355 355.894 140.224C357.179 142.08 358.718 143.52 360.511 144.546C362.303 145.571 364.339 146.167 366.619 146.333C368.91 146.495 371.416 146.212 374.138 145.483C375.389 145.147 376.587 144.721 377.73 144.202C378.874 143.684 379.888 143.165 380.772 142.646C381.656 142.127 382.33 141.699 382.793 141.363L385.313 145.171C384.727 145.704 383.896 146.291 382.821 146.932C381.756 147.571 380.555 148.181 379.217 148.763C377.89 149.342 376.518 149.821 375.102 150.201ZM370.12 136.218C371.514 135.845 372.556 135.277 373.247 134.516C373.934 133.743 374.314 132.771 374.388 131.598C374.462 130.425 374.279 129.039 373.839 127.44C373.439 125.947 372.924 124.773 372.295 123.918C371.666 123.063 370.878 122.515 369.931 122.275C368.985 122.034 367.831 122.097 366.47 122.461C365.24 122.791 364.267 123.351 363.55 124.144C362.844 124.933 362.392 125.883 362.196 126.995C362.008 128.092 362.081 129.266 362.417 130.518C362.752 131.769 363.249 132.9 363.908 133.912C364.576 134.91 365.419 135.643 366.439 136.11C367.466 136.565 368.693 136.6 370.12 136.218Z" fill="white"/>
<path d="M318.363 470L172.407 469.916C163.985 469.916 155.908 466.586 149.953 460.659C143.998 454.733 140.652 446.694 140.652 438.313L140.726 74.1512C140.726 65.7696 144.072 57.7312 150.027 51.8045C155.982 45.8778 164.059 42.5482 172.481 42.5482L318.437 42.6325C326.859 42.6325 334.935 45.9621 340.891 51.8888C346.846 57.8155 350.191 65.8538 350.191 74.2355L350.117 438.397C350.117 446.779 346.772 454.817 340.817 460.744C334.861 466.67 326.784 470 318.363 470Z" fill="#263238"/>
<path d="M318.31 55.4422H290.016C288.153 55.4864 286.383 56.2643 285.095 57.6052C283.808 58.9461 283.107 60.7406 283.147 62.595V67.7042C283.169 69.5496 282.459 71.3294 281.171 72.6569C279.883 73.9844 278.12 74.7523 276.266 74.7938H221.108C219.245 74.7496 217.475 73.9717 216.188 72.6308C214.9 71.2899 214.199 69.4955 214.239 67.641V62.5318C214.26 61.6132 214.099 60.6994 213.765 59.8427C213.431 58.986 212.931 58.2032 212.293 57.539C211.655 56.8747 210.892 56.3421 210.047 55.9715C209.202 55.6009 208.292 55.3995 207.369 55.379H172.651C169.727 55.3721 166.831 55.9392 164.128 57.0478C161.425 58.1565 158.968 59.7849 156.899 61.8398C154.829 63.8947 153.187 66.3358 152.066 69.0232C150.946 71.7106 150.369 74.5916 150.369 77.5011L150.306 432.961C150.306 438.828 152.648 444.455 156.816 448.604C160.985 452.753 166.639 455.083 172.534 455.083L318.193 455.168C321.117 455.175 324.013 454.607 326.716 453.499C329.419 452.39 331.875 450.762 333.945 448.707C336.015 446.652 337.657 444.211 338.777 441.524C339.898 438.836 340.474 435.955 340.474 433.046L340.549 77.6065C340.554 74.6969 339.983 71.8149 338.868 69.1253C337.752 66.4358 336.115 63.9916 334.049 61.9328C331.983 59.874 329.53 58.2409 326.829 57.1272C324.128 56.0134 321.233 55.4408 318.31 55.4422Z" fill="white"/>
<path d="M320.448 84.2747C320.448 84.3695 316.764 84.4749 312.223 84.517C307.682 84.5591 304.009 84.517 304.009 84.4116C304.009 84.3063 307.682 84.2115 312.223 84.1694C316.764 84.1272 320.448 84.2747 320.448 84.2747Z" fill="#263238"/>
<path d="M320.48 88.4884C320.48 88.5832 316.796 88.6991 312.266 88.7307C307.735 88.7623 304.041 88.7307 304.041 88.6254C304.041 88.52 307.714 88.4252 312.255 88.3831C316.796 88.341 320.48 88.4042 320.48 88.4884Z" fill="#263238"/>
<path d="M320.511 92.7022C320.511 92.797 316.838 92.9023 312.297 92.9445C307.756 92.9866 304.073 92.9444 304.073 92.8391C304.073 92.7338 307.756 92.6284 312.297 92.5968C316.838 92.5652 320.511 92.5968 320.511 92.7022Z" fill="#263238"/>
<path d="M165.675 96.7684H166.099H167.305L171.719 96.6631L171.603 96.7895C171.603 95.8098 171.603 94.7458 171.55 93.6292C171.55 93.0287 171.55 92.4704 171.55 91.7857C171.619 91.4318 171.801 91.1093 172.067 90.8649C172.334 90.6205 172.672 90.467 173.032 90.4267C173.741 90.4267 174.376 90.4267 175.149 90.4267C175.554 90.4941 175.923 90.7027 176.188 91.0152C176.454 91.3278 176.599 91.724 176.599 92.1333C176.599 93.6187 176.599 95.1777 176.652 96.7895L176.44 96.5893L182.018 96.5261L181.807 96.7473C181.807 94.5035 181.807 92.1965 181.754 89.8263C181.754 89.2364 181.754 88.6464 181.754 88.0671C181.729 87.8036 181.646 87.5489 181.51 87.3212C181.375 87.0935 181.191 86.8985 180.97 86.7503L178.515 84.2747L176.165 81.9571L175.022 80.8405C174.63 80.4613 174.323 80.0715 173.868 79.9872C173.65 79.9261 173.421 79.9162 173.199 79.9583C172.977 80.0003 172.767 80.0932 172.587 80.2295C172.248 80.5139 171.888 80.9142 171.529 81.2829L169.549 83.2213C168.29 84.5275 166.977 85.7179 166.024 86.8345C165.736 87.4973 165.641 88.2273 165.749 88.9414C165.749 89.6261 165.749 90.2793 165.749 90.9008C165.749 92.1017 165.749 93.1551 165.749 94.0611C165.749 94.9671 165.749 95.5359 165.749 96.0732C165.749 96.6104 165.749 96.7895 165.749 96.8C165.729 96.5793 165.729 96.3571 165.749 96.1364C165.749 95.5991 165.749 94.946 165.749 94.1559C165.749 93.3658 165.696 92.186 165.675 90.9956C165.675 90.3635 165.675 89.6999 165.675 89.0046C165.675 88.6464 165.675 88.2777 165.675 87.9512C165.666 87.5439 165.772 87.1423 165.982 86.7924C167.041 85.5283 168.247 84.4116 169.517 83.0738L171.497 81.0512C171.857 80.7036 172.153 80.3559 172.555 79.9978C172.783 79.8255 173.047 79.7075 173.328 79.6527C173.609 79.5979 173.899 79.6079 174.175 79.6817C174.703 79.8665 175.169 80.1949 175.519 80.6298C175.89 80.9985 176.271 81.3777 176.662 81.7465L179.023 84.0535L181.267 86.3816C181.496 86.5825 181.705 86.8048 181.891 87.0452C182.068 87.327 182.167 87.6506 182.177 87.9828C182.177 88.5727 182.177 89.1626 182.177 89.7631C182.177 92.1228 182.177 94.4403 182.23 96.6736V96.8948H182.061H176.482H176.271V96.6947C176.271 95.0829 176.271 93.5344 176.271 92.0385C176.275 91.7161 176.163 91.4028 175.955 91.1554C175.748 90.9081 175.458 90.743 175.138 90.6901C174.503 90.6901 173.741 90.6901 173.116 90.6901C172.829 90.7164 172.558 90.8325 172.341 91.0217C172.124 91.211 171.973 91.4636 171.91 91.7435C171.857 92.3019 171.91 92.955 171.91 93.5133V96.8316H171.793H167.295H166.12C165.969 96.8355 165.819 96.8141 165.675 96.7684Z" fill="#263238"/>
<path d="M261.956 374.517C261.449 374.602 260.935 374.637 260.421 374.622L256.25 374.706C252.725 374.759 247.867 374.791 242.49 374.791C237.113 374.791 232.254 374.791 228.729 374.706L224.559 374.622C224.049 374.638 223.538 374.603 223.035 374.517C223.538 374.431 224.049 374.396 224.559 374.411L228.729 374.327C232.254 374.327 237.123 374.243 242.49 374.243C247.856 374.243 252.725 374.243 256.25 374.327L260.421 374.411C260.935 374.396 261.449 374.431 261.956 374.517Z" fill="#455A64"/>
<path d="M323.126 384.05C323.126 384.198 300.717 384.324 273.08 384.324C245.443 384.324 223.035 384.198 223.035 384.05C223.035 383.903 245.432 383.776 273.08 383.776C300.728 383.776 323.126 383.892 323.126 384.05Z" fill="#455A64"/>
<path d="M291.847 393.015C291.847 393.162 276.436 393.289 257.436 393.289C238.436 393.289 223.035 393.162 223.035 393.015C223.035 392.868 238.436 392.741 257.436 392.741C276.436 392.741 291.847 392.857 291.847 393.015Z" fill="#455A64"/>
<path d="M325.105 410.46L321.993 407.352L319.029 410.291V401.411H325.105V410.46ZM321.993 406.973L322.088 407.068L324.83 409.796V401.695H319.305V409.649L321.993 406.973Z" fill="#263238"/>
<path d="M242.299 409.301L241.241 408.817C240.659 409.123 239.993 409.232 239.344 409.125C238.695 409.018 238.099 408.703 237.647 408.227C237.195 407.75 236.913 407.14 236.844 406.489C236.774 405.838 236.922 405.182 237.263 404.622C237.604 404.062 238.12 403.629 238.732 403.389C239.345 403.149 240.019 403.116 240.652 403.295C241.285 403.473 241.842 403.853 242.237 404.377C242.632 404.901 242.844 405.539 242.839 406.194C242.843 406.936 242.576 407.655 242.088 408.216L242.299 409.301ZM239.727 403.391C238.975 403.391 238.253 403.689 237.721 404.218C237.189 404.748 236.89 405.466 236.89 406.215C236.89 406.963 237.189 407.681 237.721 408.211C238.253 408.74 238.975 409.038 239.727 409.038C240.215 409.01 240.688 408.862 241.103 408.606L241.908 408.964L241.728 408.174C242.203 407.647 242.467 406.965 242.469 406.257C242.475 405.518 242.192 404.807 241.681 404.272C241.169 403.737 240.468 403.421 239.727 403.391Z" fill="#263238"/>
<path d="M249.349 408.838L248.089 405.783L245.729 403.676L251.455 403.623L249.349 408.838ZM246.269 403.844L248.28 405.677L249.338 408.279L251.138 403.802L246.269 403.844Z" fill="#263238"/>
<path d="M251.323 403.625L248.2 405.647L248.315 405.824L251.438 403.802L251.323 403.625Z" fill="#263238"/>
<path d="M233.292 404.276C233.214 403.863 232.99 403.491 232.661 403.227C232.331 402.964 231.917 402.827 231.495 402.841C231.073 402.855 230.669 403.019 230.358 403.304C230.047 403.588 229.848 403.974 229.799 404.392C229.733 403.983 229.525 403.61 229.211 403.339C228.896 403.067 228.496 402.915 228.08 402.909C227.663 402.903 227.258 403.043 226.936 403.304C226.613 403.566 226.394 403.933 226.316 404.339C226.23 404.943 226.386 405.556 226.75 406.046C227.108 406.534 227.528 406.973 227.999 407.352L229.862 409.006C230.487 408.437 231.026 407.9 231.651 407.331C232.117 406.941 232.533 406.495 232.889 406.004C233.239 405.5 233.383 404.882 233.292 404.276Z" fill="#9C42E2"/>
<path d="M331.477 418.319C331.477 418.319 331.477 417.981 331.477 417.328C331.477 416.675 331.477 415.706 331.477 414.442C331.477 411.903 331.477 408.121 331.477 403.328C331.477 393.647 331.424 379.552 331.382 361.886L331.562 362.065L162.288 362.16L162.563 361.886C162.563 381.501 162.563 400.526 162.563 418.319L162.299 418.055L283.432 418.182L318.786 418.255H328.312H330.768H331.615H330.8H328.238H318.807L283.506 418.329L162.193 418.445H161.949V418.182C161.949 400.389 161.949 381.311 161.949 361.749V361.475H162.235L331.509 361.57H331.689V361.749C331.689 379.468 331.615 393.584 331.594 403.297C331.594 408.121 331.594 411.85 331.541 414.379C331.541 415.622 331.541 416.58 331.541 417.223C331.541 417.866 331.477 418.319 331.477 418.319Z" fill="#263238"/>
<path d="M169.257 371.344L169.041 408.656L215.932 408.925L216.148 371.613L169.257 371.344Z" fill="#EBEBEB"/>
<path d="M216.123 371.578H215.89H203.05L169.179 371.514L169.433 371.262C169.369 382.375 169.306 395.101 169.242 408.574L168.978 408.3H175.413H181.764L193.937 408.374L215.89 408.532L215.657 408.764C215.774 397.555 215.869 388.264 215.932 381.743C215.932 378.499 216.017 375.939 216.038 374.169C216.038 373.305 216.038 372.642 216.038 372.157C216.038 371.672 216.038 371.451 216.038 371.451C216.038 371.451 216.038 371.672 216.038 372.115C216.038 372.557 216.038 373.232 216.038 374.074C216.038 375.834 216.038 378.372 216.038 381.596C216.038 388.159 216.038 397.503 216.038 408.764V408.996H215.932L193.969 408.901L181.807 408.838H175.456H169.02L168.734 408.553C168.819 395.09 168.904 382.365 168.978 371.251V371.009H169.221L203.199 371.325L212.725 371.441H215.234H215.879L216.123 371.578Z" fill="#263238"/>
<path d="M170.852 373.703L170.663 406.317L214.262 406.567L214.451 373.953L170.852 373.703Z" fill="#E0E0E0"/>
<path d="M170.65 406.288L185.998 386.105L195.355 398.841L201.791 392.088L214.249 406.531L170.65 406.288Z" fill="#F5F5F5"/>
<path d="M199.441 383.692C199.443 384.369 199.243 385.03 198.867 385.593C198.49 386.157 197.954 386.596 197.326 386.855C196.699 387.114 196.008 387.182 195.341 387.05C194.675 386.918 194.063 386.591 193.583 386.112C193.103 385.633 192.777 385.023 192.646 384.359C192.515 383.696 192.586 383.008 192.848 382.384C193.111 381.76 193.554 381.228 194.12 380.855C194.687 380.482 195.353 380.285 196.033 380.29C196.936 380.298 197.8 380.659 198.437 381.296C199.075 381.933 199.435 382.793 199.441 383.692Z" fill="#F5F5F5"/>
<path d="M248.301 129.572C248.137 129.606 247.971 129.623 247.803 129.625H246.364L241.071 129.709C236.605 129.709 230.487 129.794 223.649 129.794C216.811 129.794 210.682 129.794 206.215 129.709L200.923 129.625H199.494C199.327 129.622 199.16 129.604 198.996 129.572C199.162 129.525 199.333 129.504 199.505 129.509L200.933 129.456L206.226 129.372C210.693 129.372 216.811 129.298 223.659 129.298C230.508 129.298 236.615 129.298 241.082 129.372L246.375 129.456L247.814 129.509C247.979 129.504 248.143 129.526 248.301 129.572Z" fill="#263238"/>
<path d="M317.548 335.803L312.922 331.189L308.529 335.55V322.351H317.548V335.803ZM312.922 330.61L313.07 330.757L317.135 334.823V322.772H308.931V334.592L312.922 330.61Z" fill="#263238"/>
<path d="M200.235 334.413L198.118 333.454C196.885 334.024 195.483 334.117 194.185 333.713C192.888 333.31 191.788 332.439 191.101 331.271C190.414 330.103 190.19 328.723 190.471 327.399C190.753 326.075 191.521 324.904 192.624 324.113C193.728 323.323 195.088 322.97 196.438 323.125C197.789 323.279 199.033 323.93 199.928 324.949C200.822 325.967 201.303 327.282 201.275 328.635C201.248 329.987 200.715 331.281 199.78 332.264L200.235 334.413ZM195.186 322.762C194.452 322.767 193.726 322.916 193.05 323.201C192.374 323.486 191.761 323.9 191.246 324.42C190.206 325.471 189.628 326.891 189.639 328.366C189.651 329.841 190.25 331.251 191.306 332.287C192.362 333.322 193.788 333.897 195.271 333.886C196.227 333.833 197.154 333.543 197.97 333.043H198.054L199.653 333.759L199.293 332.2L199.356 332.116C200.091 331.318 200.575 330.324 200.75 329.256C200.924 328.187 200.781 327.092 200.338 326.103C199.895 325.115 199.171 324.277 198.256 323.693C197.34 323.108 196.273 322.803 195.186 322.814V322.762Z" fill="#263238"/>
<path d="M214.122 333.486L211.698 327.47L207.062 323.257L218.314 323.162L214.122 333.486ZM208.057 323.668L212.005 327.281L214.122 332.4L217.658 323.583L208.057 323.668Z" fill="#263238"/>
<path d="M218.054 323.166L211.915 327.142L212.14 327.486L218.279 323.511L218.054 323.166Z" fill="#263238"/>
<path d="M182.516 324.521C182.355 323.714 181.911 322.991 181.264 322.48C180.616 321.969 179.808 321.704 178.982 321.732C178.156 321.76 177.367 322.079 176.756 322.632C176.145 323.186 175.752 323.937 175.646 324.753C175.526 323.941 175.12 323.197 174.501 322.655C173.882 322.113 173.09 321.807 172.265 321.792C171.441 321.777 170.637 322.053 169.998 322.572C169.36 323.091 168.927 323.819 168.776 324.626C168.617 325.821 168.924 327.031 169.634 328.008C170.344 328.964 171.173 329.828 172.1 330.578L175.763 333.823C177.001 332.695 178.049 331.642 179.287 330.515C180.208 329.754 181.023 328.876 181.711 327.902C182.41 326.922 182.698 325.709 182.516 324.521Z" fill="#9C42E2"/>
<path d="M181.489 137.168C185.71 137.168 189.131 133.762 189.131 129.562C189.131 125.361 185.71 121.956 181.489 121.956C177.268 121.956 173.847 125.361 173.847 129.562C173.847 133.762 177.268 137.168 181.489 137.168Z" fill="#EBEBEB"/>
<path d="M314.69 292.191C314.69 292.338 282.66 292.465 243.157 292.465C203.654 292.465 171.624 292.338 171.624 292.191C171.624 292.043 203.643 291.917 243.157 291.917C282.67 291.917 314.69 292.033 314.69 292.191Z" fill="#455A64"/>
<path d="M314.69 280.329C314.69 280.487 282.66 280.603 243.157 280.603C203.654 280.603 171.624 280.487 171.624 280.329C171.624 280.171 203.643 280.055 243.157 280.055C282.67 280.055 314.69 280.213 314.69 280.329Z" fill="#455A64"/>
<path d="M249.497 304.2C249.497 304.358 232.064 304.474 210.566 304.474C189.068 304.474 171.624 304.358 171.624 304.2C171.624 304.042 189.057 303.926 210.566 303.926C232.074 303.926 249.497 304.053 249.497 304.2Z" fill="#455A64"/>
<path d="M239.886 433.383C239.876 433.979 239.688 434.558 239.348 435.049C239.007 435.539 238.529 435.918 237.972 436.139C237.415 436.359 236.806 436.411 236.22 436.288C235.634 436.164 235.097 435.871 234.678 435.445C234.259 435.02 233.976 434.48 233.864 433.894C233.752 433.308 233.817 432.703 234.05 432.154C234.283 431.605 234.674 431.136 235.174 430.808C235.673 430.479 236.26 430.305 236.859 430.307C237.26 430.311 237.657 430.393 238.027 430.55C238.396 430.707 238.731 430.935 239.012 431.221C239.294 431.506 239.515 431.844 239.665 432.215C239.815 432.586 239.89 432.983 239.886 433.383Z" fill="#263238"/>
<path d="M249.307 433.425C249.296 434.021 249.109 434.6 248.768 435.091C248.428 435.581 247.949 435.961 247.393 436.181C246.836 436.402 246.226 436.453 245.64 436.33C245.054 436.207 244.518 435.913 244.099 435.488C243.68 435.062 243.396 434.522 243.285 433.936C243.173 433.351 243.238 432.745 243.471 432.196C243.704 431.647 244.095 431.178 244.594 430.85C245.094 430.521 245.68 430.347 246.279 430.349C246.681 430.353 247.078 430.436 247.448 430.593C247.817 430.749 248.152 430.977 248.433 431.263C248.714 431.548 248.936 431.886 249.086 432.257C249.236 432.628 249.311 433.025 249.307 433.425Z" fill="#263238"/>
<path d="M258.727 433.477C258.717 434.076 258.529 434.658 258.186 435.15C257.844 435.643 257.363 436.023 256.804 436.244C256.245 436.465 255.633 436.517 255.044 436.392C254.456 436.267 253.918 435.972 253.498 435.544C253.077 435.115 252.794 434.573 252.683 433.984C252.572 433.396 252.638 432.788 252.874 432.237C253.109 431.686 253.503 431.217 254.006 430.888C254.509 430.56 255.098 430.387 255.7 430.391C256.511 430.405 257.284 430.737 257.851 431.315C258.418 431.893 258.733 432.67 258.727 433.477Z" fill="#263238"/>
<path d="M332.493 144.605H163.209V247.631H332.493V144.605Z" fill="#E0E0E0"/>
<path d="M178.832 247.652L227.343 183.034L257.415 223.444L277.801 201.827L317.77 247.61L178.832 247.652Z" fill="#F5F5F5"/>
<path d="M270.159 175.112C270.159 177.267 269.517 179.373 268.314 181.165C267.11 182.956 265.401 184.353 263.4 185.177C261.399 186.001 259.198 186.216 257.075 185.795C254.952 185.374 253.001 184.335 251.471 182.811C249.941 181.286 248.899 179.345 248.478 177.231C248.057 175.117 248.275 172.927 249.105 170.937C249.935 168.946 251.34 167.246 253.141 166.05C254.942 164.855 257.059 164.218 259.225 164.22C260.661 164.22 262.084 164.502 263.411 165.049C264.739 165.597 265.945 166.399 266.96 167.411C267.975 168.422 268.781 169.623 269.33 170.945C269.878 172.266 270.16 173.682 270.159 175.112Z" fill="#F5F5F5"/>
<path d="M332.038 343.419C332.038 341.207 331.932 248.136 331.784 110.358L332.038 110.6H162.775L163.05 110.326C163.008 197.487 163.008 278.106 163.008 343.419L162.785 343.198L332.07 343.419L162.785 343.641H162.563V343.419C162.563 278.18 162.563 197.519 162.51 110.358V110.084H162.807H332.07H332.314V110.337C332.314 179.294 332.218 237.581 332.197 278.644C332.197 299.144 332.144 315.335 332.123 326.417C332.123 331.947 332.123 336.193 332.123 339.058C332.123 340.48 332.123 341.565 332.123 342.292C332.123 343.019 332.038 343.419 332.038 343.419Z" fill="#263238"/>
<path d="M252.493 372.294L256.24 359.769C256.896 357.061 257.764 353.848 258.928 350.193C259.987 346.917 262.665 343.462 265.12 340.975C268.952 337.109 270.762 337.078 273.334 335.024C273.567 334.876 273.832 334.665 274.054 334.539C274.538 334.277 274.964 333.918 275.303 333.486C277.515 331.105 275.388 327.418 270.889 327.765C267.502 328.029 261.987 328.998 253.011 338.215C252.895 338.352 252.778 338.468 252.662 338.616C247.952 344.705 243.527 327.312 242.733 320.834C242.574 319.832 242.19 318.878 241.612 318.042C241.033 317.207 240.274 316.511 239.389 316.006C238.505 315.501 237.518 315.199 236.502 315.123C235.485 315.047 234.464 315.199 233.514 315.567L211.698 325.722C209.612 325.118 207.386 325.195 205.347 325.943C203.804 326.463 202.513 327.541 201.729 328.963C200.945 330.385 200.725 332.047 201.113 333.623L209.984 368.86L183.913 455.083H240.066L252.493 372.294Z" fill="#FFBE9D"/>
<path d="M295.626 293.065L278.267 326.912L269.598 324.51L225.967 359.832C224.185 361.282 221.906 361.983 219.613 361.786C217.32 361.59 215.194 360.51 213.688 358.778L197.081 339.564C197.081 339.564 230.571 325.206 236.763 313.323C242.956 301.44 235.8 298.743 235.8 298.743L251.572 280.919L295.626 293.065Z" fill="#9C42E2"/>
<path d="M273.091 223.918C273.091 223.918 247.687 218.324 211.931 184.109C176.175 149.893 159.377 104.448 155.006 104.669C150.634 104.89 131.518 96.0626 95.169 174.744C58.8204 253.425 73.1418 271.659 80.3501 271.544C87.5584 271.428 136.694 257.775 167.369 261.252C198.044 264.728 237.462 280.635 237.462 280.635L273.091 223.918Z" fill="#9C42E2"/>
<path d="M327.074 266.803L318.405 283.205L314.52 290.579C311.956 295.433 307.618 299.123 302.401 300.887C297.184 302.651 291.485 302.355 286.481 300.06L232.021 281.183L263.776 209.117L318.193 237.981C323.194 240.648 326.933 245.174 328.596 250.572C330.26 255.971 329.712 261.805 327.074 266.803Z" fill="#9C42E2"/>
<g opacity="0.4">
<path opacity="0.4" d="M327.074 266.803L318.405 283.205L314.52 290.579C311.956 295.433 307.618 299.123 302.401 300.887C297.184 302.651 291.485 302.355 286.481 300.06L232.021 281.183L263.776 209.117L318.193 237.981C323.194 240.648 326.933 245.174 328.596 250.572C330.26 255.971 329.712 261.805 327.074 266.803Z" fill="black"/>
</g>
<path d="M98.1328 176.176C78.7835 218.798 70.739 256.774 80.1384 261.009C89.5378 265.244 112.856 234.115 132.195 191.483C151.534 148.85 159.589 110.874 150.189 106.65C140.79 102.425 117.493 133.554 98.1328 176.176Z" fill="#9C42E2"/>
<g opacity="0.5">
<path opacity="0.5" d="M98.1328 176.176C78.7835 218.798 70.739 256.774 80.1384 261.009C89.5378 265.244 112.856 234.115 132.195 191.483C151.534 148.85 159.589 110.874 150.189 106.65C140.79 102.425 117.493 133.554 98.1328 176.176Z" fill="black"/>
</g>
<path d="M331.763 290.505L317.008 285.891L326.142 268.605L337.204 275.452L331.763 290.505Z" fill="#9C42E2"/>
<g opacity="0.6">
<path opacity="0.6" d="M326.142 268.605L317.008 285.891L320.035 286.839L327.466 269.426L326.142 268.605Z" fill="black"/>
</g>
<path d="M315.97 272.587C315.748 273.071 308.381 270.216 299.521 266.266C290.662 262.316 283.644 258.66 283.845 258.186C284.046 257.712 291.424 260.556 300.294 264.507C309.164 268.457 316.182 272.112 315.97 272.587Z" fill="#9C42E2"/>
<path d="M320.511 262.305C320.278 262.779 313.61 259.977 305.618 256.058C297.627 252.139 291.329 248.589 291.562 248.126C291.794 247.662 298.463 250.454 306.454 254.373C314.446 258.291 320.723 261.831 320.511 262.305Z" fill="#9C42E2"/>
<path d="M310.244 283.374C310.17 283.627 308.413 283.226 305.618 282.32C304.221 281.899 302.559 281.351 300.728 280.719C298.897 280.087 297.023 279.107 294.991 278.201C286.915 274.472 280.754 270.827 280.955 270.385C281.157 269.942 287.783 272.787 295.774 276.484C297.785 277.39 299.648 278.391 301.395 279.118C303.141 279.845 304.74 280.487 306.063 281.067C308.709 282.32 310.318 283.142 310.244 283.374Z" fill="#9C42E2"/>
<path d="M137.604 166.695C137.604 166.695 115.481 153.064 103.393 182.76C91.3055 212.457 114.55 217.334 114.55 217.334C124.591 201.618 132.352 184.571 137.604 166.695Z" fill="#9C42E2"/>
<g opacity="0.5">
<path opacity="0.5" d="M161.049 131.311C161.177 131.311 160.87 133.344 160.182 136.978C159.494 140.612 158.499 145.879 157.08 152.348C156.149 155.508 155.133 159.005 154.032 162.734C153.481 164.599 152.91 166.537 152.317 168.518C152.021 169.519 151.724 170.53 151.417 171.552C151.11 172.574 150.655 173.553 150.274 174.586C148.686 178.662 147.014 182.95 145.289 187.395L143.955 190.756C143.531 191.883 142.896 192.957 142.409 194.074C141.351 196.286 140.229 198.53 139.128 200.806L135.847 207.526C135.275 208.58 134.788 209.76 134.185 210.803L132.311 213.91L125.272 225.74C124.701 226.678 124.214 227.626 123.579 228.511L121.748 231.092L118.223 236.022L111.872 244.839C107.638 249.927 104.113 253.951 101.679 256.732C100.487 258.247 99.1658 259.657 97.7305 260.946C97.6247 260.862 98.842 259.208 101.107 256.29L110.835 244.017L116.932 235.126L120.34 230.186L122.118 227.615C122.7 226.731 123.177 225.772 123.769 224.834L130.66 213.036L132.481 209.949C133.095 208.896 133.539 207.779 134.121 206.694L137.382 200.005L140.642 193.316C141.16 192.21 141.764 191.156 142.198 190.029L143.521 186.7C145.267 182.307 146.961 178.062 148.58 174.059C148.972 173.005 149.406 172.057 149.745 171.057L150.687 168.065C151.301 166.098 151.897 164.188 152.476 162.334C153.651 158.647 154.73 155.213 155.736 152.063L159.409 136.904C159.794 134.996 160.343 133.125 161.049 131.311Z" fill="black"/>
</g>
<g opacity="0.4">
<path opacity="0.4" d="M202.373 337.173C204.384 340.817 206.448 344.547 209.423 347.422C212.397 350.298 216.504 352.395 220.653 351.973C224.802 351.552 228.74 348.128 228.793 343.967C230.783 345.463 233.842 344.652 235.493 342.798C237.144 340.944 237.674 338.352 237.875 335.877C240.585 337.468 244.353 336.203 246.152 333.644C246.986 332.311 247.513 330.812 247.696 329.253C247.879 327.694 247.714 326.114 247.211 324.626C246.181 321.667 244.715 318.876 242.86 316.346C244.977 316.515 247.158 316.652 249.021 315.714C250.884 314.777 252.143 312.322 251.053 310.542C250.307 309.561 249.233 308.877 248.026 308.614C244.755 307.561 242.458 306.781 239.06 307.171C238.266 307.171 240.426 316.104 219.076 328.303C206.459 335.508 202.373 337.173 202.373 337.173Z" fill="black"/>
</g>
<path d="M250.45 350.067C250.45 350.161 249.01 349.898 246.713 349.951C243.713 350.02 240.761 350.724 238.055 352.015C235.349 353.307 232.949 355.156 231.016 357.441C229.534 359.189 228.899 360.464 228.761 360.411C228.864 360.09 229.006 359.782 229.185 359.495C229.629 358.687 230.142 357.918 230.719 357.198C232.614 354.789 235.042 352.847 237.814 351.524C240.587 350.201 243.628 349.533 246.703 349.571C247.629 349.575 248.553 349.656 249.465 349.814C249.805 349.846 250.137 349.931 250.45 350.067Z" fill="#EB996E"/>
<path d="M203.76 331.516C207.2 334.813 209.56 338.437 213.159 341.744C214.8 343.251 217.393 346.106 219.51 346.485C221.627 346.864 223.119 346.569 223.987 344.525C224.697 342.872 223.426 340.607 222.558 339.258C220.262 335.666 218.06 332.864 216.335 330.072C215.53 328.766 216.578 328.503 216.959 329.103C218.61 330.81 221.077 332.264 222.558 334.149C224.591 336.698 224.961 340.069 230.275 339.006C230.984 338.878 231.656 338.598 232.244 338.184C234.244 336.667 234.361 333.97 233.493 331.863C232.742 330.234 231.742 328.731 230.529 327.407C232.794 329.946 235.26 332.622 238.859 332.917C239.877 333.038 240.908 332.842 241.808 332.355C242.709 331.868 243.436 331.115 243.887 330.199C244.946 327.797 243.432 325.479 241.897 323.594C239.183 320.261 236.16 317.189 232.868 314.418C231.643 313.385 230.092 312.811 228.486 312.796C226.623 312.796 224.252 313.133 223.194 314.745C222.589 315.517 222.15 316.404 221.902 317.352C221.655 318.299 221.604 319.287 221.754 320.254C221.754 320.254 217.086 317.895 213.339 320.36C211.033 321.966 209.378 324.338 208.671 327.049L203.76 331.516Z" fill="#FFBE9D"/>
<path d="M228.634 311.816C227.889 310.956 227.427 309.888 227.31 308.759C227.193 307.629 227.426 306.49 227.978 305.496C228.772 303.958 229.767 302.451 230.783 302.114C235.218 300.618 254.599 303.958 254.43 308.235C254.26 312.512 252.831 314.555 242.31 313.059C240.468 312.796 237.557 312.427 237.557 312.427L235.017 316.22L228.634 311.816Z" fill="#FFBE9D"/>
<path d="M232.053 329.725C230.704 327.711 229.15 325.84 227.417 324.142C225.547 322.587 223.522 321.228 221.373 320.086C222.094 320.211 222.788 320.456 223.426 320.813C225.016 321.568 226.485 322.551 227.787 323.731C229.09 324.91 230.217 326.268 231.132 327.765C231.549 328.362 231.861 329.024 232.053 329.725Z" fill="#EB996E"/>
<path d="M235.313 316.567C235.218 316.662 233.937 315.619 232.191 314.555C231.458 314.095 230.698 313.68 229.915 313.312C229.322 313.028 228.92 312.954 228.92 312.87C228.92 312.786 229.375 312.743 230.053 312.944C230.91 313.22 231.729 313.606 232.487 314.092C234.276 315.177 235.44 316.452 235.313 316.567Z" fill="#EB996E"/>
<path d="M238.563 312.585C237.306 312.738 236.03 312.598 234.837 312.175C233.964 311.923 233.151 311.501 232.445 310.931C231.916 310.479 231.693 310.099 231.746 310.057C232.763 310.712 233.854 311.246 234.996 311.648C236.922 312.206 238.595 312.406 238.563 312.585Z" fill="#EB996E"/>
<path d="M219.732 334.992C219.06 334.297 218.468 333.53 217.965 332.706C216.746 330.764 215.216 329.035 213.434 327.586C211.601 326.259 209.337 325.658 207.083 325.901C206.153 326.079 205.247 326.365 204.384 326.754C204.384 326.754 204.564 326.533 204.998 326.269C205.622 325.903 206.307 325.649 207.02 325.522C208.204 325.326 209.415 325.369 210.583 325.647C211.75 325.926 212.849 326.435 213.815 327.144C215.653 328.626 217.19 330.442 218.346 332.495C218.876 333.288 219.339 334.123 219.732 334.992Z" fill="#EB996E"/>
<path d="M234.562 377.688C231.949 378.253 229.3 378.633 226.634 378.825C223.99 379.201 221.323 379.398 218.653 379.415C221.265 378.85 223.914 378.47 226.581 378.278C229.225 377.902 231.891 377.705 234.562 377.688Z" fill="#EB996E"/>
<path d="M401.306 27.3471L402.502 29.5172L404.683 30.7076L402.502 31.898L401.306 34.068L400.11 31.898L397.929 30.7076L400.11 29.5172L401.306 27.3471Z" fill="#9C42E2"/>
<path d="M426.286 81.2513L427.482 83.4214L429.674 84.6118L427.482 85.8022L426.286 87.9722L425.09 85.8022L422.91 84.6118L425.09 83.4214L426.286 81.2513Z" fill="#9C42E2"/>
<path d="M25.8272 225.066L27.0233 227.236L29.2038 228.427L27.0233 229.617L25.8272 231.787L24.6311 229.617L22.4506 228.427L24.6311 227.236L25.8272 225.066Z" fill="#9C42E2"/>
<path d="M368.524 40.7468L371.277 45.7612L376.326 48.5106L371.277 51.2601L368.524 56.2744L365.762 51.2601L360.723 48.5106L365.762 45.7612L368.524 40.7468Z" fill="#9C42E2"/>
<path d="M48.2249 190.893L50.977 195.907L56.0048 198.646L50.977 201.385L48.2249 206.399L45.4728 201.385L40.4344 198.646L45.4728 195.907L48.2249 190.893Z" fill="#9C42E2"/>
<path d="M433.082 310.426L435.845 315.44L440.872 318.179L435.845 320.918L433.082 325.922L430.33 320.918L425.302 318.179L430.33 315.44L433.082 310.426Z" fill="#9C42E2"/>
<g clip-path="url(#clip0_3_349)">
<path d="M457.422 264.376C457.68 263.752 457.765 263.068 457.667 262.399C457.566 261.71 457.292 261.058 456.869 260.505C455.296 258.424 447.349 252.179 447.349 252.179C444.066 249.538 440.623 247.102 437.041 244.883C436.395 244.613 435.693 244.507 434.997 244.575C434.31 244.644 433.663 244.885 433.116 245.277C431.257 246.912 429.558 248.719 428.041 250.675C426.5 252.61 425.146 254.687 423.997 256.883C423.744 257.503 423.663 258.186 423.762 258.867C423.861 259.547 424.137 260.2 424.562 260.764C426.162 262.866 434.07 269.079 434.07 269.079C437.358 271.724 440.805 274.164 444.391 276.386C445.029 276.665 445.727 276.778 446.42 276.713C447.104 276.647 447.746 276.401 448.282 276.006C450.15 274.379 451.854 272.575 453.372 270.618C454.936 268.684 456.293 266.592 457.422 264.375L457.422 264.376ZM435.341 262.261L441.024 255.028L444.794 263.84L435.341 262.261Z" fill="white"/>
</g>
<g clip-path="url(#clip1_3_349)">
<path fill-rule="evenodd" clip-rule="evenodd" d="M133.716 61.2228C133.933 60.2478 133.589 59.5687 132.202 59.6757L127.622 60.0289C126.456 60.1188 125.965 60.7657 125.725 61.4564C125.725 61.4564 123.826 67.2125 120.806 71.0892C119.819 72.2219 119.36 72.5926 118.777 72.6376C118.486 72.66 118.022 72.3605 117.948 71.4061L117.261 62.4918C117.173 61.3472 116.812 60.8625 115.842 60.9373L108.64 61.4928C107.912 61.5489 107.515 62.1131 107.554 62.6173C107.637 63.7009 109.307 63.8248 109.712 66.8617L110.223 73.4885C110.335 74.942 110.088 75.226 109.506 75.271C107.953 75.3907 103.743 70.0794 101.007 63.8419C100.476 62.6278 99.9975 62.1592 98.8268 62.2495L94.2431 62.603C92.9345 62.7039 92.7195 63.3296 92.771 63.9978C92.8628 65.1878 94.8715 70.9795 101.154 78.36C105.352 83.4072 110.906 85.8908 115.761 85.5163C118.673 85.2917 118.983 84.6219 118.898 83.514L118.587 79.4782C118.488 78.1923 118.743 77.9145 119.666 77.8433C120.347 77.7909 121.537 78.0361 124.453 80.4001C127.795 83.2123 128.411 84.5408 130.16 84.4059L134.74 84.0527C136.048 83.9518 136.655 83.2591 136.18 82.018C135.667 80.7867 134.043 79.0673 131.909 77.0432C130.745 75.8867 129.041 74.6754 128.502 74.0447C127.757 73.2403 127.922 72.8433 128.348 72.0434C128.348 72.0434 133.336 63.8902 133.715 61.223L133.716 61.2228Z" fill="white"/>
</g>
<defs>
<clipPath id="clip0_3_349">
<rect width="32.2393" height="32.2393" fill="white" transform="translate(438 238) rotate(38.1577)"/>
</clipPath>
<clipPath id="clip1_3_349">
<rect width="42" height="42" fill="white" transform="translate(93 53) rotate(-4.4098)"/>
</clipPath>
</defs>
</svg>
