<svg width="313" height="581" viewBox="0 0 313 581" fill="none" xmlns="http://www.w3.org/2000/svg">
<path fill-rule="evenodd" clip-rule="evenodd" d="M65.7901 3.97654C126.608 13.8211 174.138 57.0137 219.26 99.2594C259.3 136.748 297.723 178.506 309.609 232.257C320.903 283.33 302.009 334.564 281.967 382.836C263.437 427.467 235.142 465.061 199.493 497.472C159.798 533.561 118.81 572.42 65.7901 579.377C9.12759 586.812 -48.2513 568.062 -95.8601 536.226C-144.918 503.422 -179.547 454.514 -202.581 399.922C-227.452 340.977 -244.557 277.438 -231.502 214.753C-217.516 147.605 -183.938 82.4944 -128.245 43.0087C-72.9539 3.80817 -0.963242 -6.82886 65.7901 3.97654Z" fill="#FBFBFB"/>
</svg>
