<svg width="251" height="211" viewBox="0 0 251 211" fill="none" xmlns="http://www.w3.org/2000/svg">
<g clip-path="url(#clip0_11_195)">
<g filter="url(#filter0_i_11_195)">
<path d="M27.7739 53.7574C61.1816 2.70301 107.31 -3.58149 146.368 1.23113C214.169 9.58538 238.587 72.8534 224.169 146.026C199.422 195.209 158.751 179.813 139.766 175.385C123.673 171.632 95.36 197.464 69.2995 185.57C43.2385 173.675 51.9619 160.175 33.0988 139.521C8.61801 112.717 19.5509 66.3239 27.7739 53.7574Z" fill="#F7F8FA"/>
</g>
<g filter="url(#filter1_i_11_195)">
<path d="M68.584 129.808C55.2239 128.551 37.7334 112.065 35.167 94.1597C31.0297 65.2931 48.7679 41.6016 68.584 28.8663C113.431 0.0445824 162.869 12.1692 196.416 47.3692C221.35 73.5311 232.349 163.734 171.443 164.555C154.744 164.78 129.409 142.745 121.002 136.019C112.595 129.294 102.398 132.992 68.584 129.808Z" fill="url(#paint0_linear_11_195)"/>
</g>
<g filter="url(#filter2_i_11_195)">
<path d="M88.0748 171.573C75.8448 169.107 67.3925 159.904 69.196 151.018C70.9992 142.132 82.3756 136.927 94.6056 139.393C106.836 141.858 115.288 151.061 113.484 159.947C111.681 168.833 100.305 174.038 88.0748 171.573Z" fill="url(#paint1_linear_11_195)"/>
</g>
<g filter="url(#filter3_d_11_195)">
<path d="M97.9424 69.3977H222.754C226.898 69.3977 230.243 72.7318 230.243 76.8617V171.407C230.243 175.537 226.898 178.871 222.754 178.871H97.9424C93.7989 178.871 90.4538 175.537 90.4538 171.407V76.8617C90.4538 72.7318 93.7989 69.3977 97.9424 69.3977Z" fill="white"/>
</g>
<path d="M99.4395 79.8473C100.267 79.8473 100.937 79.1786 100.937 78.3545C100.937 77.5297 100.267 76.8617 99.4395 76.8617C98.6127 76.8617 97.9417 77.5297 97.9417 78.3545C97.9417 79.1786 98.6127 79.8473 99.4395 79.8473Z" fill="#F36173"/>
<path d="M105.93 79.8473C106.757 79.8473 107.427 79.1786 107.427 78.3545C107.427 77.5297 106.757 76.8617 105.93 76.8617C105.103 76.8617 104.432 77.5297 104.432 78.3545C104.432 79.1786 105.103 79.8473 105.93 79.8473Z" fill="#EADF55"/>
<path d="M112.42 79.8473C113.247 79.8473 113.917 79.1786 113.917 78.3545C113.917 77.5297 113.247 76.8617 112.42 76.8617C111.593 76.8617 110.922 77.5297 110.922 78.3545C110.922 79.1786 111.593 79.8473 112.42 79.8473Z" fill="#91CA50"/>
<path fill-rule="evenodd" clip-rule="evenodd" d="M124.901 74.8713H219.258C221.205 74.8713 222.753 76.4136 222.753 78.3546C222.753 80.2955 221.205 81.8378 219.258 81.8378H124.901C122.953 81.8378 121.405 80.2955 121.405 78.3546C121.405 76.4136 122.953 74.8713 124.901 74.8713Z" fill="#F1F4FA"/>
<path d="M222.684 87.0454H97.8735V87.7327H222.684V87.0454Z" fill="#E4E7ED"/>
<path d="M219.97 98.2834H215.832V166.326H219.97V98.2834Z" fill="#DDE0E5"/>
<path d="M212.385 103.094H208.247V166.326H212.385V103.094Z" fill="#DDE0E5"/>
<path d="M204.799 115.466H200.662V166.326H204.799V115.466Z" fill="#DDE0E5"/>
<path d="M197.214 118.902H193.077V166.326H197.214V118.902Z" fill="#DDE0E5"/>
<path d="M189.629 114.091H185.492V166.326H189.629V114.091Z" fill="#DDE0E5"/>
<path d="M182.044 121.651H177.907V166.326H182.044V121.651Z" fill="#DDE0E5"/>
<path d="M174.459 118.902H170.321V166.326H174.459V118.902Z" fill="#DDE0E5"/>
<path d="M166.874 123.026H162.736V166.326H166.874V123.026Z" fill="#DDE0E5"/>
<path d="M159.288 116.84H155.151V166.326H159.288V116.84Z" fill="#DDE0E5"/>
<path d="M151.703 127.837H147.566V166.326H151.703V127.837Z" fill="#DDE0E5"/>
<path d="M144.118 120.964H139.981V166.326H144.118V120.964Z" fill="#DDE0E5"/>
<path d="M136.533 131.274H132.396V166.326H136.533V131.274Z" fill="#DDE0E5"/>
<path d="M128.948 125.775H124.81V166.326H128.948V125.775Z" fill="#DDE0E5"/>
<path d="M121.363 134.71H117.225V166.326H121.363V134.71Z" fill="#DDE0E5"/>
<path d="M113.777 131.274H109.64V166.326H113.777V131.274Z" fill="#DDE0E5"/>
<path d="M106.192 139.521H102.055V166.326H106.192V139.521Z" fill="#DDE0E5"/>
<path d="M201.352 96.9088H183.423V99.658H201.352V96.9088Z" fill="#E3F2FF"/>
<path d="M180.486 97.5858C180.648 97.4346 180.706 97.2126 180.635 97.0058C180.565 96.7996 180.381 96.6518 180.156 96.6209L178.153 96.3432C178.067 96.3308 177.993 96.28 177.956 96.2064L177.06 94.4751C176.959 94.2806 176.755 94.1597 176.527 94.1597C176.3 94.1597 176.096 94.2806 175.996 94.4751L175.099 96.2064C175.061 96.28 174.988 96.3315 174.902 96.3432L172.899 96.6209C172.674 96.6518 172.49 96.7996 172.42 97.0058C172.349 97.2126 172.407 97.4346 172.569 97.5858L174.02 98.9336C174.081 98.9914 174.109 99.0738 174.095 99.1549L173.753 101.057C173.722 101.225 173.769 101.388 173.882 101.516C174.059 101.716 174.367 101.778 174.614 101.654L176.405 100.756C176.481 100.718 176.575 100.719 176.65 100.756L178.442 101.654C178.529 101.698 178.622 101.72 178.718 101.72C178.893 101.72 179.059 101.646 179.173 101.516C179.286 101.388 179.333 101.224 179.302 101.057L178.96 99.1549C178.946 99.0738 178.974 98.9914 179.035 98.9336L180.486 97.5858Z" fill="#B6CFE4"/>
<path d="M164.115 96.9088H146.187V99.658H164.115V96.9088Z" fill="#E3F2FF"/>
<path d="M141.247 94.8469C140.266 94.8469 139.637 95.559 139.307 96.2002C138.978 95.559 138.316 94.8469 137.336 94.8469C136.092 94.8469 135.154 95.9054 135.154 97.3081C135.154 98.8271 136.33 99.869 138.111 101.447C138.427 101.727 138.795 102.024 139.148 102.345C139.193 102.387 139.251 102.407 139.307 102.407C139.364 102.407 139.422 102.387 139.467 102.345C139.819 102.024 140.156 101.727 140.471 101.447C142.252 99.869 143.429 98.8271 143.429 97.3081C143.429 95.9054 142.491 94.8469 141.247 94.8469Z" fill="#B6CFE4"/>
<path d="M126.879 96.9088H108.951V99.658H126.879V96.9088Z" fill="#E3F2FF"/>
<path d="M105.19 96.5493L103.321 96.5308C103.433 96.1445 103.544 95.539 103.46 94.8077C103.413 94.3981 103.246 94.1108 102.964 93.9548C102.775 93.8496 102.542 93.8125 102.274 93.8434L102.26 93.8448L102.247 93.8476C101.812 93.9472 101.727 94.3733 101.776 94.6393C101.786 94.7081 101.787 94.7761 101.777 94.8428C101.75 95.038 101.687 95.2057 101.534 95.6098L101.527 95.629C101.425 95.8991 101.285 96.0084 101.092 96.1596C100.926 96.2882 100.739 96.4339 100.549 96.6964C100.463 96.8146 100.368 96.9844 100.286 97.1638C100.271 97.1899 100.259 97.2187 100.249 97.2511C100.248 97.2545 100.246 97.2579 100.245 97.2607C100.241 97.2696 100.236 97.2813 100.231 97.2957C100.223 97.315 100.214 97.337 100.205 97.3603C100.035 97.5459 99.7429 97.5761 99.5656 97.5947C99.547 97.5961 99.5305 97.5981 99.5153 97.5995C99.2043 97.6353 99.034 97.7782 98.9464 97.8916C98.8244 98.0497 98.774 98.2586 98.8016 98.4957L99.1009 101.083C99.1202 101.252 99.1705 101.496 99.3788 101.644C99.5725 101.782 99.8235 101.772 99.9952 101.753L100.563 101.688C100.702 101.672 100.843 101.716 101.022 101.771C101.123 101.803 101.238 101.839 101.367 101.868C101.976 102.003 102.766 102.008 103.853 101.883C104.063 101.859 104.717 101.784 104.717 101.784C104.952 101.758 105.163 101.64 105.327 101.444C105.414 101.341 105.459 101.218 105.467 101.069C105.468 101.036 105.464 100.967 105.46 100.93C105.453 100.837 105.429 100.751 105.39 100.673C105.577 100.63 105.745 100.528 105.867 100.383C106.015 100.205 106.082 99.9734 106.054 99.7308C106.033 99.5535 105.957 99.392 105.837 99.2662C105.895 99.2291 105.949 99.183 105.995 99.126C106.116 98.9796 106.165 98.7899 106.141 98.5617C106.123 98.3342 106.021 98.1459 105.856 98.0174C105.995 97.8421 106.073 97.6057 106.054 97.3555C106.021 96.8833 105.634 96.5246 105.19 96.5493Z" fill="#B6CFE4"/>
<g filter="url(#filter4_i_11_195)">
<path d="M33.0544 210.759C51.3345 210.759 66.1533 195.989 66.1533 177.769C66.1533 159.549 51.3345 144.778 33.0544 144.778C14.7744 144.778 -0.0444641 159.549 -0.0444641 177.769C-0.0444641 195.989 14.7744 210.759 33.0544 210.759Z" fill="white"/>
</g>
<path d="M24.1145 189.61C29.1952 189.62 32.2292 185.636 32.2292 178.769C32.2292 171.944 29.1746 168 24.1145 168C19.0545 168 16.0103 171.934 16 178.769C16 185.625 19.0339 189.61 24.1145 189.61ZM24.1145 186.412C21.4919 186.412 19.8464 183.796 19.8567 178.769C19.867 173.783 21.5023 171.157 24.1145 171.157C26.7371 171.157 28.3724 173.783 28.3826 178.769C28.3826 183.796 26.7474 186.412 24.1145 186.412ZM35.6462 189.212H50.0858V186.044H40.912V185.901L44.5424 182.233C48.6357 178.33 49.767 176.43 49.767 174.069C49.767 170.564 46.8976 168 42.6603 168C38.4848 168 35.5228 170.574 35.5228 174.549H39.1532C39.1532 172.414 40.5108 171.075 42.6089 171.075C44.6144 171.075 46.1057 172.291 46.1057 174.264C46.1057 176.01 45.0361 177.257 42.9586 179.352L35.6462 186.473V189.212Z" fill="#B5B7C1"/>
</g>
<defs>
<filter id="filter0_i_11_195" x="18.0851" y="-0.0959473" width="210.069" height="188.822" filterUnits="userSpaceOnUse" color-interpolation-filters="sRGB">
<feFlood flood-opacity="0" result="BackgroundImageFix"/>
<feBlend mode="normal" in="SourceGraphic" in2="BackgroundImageFix" result="shape"/>
<feColorMatrix in="SourceAlpha" type="matrix" values="0 0 0 0 0 0 0 0 0 0 0 0 0 0 0 0 0 0 127 0" result="hardAlpha"/>
<feOffset/>
<feGaussianBlur stdDeviation="15"/>
<feComposite in2="hardAlpha" operator="arithmetic" k2="-1" k3="1"/>
<feColorMatrix type="matrix" values="0 0 0 0 0.260313 0 0 0 0 0.501712 0 0 0 0 0.6375 0 0 0 0.2 0"/>
<feBlend mode="normal" in2="shape" result="effect1_innerShadow_11_195"/>
</filter>
<filter id="filter1_i_11_195" x="34.5623" y="12.7651" width="181.775" height="151.792" filterUnits="userSpaceOnUse" color-interpolation-filters="sRGB">
<feFlood flood-opacity="0" result="BackgroundImageFix"/>
<feBlend mode="normal" in="SourceGraphic" in2="BackgroundImageFix" result="shape"/>
<feColorMatrix in="SourceAlpha" type="matrix" values="0 0 0 0 0 0 0 0 0 0 0 0 0 0 0 0 0 0 127 0" result="hardAlpha"/>
<feOffset/>
<feGaussianBlur stdDeviation="15"/>
<feComposite in2="hardAlpha" operator="arithmetic" k2="-1" k3="1"/>
<feColorMatrix type="matrix" values="0 0 0 0 0.112274 0 0 0 0 0.635085 0 0 0 0 0.929167 0 0 0 0.06 0"/>
<feBlend mode="normal" in2="shape" result="effect1_innerShadow_11_195"/>
</filter>
<filter id="filter2_i_11_195" x="68.9536" y="138.78" width="44.7733" height="33.4042" filterUnits="userSpaceOnUse" color-interpolation-filters="sRGB">
<feFlood flood-opacity="0" result="BackgroundImageFix"/>
<feBlend mode="normal" in="SourceGraphic" in2="BackgroundImageFix" result="shape"/>
<feColorMatrix in="SourceAlpha" type="matrix" values="0 0 0 0 0 0 0 0 0 0 0 0 0 0 0 0 0 0 127 0" result="hardAlpha"/>
<feOffset/>
<feGaussianBlur stdDeviation="15"/>
<feComposite in2="hardAlpha" operator="arithmetic" k2="-1" k3="1"/>
<feColorMatrix type="matrix" values="0 0 0 0 0.112274 0 0 0 0 0.635085 0 0 0 0 0.929167 0 0 0 0.06 0"/>
<feBlend mode="normal" in2="shape" result="effect1_innerShadow_11_195"/>
</filter>
<filter id="filter3_d_11_195" x="60.4538" y="47.3977" width="199.789" height="169.473" filterUnits="userSpaceOnUse" color-interpolation-filters="sRGB">
<feFlood flood-opacity="0" result="BackgroundImageFix"/>
<feColorMatrix in="SourceAlpha" type="matrix" values="0 0 0 0 0 0 0 0 0 0 0 0 0 0 0 0 0 0 127 0" result="hardAlpha"/>
<feOffset dy="8"/>
<feGaussianBlur stdDeviation="15"/>
<feColorMatrix type="matrix" values="0 0 0 0 0.2 0 0 0 0 0.211765 0 0 0 0 0.27451 0 0 0 0.25 0"/>
<feBlend mode="normal" in2="BackgroundImageFix" result="effect1_dropShadow_11_195"/>
<feBlend mode="normal" in="SourceGraphic" in2="effect1_dropShadow_11_195" result="shape"/>
</filter>
<filter id="filter4_i_11_195" x="-0.0444641" y="144.778" width="66.1978" height="65.9805" filterUnits="userSpaceOnUse" color-interpolation-filters="sRGB">
<feFlood flood-opacity="0" result="BackgroundImageFix"/>
<feBlend mode="normal" in="SourceGraphic" in2="BackgroundImageFix" result="shape"/>
<feColorMatrix in="SourceAlpha" type="matrix" values="0 0 0 0 0 0 0 0 0 0 0 0 0 0 0 0 0 0 127 0" result="hardAlpha"/>
<feOffset/>
<feGaussianBlur stdDeviation="15"/>
<feComposite in2="hardAlpha" operator="arithmetic" k2="-1" k3="1"/>
<feColorMatrix type="matrix" values="0 0 0 0 0.260313 0 0 0 0 0.501712 0 0 0 0 0.6375 0 0 0 0.2 0"/>
<feBlend mode="normal" in2="shape" result="effect1_innerShadow_11_195"/>
</filter>
<linearGradient id="paint0_linear_11_195" x1="33.7639" y1="116.666" x2="210.333" y2="71.3747" gradientUnits="userSpaceOnUse">
<stop stop-color="#9C42E2"/>
<stop offset="1" stop-color="#CC9BF2"/>
</linearGradient>
<linearGradient id="paint1_linear_11_195" x1="110.977" y1="169.76" x2="86.5477" y2="134.832" gradientUnits="userSpaceOnUse">
<stop stop-color="#9C42E2"/>
<stop offset="1" stop-color="#CC9BF2"/>
</linearGradient>
<clipPath id="clip0_11_195">
<rect width="251" height="211" fill="white"/>
</clipPath>
</defs>
</svg>
