<svg width="251" height="211" viewBox="0 0 251 211" fill="none" xmlns="http://www.w3.org/2000/svg">
<g clip-path="url(#clip0_11_235)">
<g filter="url(#filter0_i_11_235)">
<path d="M47.4118 17.0185C40.9792 28.6085 47.0463 34.1359 32.3199 54.0831C17.5934 74.03 3.12569 79.2356 8.32111 117.705C13.5166 156.174 54.1164 184.5 101.883 184.876C149.65 185.252 170.607 169.445 178.536 151.568C186.466 133.691 189.487 115.438 200.06 104.147C210.633 92.8557 218.664 80.2225 215.919 60.8648C213.175 41.5066 199.071 22.4757 178.536 17.0185C158.002 11.5612 133.015 19.7033 121.387 16.1077C107.037 11.6705 100.11 2.0521 83.2858 0.079244C66.4622 -1.89361 53.8444 5.42859 47.4118 17.0185Z" fill="#F7F8FA"/>
</g>
<path fill-rule="evenodd" clip-rule="evenodd" d="M25.7965 120.292C17.678 86.0432 33.1597 65.5314 60.9135 69.8594C88.6672 74.188 103.205 72.3062 111.701 49.7242C120.197 27.1424 140.777 26.0133 160.223 34.8578C187.788 51.606 188.732 86.457 181.369 106.743C174.005 127.029 145.686 160.375 109.624 167.337C75.0739 172.983 37.6909 160.563 25.7965 120.292ZM77.868 58.8321C65.558 58.8321 59.0371 51.6453 59.0371 39.3759C59.0371 27.1065 65.558 21.2943 77.868 21.2943C90.178 21.2943 100.146 24.3573 100.146 36.6267C100.146 48.8961 90.178 58.8321 77.868 58.8321Z" fill="url(#paint0_linear_11_235)"/>
<g filter="url(#filter1_d_11_235)">
<path d="M97.9866 64.5863H222.798C226.942 64.5863 230.287 67.9202 230.287 72.0505V166.596C230.287 170.726 226.942 174.06 222.798 174.06H97.9866C93.843 174.06 90.4979 170.726 90.4979 166.596V72.0505C90.4979 67.9202 93.843 64.5863 97.9866 64.5863Z" fill="white"/>
</g>
<path d="M99.4842 75.0361C100.311 75.0361 100.982 74.3674 100.982 73.5433C100.982 72.7186 100.311 72.0505 99.4842 72.0505C98.6568 72.0505 97.9865 72.7186 97.9865 73.5433C97.9865 74.3674 98.6568 75.0361 99.4842 75.0361Z" fill="#F36173"/>
<path d="M105.974 75.0361C106.801 75.0361 107.472 74.3674 107.472 73.5433C107.472 72.7186 106.801 72.0505 105.974 72.0505C105.147 72.0505 104.477 72.7186 104.477 73.5433C104.477 74.3674 105.147 75.0361 105.974 75.0361Z" fill="#EADF55"/>
<path d="M112.465 75.0361C113.291 75.0361 113.962 74.3674 113.962 73.5433C113.962 72.7186 113.291 72.0505 112.465 72.0505C111.637 72.0505 110.967 72.7186 110.967 73.5433C110.967 74.3674 111.637 75.0361 112.465 75.0361Z" fill="#91CA50"/>
<path fill-rule="evenodd" clip-rule="evenodd" d="M124.945 70.0602H219.302C221.25 70.0602 222.797 71.6025 222.797 73.5434C222.797 75.4843 221.25 77.0266 219.302 77.0266H124.945C122.998 77.0266 121.45 75.4843 121.45 73.5434C121.45 71.6025 122.998 70.0602 124.945 70.0602Z" fill="#F1F4FA"/>
<path d="M222.728 82.2343H97.9176V82.9215H222.728V82.2343Z" fill="#E4E7ED"/>
<path d="M217.901 161.961H188.94V164.023H217.901V161.961Z" fill="#DDE0E5"/>
<path d="M217.901 157.15H188.94V159.211H217.901V157.15Z" fill="#DDE0E5"/>
<path d="M217.901 152.339H188.94V154.4H217.901V152.339Z" fill="#DDE0E5"/>
<path d="M217.901 147.527H188.94V149.589H217.901V147.527Z" fill="#DDE0E5"/>
<path d="M209.626 135.156H197.214V142.029H209.626V135.156Z" fill="#DDE0E5"/>
<path d="M211.35 125.534H194.801C193.087 125.534 191.698 126.919 191.698 128.627C191.698 130.335 193.087 131.72 194.801 131.72H211.35C213.064 131.72 214.453 130.335 214.453 128.627C214.453 126.919 213.064 125.534 211.35 125.534Z" fill="#DDE0E5"/>
<path d="M174.459 161.961H145.497V164.023H174.459V161.961Z" fill="#DDE0E5"/>
<path d="M174.459 157.15H145.497V159.211H174.459V157.15Z" fill="#DDE0E5"/>
<path d="M174.459 152.339H145.497V154.4H174.459V152.339Z" fill="#DDE0E5"/>
<path d="M174.459 147.527H145.497V149.589H174.459V147.527Z" fill="#DDE0E5"/>
<path d="M166.184 135.156H153.772V142.029H166.184V135.156Z" fill="#DDE0E5"/>
<path d="M167.908 125.534H151.359C149.645 125.534 148.255 126.919 148.255 128.627C148.255 130.335 149.645 131.72 151.359 131.72H167.908C169.622 131.72 171.011 130.335 171.011 128.627C171.011 126.919 169.622 125.534 167.908 125.534Z" fill="#DDE0E5"/>
<path d="M131.017 161.961H102.055V164.023H131.017V161.961Z" fill="#DDE0E5"/>
<path d="M131.017 157.15H102.055V159.211H131.017V157.15Z" fill="#DDE0E5"/>
<path d="M131.017 152.339H102.055V154.4H131.017V152.339Z" fill="#DDE0E5"/>
<path d="M131.017 147.527H102.055V149.589H131.017V147.527Z" fill="#DDE0E5"/>
<path d="M122.742 135.156H110.33V142.029H122.742V135.156Z" fill="#DDE0E5"/>
<path d="M124.466 125.534H107.916C106.203 125.534 104.813 126.919 104.813 128.627C104.813 130.335 106.203 131.72 107.916 131.72H124.466C126.18 131.72 127.569 130.335 127.569 128.627C127.569 126.919 126.18 125.534 124.466 125.534Z" fill="#DDE0E5"/>
<path d="M179.286 93.231H140.67V95.2928H179.286V93.231Z" fill="#DDE0E5"/>
<path d="M179.286 88.4199H140.67V90.4818H179.286V88.4199Z" fill="#DDE0E5"/>
<path d="M198.256 115.079C202.214 115.079 205.423 111.88 205.423 107.935C205.423 103.99 202.214 100.792 198.256 100.792C194.298 100.792 191.089 103.99 191.089 107.935C191.089 111.88 194.298 115.079 198.256 115.079Z" fill="#DDE0E5"/>
<path d="M194.44 108.069L196.088 108.681L196.73 110.741C196.758 110.88 196.926 110.908 197.038 110.824L197.959 110.073C198.043 109.989 198.182 109.989 198.294 110.073L199.942 111.27C200.054 111.354 200.221 111.298 200.249 111.158L201.478 105.313C201.506 105.174 201.366 105.035 201.227 105.09L194.44 107.707C194.273 107.763 194.273 108.013 194.44 108.069ZM196.647 108.375L199.886 106.399C199.942 106.371 199.998 106.455 199.942 106.482L197.289 108.96C197.205 109.043 197.121 109.154 197.121 109.294L197.038 109.962C197.038 110.045 196.898 110.073 196.87 109.962L196.535 108.737C196.451 108.598 196.507 108.431 196.647 108.375Z" fill="white"/>
<path d="M179.622 115.079C183.58 115.079 186.789 111.88 186.789 107.935C186.789 103.99 183.58 100.792 179.622 100.792C175.663 100.792 172.454 103.99 172.454 107.935C172.454 111.88 175.663 115.079 179.622 115.079Z" fill="#DDE0E5"/>
<path d="M182.847 105.736C182.604 105.839 182.326 105.909 182.048 105.943C182.326 105.77 182.569 105.493 182.674 105.182C182.396 105.355 182.118 105.459 181.77 105.528C181.527 105.251 181.145 105.078 180.763 105.078C179.999 105.078 179.373 105.701 179.373 106.463C179.373 106.567 179.373 106.67 179.408 106.774C178.262 106.705 177.22 106.151 176.525 105.32C176.421 105.528 176.351 105.77 176.351 106.013C176.351 106.497 176.594 106.913 176.976 107.155C176.734 107.155 176.525 107.086 176.351 106.982C176.351 107.64 176.838 108.228 177.463 108.332C177.358 108.367 177.22 108.367 177.081 108.367C176.976 108.367 176.907 108.367 176.803 108.332C176.976 108.886 177.498 109.302 178.123 109.302C177.636 109.683 177.046 109.89 176.386 109.89C176.282 109.89 176.178 109.89 176.039 109.856C176.664 110.237 177.394 110.479 178.192 110.479C180.763 110.479 182.152 108.367 182.152 106.532V106.359C182.43 106.255 182.674 106.013 182.847 105.736Z" fill="white"/>
<path d="M160.988 115.079C164.946 115.079 168.155 111.88 168.155 107.935C168.155 103.99 164.946 100.792 160.988 100.792C157.029 100.792 153.82 103.99 153.82 107.935C153.82 111.88 157.029 115.079 160.988 115.079Z" fill="#DDE0E5"/>
<path d="M161.06 108.027C161.982 108.027 162.719 107.274 162.719 106.374C162.719 105.455 161.963 104.721 161.06 104.721C160.157 104.721 159.402 105.474 159.402 106.374C159.402 107.274 160.139 108.027 161.06 108.027ZM161.06 105.676C161.447 105.676 161.742 105.988 161.742 106.355C161.742 106.741 161.429 107.035 161.06 107.035C160.673 107.035 160.379 106.723 160.379 106.355C160.379 105.988 160.673 105.676 161.06 105.676Z" fill="white"/>
<path d="M161.742 109.368C162.074 109.295 162.405 109.166 162.7 108.964C162.921 108.817 162.995 108.523 162.847 108.302C162.7 108.082 162.405 108.009 162.184 108.156C161.502 108.578 160.618 108.578 159.936 108.156C159.715 108.009 159.402 108.082 159.272 108.302C159.125 108.523 159.199 108.835 159.419 108.982C159.715 109.166 160.046 109.312 160.378 109.386L159.457 110.323C159.272 110.507 159.272 110.819 159.457 111.002C159.548 111.095 159.677 111.15 159.807 111.15C159.936 111.15 160.065 111.095 160.157 111.002L161.079 110.084L162 111.002C162.184 111.187 162.498 111.187 162.682 111.002C162.866 110.819 162.866 110.507 162.682 110.323L161.742 109.368Z" fill="white"/>
<path d="M142.354 115.079C146.312 115.079 149.521 111.88 149.521 107.935C149.521 103.99 146.312 100.792 142.354 100.792C138.395 100.792 135.186 103.99 135.186 107.935C135.186 111.88 138.395 115.079 142.354 115.079Z" fill="#DDE0E5"/>
<path d="M142.354 105.3C143.215 105.3 143.317 105.303 143.657 105.319C143.971 105.333 144.142 105.385 144.255 105.429C144.396 105.481 144.523 105.563 144.627 105.67C144.734 105.774 144.817 105.9 144.868 106.04C144.912 106.153 144.965 106.323 144.979 106.637C144.995 106.976 144.998 107.077 144.998 107.936C144.998 108.794 144.995 108.896 144.979 109.235C144.965 109.548 144.912 109.719 144.868 109.832C144.815 109.97 144.733 110.096 144.627 110.201C144.522 110.306 144.395 110.388 144.256 110.442C144.142 110.486 143.971 110.538 143.657 110.552C143.317 110.568 143.215 110.571 142.354 110.571C141.492 110.571 141.39 110.568 141.05 110.552C140.736 110.538 140.566 110.486 140.452 110.442C140.311 110.39 140.184 110.308 140.08 110.201C139.973 110.097 139.891 109.971 139.839 109.831C139.795 109.718 139.742 109.547 139.728 109.234C139.713 108.895 139.709 108.794 139.709 107.935C139.709 107.077 139.713 106.976 139.728 106.636C139.742 106.323 139.795 106.153 139.839 106.04C139.891 105.9 139.973 105.774 140.08 105.669C140.184 105.563 140.311 105.481 140.452 105.429C140.566 105.385 140.736 105.333 141.05 105.319C141.39 105.303 141.492 105.299 142.354 105.299V105.3ZM142.354 104.721C141.478 104.721 141.368 104.724 141.024 104.74C140.68 104.756 140.446 104.81 140.241 104.89C140.026 104.97 139.83 105.097 139.67 105.26C139.506 105.421 139.379 105.615 139.297 105.83C139.218 106.034 139.164 106.268 139.148 106.61C139.132 106.952 139.128 107.062 139.128 107.935C139.128 108.809 139.132 108.918 139.148 109.261C139.164 109.604 139.218 109.837 139.297 110.041C139.379 110.255 139.506 110.45 139.67 110.611C139.83 110.774 140.026 110.901 140.241 110.981C140.446 111.061 140.681 111.115 141.023 111.131C141.367 111.146 141.478 111.15 142.354 111.15C143.229 111.15 143.339 111.146 143.683 111.131C144.027 111.115 144.261 111.061 144.466 110.981C144.68 110.899 144.875 110.772 145.037 110.611C145.2 110.449 145.326 110.255 145.41 110.041C145.489 109.837 145.543 109.603 145.559 109.261C145.575 108.919 145.579 108.809 145.579 107.935C145.579 107.062 145.575 106.953 145.559 106.61C145.543 106.267 145.489 106.034 145.41 105.83C145.328 105.615 145.201 105.421 145.037 105.26C144.876 105.097 144.682 104.97 144.466 104.89C144.261 104.81 144.026 104.756 143.683 104.741C143.34 104.725 143.229 104.721 142.354 104.721Z" fill="white"/>
<path d="M142.354 106.285C142.026 106.285 141.705 106.382 141.433 106.563C141.161 106.744 140.949 107.002 140.823 107.303C140.698 107.605 140.665 107.937 140.729 108.257C140.793 108.578 140.951 108.872 141.183 109.103C141.414 109.334 141.709 109.49 142.03 109.554C142.351 109.618 142.685 109.585 142.987 109.46C143.29 109.335 143.549 109.124 143.731 108.853C143.913 108.581 144.009 108.262 144.009 107.935C144.009 107.719 143.966 107.504 143.884 107.303C143.8 107.103 143.678 106.921 143.524 106.768C143.371 106.615 143.188 106.493 142.987 106.41C142.786 106.328 142.571 106.285 142.354 106.285ZM142.354 109.007C142.14 109.007 141.933 108.944 141.756 108.827C141.579 108.708 141.441 108.541 141.36 108.345C141.278 108.15 141.257 107.934 141.298 107.726C141.34 107.518 141.443 107.327 141.593 107.177C141.743 107.027 141.935 106.925 142.143 106.884C142.352 106.842 142.568 106.864 142.765 106.945C142.961 107.026 143.129 107.163 143.247 107.339C143.366 107.516 143.429 107.723 143.429 107.935C143.429 108.22 143.315 108.492 143.113 108.693C142.912 108.894 142.638 109.007 142.354 109.007Z" fill="white"/>
<path d="M144.075 106.605C144.289 106.605 144.462 106.433 144.462 106.22C144.462 106.006 144.289 105.833 144.075 105.833C143.862 105.833 143.689 106.006 143.689 106.22C143.689 106.433 143.862 106.605 144.075 106.605Z" fill="white"/>
<path d="M123.719 115.079C127.677 115.079 130.886 111.88 130.886 107.935C130.886 103.99 127.677 100.792 123.719 100.792C119.761 100.792 116.552 103.99 116.552 107.935C116.552 111.88 119.761 115.079 123.719 115.079Z" fill="#DDE0E5"/>
<path d="M127.466 106.117C127.531 105.934 127.466 105.792 127.214 105.792H126.354C126.274 105.791 126.196 105.814 126.13 105.859C126.065 105.904 126.014 105.968 125.988 106.043C125.719 106.679 125.361 107.275 124.926 107.811C124.833 107.948 124.689 108.044 124.526 108.077C124.467 108.077 124.393 108.009 124.393 107.826V106.108C124.393 105.892 124.326 105.792 124.142 105.792H122.782C122.754 105.791 122.727 105.796 122.701 105.805C122.676 105.814 122.652 105.829 122.632 105.848C122.611 105.866 122.596 105.888 122.585 105.914C122.573 105.938 122.567 105.965 122.566 105.993C122.566 106.202 122.862 106.252 122.909 106.833V108.097C122.909 108.372 122.859 108.422 122.749 108.422C122.454 108.422 121.747 107.349 121.321 106.125C121.312 106.031 121.267 105.944 121.196 105.882C121.124 105.82 121.032 105.788 120.936 105.792H120.073C119.819 105.792 119.777 105.91 119.777 106.034C119.777 106.258 120.073 107.39 121.138 108.887C121.847 109.919 122.859 110.461 123.766 110.461C124.317 110.461 124.384 110.337 124.384 110.128V109.353C124.384 109.102 124.435 109.058 124.609 109.058C124.733 109.058 124.961 109.125 125.47 109.615C126.061 110.205 126.153 110.464 126.481 110.464H127.342C127.389 110.475 127.439 110.471 127.485 110.455C127.531 110.439 127.572 110.41 127.603 110.372C127.634 110.334 127.653 110.288 127.659 110.24C127.665 110.192 127.658 110.143 127.638 110.099C127.454 109.724 127.207 109.383 126.91 109.09C126.709 108.857 126.41 108.598 126.319 108.475C126.292 108.45 126.272 108.42 126.258 108.387C126.244 108.354 126.236 108.319 126.236 108.283C126.236 108.247 126.244 108.211 126.258 108.178C126.272 108.146 126.292 108.116 126.319 108.091C126.319 108.091 127.363 106.618 127.471 106.11" fill="white"/>
<path d="M105.085 114.976C108.986 114.976 112.148 111.823 112.148 107.935C112.148 104.047 108.986 100.895 105.085 100.895C101.184 100.895 98.0212 104.047 98.0212 107.935C98.0212 111.823 101.184 114.976 105.085 114.976Z" fill="#E3F2FF" stroke="#2498FE" stroke-width="0.206868"/>
<path d="M106.507 108.337L106.686 107.174H105.57V106.418C105.57 106.1 105.726 105.789 106.226 105.789H106.733V104.799C106.733 104.799 106.273 104.721 105.832 104.721C104.914 104.721 104.314 105.277 104.314 106.286V107.174H103.293V108.337H104.314V111.15H105.57V108.337H106.507Z" fill="#2498FE"/>
<g filter="url(#filter2_i_11_235)">
<path d="M33.0989 205.948C51.3789 205.948 66.1978 191.177 66.1978 172.957C66.1978 154.737 51.3789 139.967 33.0989 139.967C14.8189 139.967 0 154.737 0 172.957C0 191.177 14.8189 205.948 33.0989 205.948Z" fill="white"/>
</g>
<path d="M26.4848 184.354C31.5655 184.365 34.5994 180.367 34.5994 173.478C34.5994 166.63 31.5449 162.673 26.4848 162.673C21.4248 162.673 18.3806 166.621 18.3702 173.478C18.3702 180.356 21.4042 184.354 26.4848 184.354ZM26.4848 181.146C23.8622 181.146 22.2167 178.522 22.227 173.478C22.2373 168.476 23.8725 165.841 26.4848 165.841C29.1075 165.841 30.7427 168.476 30.753 173.478C30.753 178.522 29.1177 181.146 26.4848 181.146ZM46.5836 162.961H42.9531L37.7183 166.313V169.798L42.6446 166.661H42.768V183.954H46.5836V162.961Z" fill="#B5B7C1"/>
</g>
<defs>
<filter id="filter0_i_11_235" x="7.24176" y="-0.241089" width="209.22" height="185.123" filterUnits="userSpaceOnUse" color-interpolation-filters="sRGB">
<feFlood flood-opacity="0" result="BackgroundImageFix"/>
<feBlend mode="normal" in="SourceGraphic" in2="BackgroundImageFix" result="shape"/>
<feColorMatrix in="SourceAlpha" type="matrix" values="0 0 0 0 0 0 0 0 0 0 0 0 0 0 0 0 0 0 127 0" result="hardAlpha"/>
<feOffset/>
<feGaussianBlur stdDeviation="10.3434"/>
<feComposite in2="hardAlpha" operator="arithmetic" k2="-1" k3="1"/>
<feColorMatrix type="matrix" values="0 0 0 0 0.260313 0 0 0 0 0.501712 0 0 0 0 0.6375 0 0 0 0.2 0"/>
<feBlend mode="normal" in2="shape" result="effect1_innerShadow_11_235"/>
</filter>
<filter id="filter1_d_11_235" x="69.8111" y="49.416" width="181.163" height="150.847" filterUnits="userSpaceOnUse" color-interpolation-filters="sRGB">
<feFlood flood-opacity="0" result="BackgroundImageFix"/>
<feColorMatrix in="SourceAlpha" type="matrix" values="0 0 0 0 0 0 0 0 0 0 0 0 0 0 0 0 0 0 127 0" result="hardAlpha"/>
<feOffset dy="5.51648"/>
<feGaussianBlur stdDeviation="10.3434"/>
<feColorMatrix type="matrix" values="0 0 0 0 0.2 0 0 0 0 0.211765 0 0 0 0 0.27451 0 0 0 0.25 0"/>
<feBlend mode="normal" in2="BackgroundImageFix" result="effect1_dropShadow_11_235"/>
<feBlend mode="normal" in="SourceGraphic" in2="effect1_dropShadow_11_235" result="shape"/>
</filter>
<filter id="filter2_i_11_235" x="0" y="139.967" width="66.1978" height="65.9805" filterUnits="userSpaceOnUse" color-interpolation-filters="sRGB">
<feFlood flood-opacity="0" result="BackgroundImageFix"/>
<feBlend mode="normal" in="SourceGraphic" in2="BackgroundImageFix" result="shape"/>
<feColorMatrix in="SourceAlpha" type="matrix" values="0 0 0 0 0 0 0 0 0 0 0 0 0 0 0 0 0 0 127 0" result="hardAlpha"/>
<feOffset/>
<feGaussianBlur stdDeviation="10.3434"/>
<feComposite in2="hardAlpha" operator="arithmetic" k2="-1" k3="1"/>
<feColorMatrix type="matrix" values="0 0 0 0 0.260313 0 0 0 0 0.501712 0 0 0 0 0.6375 0 0 0 0.2 0"/>
<feBlend mode="normal" in2="shape" result="effect1_innerShadow_11_235"/>
</filter>
<linearGradient id="paint0_linear_11_235" x1="17.4232" y1="94.9602" x2="185.287" y2="94.9602" gradientUnits="userSpaceOnUse">
<stop stop-color="#9C42E2"/>
<stop offset="1" stop-color="#B156F8"/>
</linearGradient>
<clipPath id="clip0_11_235">
<rect width="251" height="211" fill="white"/>
</clipPath>
</defs>
</svg>
