<svg width="251" height="211" viewBox="0 0 251 211" fill="none" xmlns="http://www.w3.org/2000/svg">
<g clip-path="url(#clip0_11_291)">
<g filter="url(#filter0_i_11_291)">
<path d="M223.762 109.268C216.862 169.635 187.058 189.33 149.979 202.437C85.6159 225.189 1.37824 181.542 8.61858 94.8007C16.2077 3.8804 81.3668 -3.76658 112.053 1.37081C142.739 6.5082 155.106 34.7357 182.734 39.3914C221.353 45.8995 227.633 75.4065 223.762 109.268Z" fill="#F7F8FA"/>
</g>
<g filter="url(#filter1_i_11_291)">
<path d="M170.228 118.995C191.245 118.995 187.231 156.204 174.61 169.158C150.43 193.977 104.813 193.531 85.8489 188.05C34.6116 173.243 10.1025 118.15 37.925 54.805C64.1026 -4.79544 156.134 11.0405 151.702 71.3946C150.279 90.7703 144.426 88.7076 143.082 99.3343C141.739 109.96 158.942 118.995 170.228 118.995Z" fill="url(#paint0_linear_11_291)"/>
</g>
<g filter="url(#filter2_i_11_291)">
<path d="M191.03 63.3077C200.711 71.9071 199.517 82.7325 191.15 92.0289C182.785 101.325 170.415 105.571 160.734 96.9709C151.052 88.3713 153.754 80.0005 162.12 70.7042C170.486 61.4085 181.348 54.708 191.03 63.3077Z" fill="url(#paint1_linear_11_291)"/>
</g>
<g filter="url(#filter3_d_11_291)">
<path d="M97.9424 69.8574H222.754C226.898 69.8574 230.243 73.1807 230.243 77.2972V171.536C230.243 175.653 226.898 178.976 222.754 178.976H97.9424C93.7988 178.976 90.4538 175.653 90.4538 171.536V77.2972C90.4538 73.1807 93.7988 69.8574 97.9424 69.8574Z" fill="white"/>
</g>
<path d="M99.4394 80.2732C100.267 80.2732 100.937 79.6073 100.937 78.7852C100.937 77.9631 100.267 77.2972 99.4394 77.2972C98.6127 77.2972 97.9417 77.9631 97.9417 78.7852C97.9417 79.6073 98.6127 80.2732 99.4394 80.2732Z" fill="#F36173"/>
<path d="M105.93 80.2732C106.757 80.2732 107.427 79.6073 107.427 78.7852C107.427 77.9631 106.757 77.2972 105.93 77.2972C105.103 77.2972 104.432 77.9631 104.432 78.7852C104.432 79.6073 105.103 80.2732 105.93 80.2732Z" fill="#EADF55"/>
<path d="M112.42 80.2732C113.247 80.2732 113.917 79.6073 113.917 78.7852C113.917 77.9631 113.247 77.2972 112.42 77.2972C111.593 77.2972 110.922 77.9631 110.922 78.7852C110.922 79.6073 111.593 80.2732 112.42 80.2732Z" fill="#91CA50"/>
<path fill-rule="evenodd" clip-rule="evenodd" d="M124.901 75.314H219.258C221.205 75.314 222.753 76.8513 222.753 78.7859C222.753 80.7198 221.205 82.2578 219.258 82.2578H124.901C122.953 82.2578 121.405 80.7198 121.405 78.7859C121.405 76.8513 122.953 75.314 124.901 75.314Z" fill="#F1F4FA"/>
<path d="M222.684 87.4486H97.8735V88.1337H222.684V87.4486Z" fill="#E4E7ED"/>
<path d="M178.596 164.416H141.36V166.471H178.596V164.416Z" fill="#DDE0E5"/>
<path d="M178.596 158.935H141.36V160.99H178.596V158.935Z" fill="#DDE0E5"/>
<path d="M178.596 153.455H141.36V155.51H178.596V153.455Z" fill="#DDE0E5"/>
<path d="M178.596 147.974H141.36V150.029H178.596V147.974Z" fill="#DDE0E5"/>
<path d="M199.283 119.304H120.673C119.207 119.304 118.018 120.485 118.018 121.942V125.367C118.018 126.824 119.207 128.004 120.673 128.004H199.283C200.749 128.004 201.938 126.824 201.938 125.367V121.942C201.938 120.485 200.749 119.304 199.283 119.304Z" fill="#E3F2FF" stroke="#2498FE" stroke-width="0.206868"/>
<path d="M121.363 121.942H198.593V125.367H121.363V121.942Z" fill="#B6CFE4"/>
<path d="M199.283 106.288H120.673C119.207 106.288 118.018 107.469 118.018 108.925V112.351C118.018 113.807 119.207 114.988 120.673 114.988H199.283C200.749 114.988 201.938 113.807 201.938 112.351V108.925C201.938 107.469 200.749 106.288 199.283 106.288Z" fill="#E3F2FF" stroke="#2498FE" stroke-width="0.206868"/>
<path d="M121.363 108.925H198.593V112.351H121.363V108.925Z" fill="#B6CFE4"/>
<path d="M179.242 98.4089H140.626V100.464H179.242V98.4089Z" fill="#DDE0E5"/>
<path d="M179.242 93.6135H140.626V95.6687H179.242V93.6135Z" fill="#DDE0E5"/>
<g filter="url(#filter4_d_11_291)">
<path d="M125.079 163.293H82.479C81.1102 163.293 79.989 162.179 79.989 160.819V136.061C79.989 134.702 81.1102 133.588 82.479 133.588H125.095C126.464 133.588 127.585 134.702 127.585 136.061V160.835C127.569 162.195 126.447 163.293 125.079 163.293Z" fill="#BE7DF0"/>
</g>
<path d="M119.868 143.943C121.571 143.943 122.951 142.571 122.951 140.879C122.951 139.187 121.571 137.815 119.868 137.815C118.164 137.815 116.783 139.187 116.783 140.879C116.783 142.571 118.164 143.943 119.868 143.943Z" fill="#9F56D9"/>
<path d="M115.893 143.942C117.596 143.942 118.977 142.571 118.977 140.879C118.977 139.187 117.596 137.814 115.893 137.814C114.19 137.814 112.809 139.187 112.809 140.879C112.809 142.571 114.19 143.942 115.893 143.942Z" fill="#9F56D9"/>
<path d="M93.0183 150.824H85.6793C85.0855 150.824 84.607 150.349 84.607 149.759V144.991C84.607 144.401 85.0855 143.926 85.6793 143.926H93.0183C93.612 143.926 94.0898 144.401 94.0898 144.991V149.759C94.0898 150.349 93.5954 150.824 93.0183 150.824Z" fill="#9F56D9"/>
<path d="M98.0976 138.569H85.3655C84.9538 138.569 84.607 138.225 84.607 137.815C84.607 137.406 84.9538 137.062 85.3655 137.062H98.081C98.4934 137.062 98.8395 137.406 98.8395 137.815C98.8395 138.225 98.5099 138.569 98.0976 138.569Z" fill="#9F56D9"/>
<path d="M91.4509 157.477H85.7283C85.118 157.477 84.6236 156.985 84.6236 156.378V155.347C84.6236 154.74 85.118 154.249 85.7283 154.249H91.4509C92.0612 154.249 92.5563 154.74 92.5563 155.347V156.378C92.5563 156.985 92.0612 157.477 91.4509 157.477Z" fill="#9F56D9"/>
<path d="M101.578 157.477H95.8551C95.2448 157.477 94.7497 156.985 94.7497 156.378V155.347C94.7497 154.74 95.2448 154.249 95.8551 154.249H101.578C102.188 154.249 102.682 154.74 102.682 155.347V156.378C102.682 156.985 102.188 157.477 101.578 157.477Z" fill="#9F56D9"/>
<path d="M111.704 157.477H105.981C105.371 157.477 104.877 156.985 104.877 156.378V155.347C104.877 154.74 105.371 154.249 105.981 154.249H111.704C112.314 154.249 112.809 154.74 112.809 155.347V156.378C112.809 156.985 112.314 157.477 111.704 157.477Z" fill="#9F56D9"/>
<path d="M121.829 157.477H116.107C115.497 157.477 115.001 156.985 115.001 156.378V155.347C115.001 154.74 115.497 154.249 116.107 154.249H121.829C122.44 154.249 122.934 154.74 122.934 155.347V156.378C122.951 156.985 122.44 157.477 121.829 157.477Z" fill="#9F56D9"/>
<g filter="url(#filter5_i_11_291)">
<path d="M33.0544 210.76C51.3345 210.76 66.1533 196.038 66.1533 177.877C66.1533 159.716 51.3345 144.994 33.0544 144.994C14.7744 144.994 -0.0444565 159.716 -0.0444565 177.877C-0.0444565 196.038 14.7744 210.76 33.0544 210.76Z" fill="white"/>
</g>
<path d="M24.1146 190.681C29.1952 190.691 32.2291 186.693 32.2291 179.805C32.2291 172.957 29.1746 169 24.1146 169C19.0545 169 16.0103 172.947 16 179.805C16 186.683 19.034 190.681 24.1146 190.681ZM24.1146 187.472C21.492 187.472 19.8464 184.848 19.8568 179.805C19.8671 174.802 21.5023 172.168 24.1146 172.168C26.7371 172.168 28.3724 174.802 28.3827 179.805C28.3827 184.848 26.7475 187.472 24.1146 187.472ZM43.2054 190.568C47.7101 190.568 50.9909 187.995 50.9806 184.448C50.9909 181.824 49.3453 179.938 46.3937 179.518V179.353C48.6769 178.861 50.2093 177.17 50.199 174.812C50.2093 171.614 47.4735 169 43.2671 169C39.1738 169 36.0062 171.43 35.924 174.946H39.5955C39.6572 173.183 41.3028 172.086 43.2466 172.086C45.2109 172.086 46.5171 173.275 46.5068 175.038C46.5171 176.873 44.995 178.093 42.8147 178.093H40.9531V181.024H42.8147C45.4784 181.024 47.0622 182.357 47.0519 184.254C47.0622 186.109 45.4475 187.38 43.1952 187.38C41.0766 187.38 39.4413 186.283 39.3487 184.571H35.4817C35.5845 188.118 38.7625 190.568 43.2054 190.568Z" fill="#B5B7C1"/>
</g>
<defs>
<filter id="filter0_i_11_291" x="8.18162" y="0.157227" width="216.568" height="208.25" filterUnits="userSpaceOnUse" color-interpolation-filters="sRGB">
<feFlood flood-opacity="0" result="BackgroundImageFix"/>
<feBlend mode="normal" in="SourceGraphic" in2="BackgroundImageFix" result="shape"/>
<feColorMatrix in="SourceAlpha" type="matrix" values="0 0 0 0 0 0 0 0 0 0 0 0 0 0 0 0 0 0 127 0" result="hardAlpha"/>
<feOffset/>
<feGaussianBlur stdDeviation="10.3434"/>
<feComposite in2="hardAlpha" operator="arithmetic" k2="-1" k3="1"/>
<feColorMatrix type="matrix" values="0 0 0 0 0.260313 0 0 0 0 0.501712 0 0 0 0 0.6375 0 0 0 0.2 0"/>
<feBlend mode="normal" in2="shape" result="effect1_innerShadow_11_291"/>
</filter>
<filter id="filter1_i_11_291" x="26.2959" y="17.3044" width="158.738" height="173.8" filterUnits="userSpaceOnUse" color-interpolation-filters="sRGB">
<feFlood flood-opacity="0" result="BackgroundImageFix"/>
<feBlend mode="normal" in="SourceGraphic" in2="BackgroundImageFix" result="shape"/>
<feColorMatrix in="SourceAlpha" type="matrix" values="0 0 0 0 0 0 0 0 0 0 0 0 0 0 0 0 0 0 127 0" result="hardAlpha"/>
<feOffset/>
<feGaussianBlur stdDeviation="10.3434"/>
<feComposite in2="hardAlpha" operator="arithmetic" k2="-1" k3="1"/>
<feColorMatrix type="matrix" values="0 0 0 0 0.112274 0 0 0 0 0.635085 0 0 0 0 0.929167 0 0 0 0.06 0"/>
<feBlend mode="normal" in2="shape" result="effect1_innerShadow_11_291"/>
</filter>
<filter id="filter2_i_11_291" x="154.574" y="59.3351" width="43.2903" height="42.3026" filterUnits="userSpaceOnUse" color-interpolation-filters="sRGB">
<feFlood flood-opacity="0" result="BackgroundImageFix"/>
<feBlend mode="normal" in="SourceGraphic" in2="BackgroundImageFix" result="shape"/>
<feColorMatrix in="SourceAlpha" type="matrix" values="0 0 0 0 0 0 0 0 0 0 0 0 0 0 0 0 0 0 127 0" result="hardAlpha"/>
<feOffset/>
<feGaussianBlur stdDeviation="10.3434"/>
<feComposite in2="hardAlpha" operator="arithmetic" k2="-1" k3="1"/>
<feColorMatrix type="matrix" values="0 0 0 0 0.112274 0 0 0 0 0.635085 0 0 0 0 0.929167 0 0 0 0.06 0"/>
<feBlend mode="normal" in2="shape" result="effect1_innerShadow_11_291"/>
</filter>
<filter id="filter3_d_11_291" x="69.767" y="54.6871" width="181.163" height="150.492" filterUnits="userSpaceOnUse" color-interpolation-filters="sRGB">
<feFlood flood-opacity="0" result="BackgroundImageFix"/>
<feColorMatrix in="SourceAlpha" type="matrix" values="0 0 0 0 0 0 0 0 0 0 0 0 0 0 0 0 0 0 127 0" result="hardAlpha"/>
<feOffset dy="5.51648"/>
<feGaussianBlur stdDeviation="10.3434"/>
<feColorMatrix type="matrix" values="0 0 0 0 0.2 0 0 0 0 0.211765 0 0 0 0 0.27451 0 0 0 0.25 0"/>
<feBlend mode="normal" in2="BackgroundImageFix" result="effect1_dropShadow_11_291"/>
<feBlend mode="normal" in="SourceGraphic" in2="effect1_dropShadow_11_291" result="shape"/>
</filter>
<filter id="filter4_d_11_291" x="73.0934" y="129.45" width="61.3874" height="43.4963" filterUnits="userSpaceOnUse" color-interpolation-filters="sRGB">
<feFlood flood-opacity="0" result="BackgroundImageFix"/>
<feColorMatrix in="SourceAlpha" type="matrix" values="0 0 0 0 0 0 0 0 0 0 0 0 0 0 0 0 0 0 127 0" result="hardAlpha"/>
<feOffset dy="2.75824"/>
<feGaussianBlur stdDeviation="3.4478"/>
<feColorMatrix type="matrix" values="0 0 0 0 0 0 0 0 0 0 0 0 0 0 0 0 0 0 0.2 0"/>
<feBlend mode="normal" in2="BackgroundImageFix" result="effect1_dropShadow_11_291"/>
<feBlend mode="normal" in="SourceGraphic" in2="effect1_dropShadow_11_291" result="shape"/>
</filter>
<filter id="filter5_i_11_291" x="-0.0444565" y="144.994" width="66.1978" height="65.7662" filterUnits="userSpaceOnUse" color-interpolation-filters="sRGB">
<feFlood flood-opacity="0" result="BackgroundImageFix"/>
<feBlend mode="normal" in="SourceGraphic" in2="BackgroundImageFix" result="shape"/>
<feColorMatrix in="SourceAlpha" type="matrix" values="0 0 0 0 0 0 0 0 0 0 0 0 0 0 0 0 0 0 127 0" result="hardAlpha"/>
<feOffset/>
<feGaussianBlur stdDeviation="10.3434"/>
<feComposite in2="hardAlpha" operator="arithmetic" k2="-1" k3="1"/>
<feColorMatrix type="matrix" values="0 0 0 0 0.260313 0 0 0 0 0.501712 0 0 0 0 0.6375 0 0 0 0.2 0"/>
<feBlend mode="normal" in2="shape" result="effect1_innerShadow_11_291"/>
</filter>
<linearGradient id="paint0_linear_11_291" x1="175.286" y1="178.488" x2="40.0169" y2="46.7025" gradientUnits="userSpaceOnUse">
<stop stop-color="#9C42E2"/>
<stop offset="1" stop-color="#CC9BF2"/>
</linearGradient>
<linearGradient id="paint1_linear_11_291" x1="195.205" y1="98.5669" x2="162.396" y2="62.7523" gradientUnits="userSpaceOnUse">
<stop stop-color="#9C42E2"/>
<stop offset="1" stop-color="#CC9BF2"/>
</linearGradient>
<clipPath id="clip0_11_291">
<rect width="251" height="211" fill="white"/>
</clipPath>
</defs>
</svg>
