<svg width="21" height="20" viewBox="0 0 21 20" fill="none" xmlns="http://www.w3.org/2000/svg">
<path fill-rule="evenodd" clip-rule="evenodd" d="M6.72887 0H14.2289C17.6801 0 20.4789 2.79875 20.4789 6.25V13.75C20.4789 17.2013 17.6801 20 14.2289 20H6.72887C3.27762 20 0.478867 17.2013 0.478867 13.75V6.25C0.478867 2.79875 3.27762 0 6.72887 0ZM14.2289 18.125C16.6414 18.125 18.6039 16.1625 18.6039 13.75V6.25C18.6039 3.8375 16.6414 1.875 14.2289 1.875H6.72887C4.31637 1.875 2.35387 3.8375 2.35387 6.25V13.75C2.35387 16.1625 4.31637 18.125 6.72887 18.125H14.2289Z" fill="#232323"/>
<path fill-rule="evenodd" clip-rule="evenodd" d="M5.47887 10C5.47887 7.23875 7.71762 5 10.4789 5C13.2401 5 15.4789 7.23875 15.4789 10C15.4789 12.7613 13.2401 15 10.4789 15C7.71762 15 5.47887 12.7613 5.47887 10ZM7.35387 10C7.35387 11.7225 8.75637 13.125 10.4789 13.125C12.2014 13.125 13.6039 11.7225 13.6039 10C13.6039 8.27625 12.2014 6.875 10.4789 6.875C8.75637 6.875 7.35387 8.27625 7.35387 10Z" fill="#232323"/>
<circle cx="15.8539" cy="4.62523" r="0.66625" fill="#232323"/>
</svg>
