<svg width="253" height="77" viewBox="0 0 253 77" fill="none" xmlns="http://www.w3.org/2000/svg">
<path d="M1.15802 52.9128L11.3488 44.2275V21.4346L28.1403 12.8542L47.7425 26.4346L53.5327 18.6757L28.1403 0L1.15802 15.9918V52.9128Z" fill="#232323"/>
<path d="M0 61.8297L22.3501 39.4796L36.4782 53.2602L50.4905 39.4796L47.248 35.7739H62.0708V50.7126L58.4809 47.1226L36.4782 69.0096L22.3501 55.1131L0 77V61.8297Z" fill="#9C42E2"/>
<path d="M98.9176 19.6563C98.4318 15.625 95.3807 13.3068 91.3409 13.3068C86.7301 13.3068 83.2102 16.5625 83.2102 22.2727C83.2102 27.9659 86.6704 31.2386 91.3409 31.2386C95.8153 31.2386 98.517 28.2642 98.9176 25.0511L95.1846 25.0341C94.8352 26.9006 93.3693 27.9744 91.4005 27.9744C88.75 27.9744 86.9517 26.0057 86.9517 22.2727C86.9517 18.6421 88.7244 16.571 91.4261 16.571C93.446 16.571 94.9034 17.7386 95.1846 19.6563H98.9176Z" fill="#9C42E2"/>
<path d="M101.564 31H105.254V24.8125H107.947L111.254 31H115.328L111.621 24.2159C113.607 23.3636 114.706 21.6335 114.706 19.2472C114.706 15.7784 112.413 13.5455 108.45 13.5455H101.564V31ZM105.254 21.8466V16.5625H107.743C109.874 16.5625 110.905 17.5085 110.905 19.2472C110.905 20.9773 109.874 21.8466 107.76 21.8466H105.254Z" fill="#9C42E2"/>
<path d="M133.354 22.2727C133.354 16.5625 129.808 13.3068 125.18 13.3068C120.527 13.3068 117.007 16.5625 117.007 22.2727C117.007 27.9574 120.527 31.2386 125.18 31.2386C129.808 31.2386 133.354 27.983 133.354 22.2727ZM129.612 22.2727C129.612 25.9716 127.857 27.9744 125.18 27.9744C122.496 27.9744 120.749 25.9716 120.749 22.2727C120.749 18.5739 122.496 16.571 125.18 16.571C127.857 16.571 129.612 18.5739 129.612 22.2727Z" fill="#9C42E2"/>
<path d="M139.36 31H142.957L146.272 19.5881H146.408L149.732 31H153.329L158.323 13.5455H154.292L151.403 25.6989H151.249L148.07 13.5455H144.619L141.431 25.6733H141.286L138.397 13.5455H134.366L139.36 31Z" fill="#9C42E2"/>
<path d="M166.486 31C171.804 31 175.026 27.7102 175.026 22.2557C175.026 16.8182 171.804 13.5455 166.537 13.5455H160.298V31H166.486ZM163.989 27.8381V16.7074H166.341C169.614 16.7074 171.344 18.3778 171.344 22.2557C171.344 26.1506 169.614 27.8381 166.332 27.8381H163.989Z" fill="#9C42E2"/>
<path d="M83.517 45.5455V63H87.0966V51.5966H87.2415L91.7585 62.9148H94.196L98.713 51.6392H98.8579V63H102.437V45.5455H97.8863L93.0795 57.2727H92.875L88.0682 45.5455H83.517Z" fill="#232323"/>
<path d="M108.486 63L109.782 59.0199H116.08L117.376 63H121.33L115.313 45.5455H110.558L104.532 63H108.486ZM110.719 56.1392L112.867 49.5341H113.004L115.151 56.1392H110.719Z" fill="#232323"/>
<path d="M123.431 63H127.121V56.8125H129.815L133.121 63H137.195L133.488 56.2159C135.474 55.3636 136.573 53.6335 136.573 51.2472C136.573 47.7784 134.281 45.5455 130.317 45.5455H123.431V63ZM127.121 53.8466V48.5625H129.61C131.741 48.5625 132.772 49.5085 132.772 51.2472C132.772 52.9773 131.741 53.8466 129.627 53.8466H127.121Z" fill="#232323"/>
<path d="M139.181 63H142.871V58.0398L144.687 55.8239L149.468 63H153.883L147.329 53.3608L153.806 45.5455H149.383L143.102 53.2415H142.871V45.5455H139.181V63Z" fill="#232323"/>
<path d="M155.728 63H167.523V59.9574H159.418V55.7898H166.884V52.7472H159.418V48.5881H167.489V45.5455H155.728V63Z" fill="#232323"/>
<path d="M169.758 48.5881H175.102V63H178.75V48.5881H184.094V45.5455H169.758V48.5881Z" fill="#232323"/>
<path d="M190.145 45.5455H186.455V63H190.145V45.5455Z" fill="#232323"/>
<path d="M207.781 45.5455H204.107V56.5227H203.954L196.42 45.5455H193.181V63H196.871V52.0142H196.999L204.593 63H207.781V45.5455Z" fill="#232323"/>
<path d="M222.403 51.1875H226.153C225.676 47.7358 222.634 45.3068 218.687 45.3068C214.077 45.3068 210.523 48.6307 210.523 54.2898C210.523 59.8125 213.847 63.2386 218.764 63.2386C223.17 63.2386 226.315 60.4517 226.315 55.858V53.6591H219.011V56.4375H222.761C222.71 58.6023 221.236 59.9744 218.781 59.9744C216.011 59.9744 214.264 57.9034 214.264 54.2557C214.264 50.625 216.08 48.571 218.747 48.571C220.648 48.571 221.935 49.5511 222.403 51.1875Z" fill="#232323"/>
</svg>
