<svg width="375" height="412" viewBox="0 0 375 412" fill="none" xmlns="http://www.w3.org/2000/svg">
<path fill-rule="evenodd" clip-rule="evenodd" d="M520.171 274.468C527.528 330.426 542.165 385.163 526.512 439.578C509.021 500.385 487.463 574.714 427.425 596.881C366.813 619.261 308.007 562.973 246.858 542.832C202.257 528.142 158.713 518.299 118.1 495C66.7658 465.55 8.3571 441.968 -19.3182 390.132C-51.5273 329.805 -86.5525 245.785 -43.8322 191.703C1.41829 134.417 103.243 188.443 167.689 153.389C229.35 119.849 236.061 14.5221 305.189 1.85895C372.729 -10.5136 439.323 42.6687 481.329 95.9341C520.1 145.098 512.031 212.564 520.171 274.468Z" fill="#FBFBFB"/>
</svg>
