<svg width="375" height="407" viewBox="0 0 375 407" fill="none" xmlns="http://www.w3.org/2000/svg">
<path fill-rule="evenodd" clip-rule="evenodd" d="M54.7926 118.33C97.7801 81.7579 135.789 39.7367 189.979 23.3233C250.535 4.98182 324.653 -17.291 375.876 21.0785C427.588 59.8144 412.269 139.763 428.572 202.045C440.463 247.472 455.85 289.379 458.347 336.134C461.503 395.232 473.428 457.083 444.938 508.475C411.78 568.286 360.259 643.331 291.646 636.837C218.969 629.959 209.024 515.119 144.586 480.049C82.9332 446.494 -9.1474 498.069 -57.3271 446.906C-104.401 396.917 -95.919 312.116 -74.0118 247.916C-53.7915 188.659 7.23705 158.788 54.7926 118.33Z" fill="#FBFBFB"/>
</svg>
