<svg width="534" height="274" viewBox="0 0 534 274" fill="none" xmlns="http://www.w3.org/2000/svg">
<path fill-rule="evenodd" clip-rule="evenodd" d="M330.85 -275.048C390.078 -273.389 452.646 -295.78 504.034 -266.282C557.509 -235.586 579.519 -173.035 605.764 -117.24C636.038 -52.8785 678.551 11.2286 667.628 81.511C655.939 156.722 617.081 241.14 545.883 268.053C474.594 295.001 406.484 218.189 330.85 208.815C269.878 201.259 207.853 243.264 151.342 219.156C89.0342 192.575 39.5625 137.89 15.8477 74.4354C-8.43104 9.47229 -3.42885 -63.7084 21.4304 -128.452C45.4557 -191.022 89.9028 -247.485 150.473 -276.182C206.173 -302.571 269.239 -276.773 330.85 -275.048Z" fill="#FBFBFB"/>
</svg>
