<svg width="492" height="691" viewBox="0 0 492 691" fill="none" xmlns="http://www.w3.org/2000/svg">
<path fill-rule="evenodd" clip-rule="evenodd" d="M289.674 0.177303C352.132 4.16558 381.427 80.0697 433.177 115.267C483.023 149.17 562.814 147.554 587.331 202.626C611.876 257.764 556.919 316.016 549.192 375.874C541.302 436.997 576.96 506.38 541.605 556.86C506.233 607.365 431.85 604.451 374.055 625.937C311.086 649.346 252.766 701.72 186.853 688.74C120.236 675.622 60.2699 622.226 35.0635 559.183C11.1582 499.394 66.0197 435.691 60.0427 371.577C54.5433 312.586 -13.0841 264.529 2.25947 207.303C17.4391 150.689 86.3376 130.425 133.89 96.156C184.395 59.7594 227.548 -3.78982 289.674 0.177303Z" fill="#FBFBFB"/>
</svg>
