<svg width="418" height="389" viewBox="0 0 418 389" fill="none" xmlns="http://www.w3.org/2000/svg">
<g clip-path="url(#clip0_11_793)">
<path d="M209 389C324.428 389 418 335.034 418 268.464C418 201.895 324.428 147.929 209 147.929C93.5725 147.929 0 201.895 0 268.464C0 335.034 93.5725 389 209 389Z" fill="#F5F5F5"/>
<path d="M347.15 323.043C376.007 323.043 399.4 309.548 399.4 292.9C399.4 276.253 376.007 262.757 347.15 262.757C318.293 262.757 294.9 276.253 294.9 292.9C294.9 309.548 318.293 323.043 347.15 323.043Z" fill="#E0E0E0"/>
<path d="M160.083 358.022L30.4527 283.255C28.3274 282.03 28.3274 280.033 30.4527 278.808L217.855 170.713C219.049 170.109 220.368 169.794 221.706 169.794C223.044 169.794 224.363 170.109 225.557 170.713L355.115 245.463C357.24 246.697 357.24 248.684 355.115 249.909L167.785 358.022C166.591 358.626 165.272 358.941 163.934 358.941C162.596 358.941 161.277 358.626 160.083 358.022Z" fill="#E0E0E0"/>
<path d="M373.524 275.615C372.407 267.956 375.268 238.775 381.771 227.678C388.274 216.581 399.027 204.912 408.391 206.654C417.074 208.278 417.764 219.258 408.772 227.905C399.781 236.552 386.022 247.776 383.415 260.833L376.331 283.1L373.524 275.615Z" fill="url(#paint0_linear_11_793)"/>
<path opacity="0.1" d="M373.524 275.615C372.407 267.956 375.268 238.775 381.771 227.678C388.274 216.581 399.027 204.912 408.391 206.654C417.074 208.278 417.764 219.258 408.772 227.905C399.781 236.552 386.022 247.776 383.415 260.833L376.331 283.1L373.524 275.615Z" fill="black"/>
<path d="M375.604 273.21C375.723 273.179 375.828 273.109 375.903 273.013C375.978 272.916 376.02 272.797 376.022 272.675C376.431 245.753 393.651 220.827 405.403 213.886C405.468 213.849 405.525 213.8 405.57 213.741C405.615 213.682 405.648 213.615 405.667 213.543C405.685 213.471 405.689 213.396 405.678 213.322C405.667 213.249 405.642 213.178 405.603 213.115C405.567 213.049 405.518 212.991 405.459 212.945C405.4 212.899 405.333 212.866 405.26 212.847C405.188 212.828 405.112 212.825 405.038 212.837C404.965 212.848 404.894 212.875 404.831 212.915C392.851 219.984 375.304 245.336 374.859 272.657C374.858 272.731 374.872 272.804 374.899 272.873C374.926 272.941 374.966 273.004 375.018 273.057C375.069 273.11 375.131 273.153 375.199 273.182C375.267 273.211 375.34 273.227 375.413 273.228L375.604 273.21Z" fill="white"/>
<path d="M379.818 287.256C380.418 282.774 383.56 275.034 390.663 267.376C399.363 258.003 413.813 252.858 415.82 247.414C418.236 240.862 412.723 236.389 403.341 239.374C390.717 243.376 376.64 259.119 376.821 279.362L379.818 287.256Z" fill="url(#paint1_linear_11_793)"/>
<path d="M377.284 283.019C377.39 282.992 377.486 282.936 377.562 282.858C377.637 282.779 377.689 282.681 377.711 282.574C382.47 258.983 401.507 246.325 409.281 244.138C409.353 244.118 409.42 244.083 409.478 244.037C409.536 243.991 409.585 243.934 409.621 243.869C409.657 243.804 409.681 243.733 409.689 243.659C409.698 243.585 409.692 243.511 409.672 243.439C409.651 243.368 409.617 243.301 409.571 243.243C409.525 243.184 409.468 243.136 409.403 243.099C409.338 243.063 409.266 243.04 409.193 243.031C409.119 243.023 409.044 243.029 408.972 243.049C400.381 245.463 381.462 258.302 376.603 282.347C376.574 282.495 376.604 282.649 376.687 282.775C376.771 282.9 376.9 282.988 377.048 283.019C377.126 283.032 377.206 283.032 377.284 283.019Z" fill="white"/>
<path d="M114.836 21.5591L107.915 25.5515C107.951 25.2504 107.969 24.9474 107.969 24.6442V22.6298C107.969 19.0729 105.472 17.6302 102.384 19.4086C101.051 20.2189 99.9129 21.3124 99.0507 22.6116C98.5421 18.1292 95.0182 16.4597 90.7495 18.9277C86.1267 21.5954 82.3848 28.074 82.3848 33.4457V36.4491C82.3538 37.6433 82.5961 38.8288 83.0932 39.9153L77.3442 43.2272C76.4399 43.8153 75.6874 44.6082 75.1476 45.5416C74.6079 46.475 74.2963 47.5224 74.2381 48.5988C74.2381 50.5769 75.6276 51.3754 77.3442 50.4136L114.836 28.7909C115.737 28.2007 116.487 27.407 117.025 26.4739C117.563 25.5408 117.874 24.4944 117.933 23.4192C117.933 21.3776 116.543 20.5701 114.836 21.5591Z" fill="#E6E6E6"/>
<path d="M27.4828 30.4785L31.2973 27.5387V19.1455C31.2973 12.4853 36.6104 4.75451 42.3867 1.42445C48.1358 -1.90561 52.8313 0.798361 52.8313 7.44941V8.67436C54.0486 6.7043 55.7093 5.04519 57.6812 3.82899C61.8408 1.43352 65.2012 3.3753 65.2012 8.16623V8.71973L70.5234 5.65281C73.2481 4.07398 75.4732 5.35337 75.4732 8.50196C75.3806 10.2193 74.8842 11.8906 74.0242 13.3804C73.1642 14.8702 71.9649 16.1365 70.5234 17.0766L27.4828 41.9024C24.7581 43.4812 22.5239 42.2018 22.5239 39.0441C22.6182 37.3274 23.1163 35.6571 23.978 34.1688C24.8396 32.6805 26.0404 31.4162 27.4828 30.4785Z" fill="#E6E6E6"/>
<path d="M38.4541 272.965C38.5617 274.376 39.0011 275.742 39.7365 276.951C40.4719 278.16 41.4826 279.179 42.6864 279.925L160.301 347.769C161.602 348.427 163.039 348.769 164.497 348.769C165.955 348.769 167.392 348.427 168.693 347.769L342.954 247.241C344.219 246.57 345.278 245.567 346.016 244.34C346.755 243.113 347.145 241.709 347.145 240.277C347.145 238.845 346.755 237.441 346.016 236.214C345.278 234.987 344.219 233.984 342.954 233.313L225.348 165.478C224.047 164.816 222.608 164.47 221.147 164.47C219.687 164.47 218.248 164.816 216.947 165.478L42.6864 265.996C41.4824 266.744 40.4718 267.765 39.7364 268.975C39.0011 270.186 38.5618 271.553 38.4541 272.965Z" fill="#37474F"/>
<path d="M164.461 339.693V348.767C163 348.8 161.554 348.456 160.265 347.769L42.6864 279.925C41.4575 279.276 40.4224 278.315 39.6864 277.137C38.9505 275.96 38.5399 274.608 38.4965 273.221C38.4532 271.833 38.7785 270.459 39.4395 269.238C40.1005 268.016 41.0735 266.992 42.2596 266.269C40.3795 267.621 40.5249 269.599 42.6864 270.805L160.301 338.65C161.577 339.343 163.008 339.701 164.461 339.693Z" fill="#263238"/>
<path d="M34.5124 266.151C33.3413 265.359 32.3738 264.302 31.6889 263.065C31.0039 261.829 30.6208 260.449 30.5707 259.037V118.866C30.6491 117.411 31.0699 115.996 31.799 114.735C32.5281 113.473 33.5449 112.402 34.7667 111.607L209.073 11.0336C210.326 10.365 211.72 10.0025 213.141 9.97573C214.562 9.94891 215.969 10.2586 217.247 10.8793C218.418 11.6713 219.385 12.7284 220.07 13.9646C220.755 15.2008 221.138 16.5811 221.188 17.9931V158.21C221.108 159.664 220.685 161.08 219.954 162.341C219.224 163.602 218.206 164.674 216.983 165.469L42.6864 265.996C41.4336 266.667 40.0392 267.031 38.618 267.058C37.1969 267.084 35.7898 266.774 34.5124 266.151Z" fill="#455A64"/>
<path d="M42.1597 266.25C40.9569 266.794 39.6494 267.067 38.3295 267.049C37.0096 267.032 35.7096 266.725 34.5215 266.151C33.3519 265.357 32.3856 264.3 31.7008 263.064C31.0161 261.828 30.6321 260.448 30.5798 259.037V118.866C30.613 117.393 31.0293 115.955 31.7878 114.692L39.662 119.229C38.9047 120.492 38.4885 121.93 38.4541 123.403V263.583C38.4541 266.06 40.0707 267.176 42.1597 266.25Z" fill="#263238"/>
<path d="M38.4541 123.403V263.583C38.4541 266.25 40.3341 267.339 42.6501 265.996L216.947 165.478C218.169 164.683 219.187 163.611 219.918 162.35C220.648 161.089 221.071 159.674 221.152 158.219V17.9931C221.152 15.3164 219.272 14.2366 216.947 15.5704L42.6864 116.144C41.4599 116.937 40.4376 118.007 39.7022 119.268C38.9669 120.529 38.5393 121.946 38.4541 123.403Z" fill="#37474F"/>
<path d="M42.6864 270.842L160.301 338.677C161.601 339.339 163.038 339.684 164.497 339.684C165.956 339.684 167.394 339.339 168.693 338.677L342.954 238.149C345.27 236.815 345.27 234.647 342.954 233.313L225.348 165.478C224.047 164.816 222.608 164.47 221.147 164.47C219.687 164.47 218.248 164.816 216.947 165.478L42.6864 265.996C40.3341 267.339 40.3341 269.49 42.6864 270.842Z" fill="#455A64"/>
<path d="M44.9116 121.488L213.432 24.3085C214.831 23.51 215.957 24.1542 215.957 25.7603V155.161C215.911 156.034 215.658 156.885 215.219 157.642C214.78 158.399 214.168 159.041 213.432 159.516L44.9116 256.66C43.522 257.467 42.3958 256.814 42.3958 255.208V125.844C42.4426 124.971 42.6948 124.122 43.132 123.365C43.5691 122.608 44.1788 121.965 44.9116 121.488Z" fill="url(#paint2_linear_11_793)"/>
<path opacity="0.4" d="M44.9116 121.488L213.432 24.3085C214.831 23.51 215.957 24.1542 215.957 25.7603V155.161C215.911 156.034 215.658 156.885 215.219 157.642C214.78 158.399 214.168 159.041 213.432 159.516L44.9116 256.66C43.522 257.467 42.3958 256.814 42.3958 255.208V125.844C42.4426 124.971 42.6948 124.122 43.132 123.365C43.5691 122.608 44.1788 121.965 44.9116 121.488Z" fill="black"/>
<path d="M56.3098 267.212L219.063 173.353C219.713 173.022 220.432 172.849 221.161 172.849C221.89 172.849 222.609 173.022 223.259 173.353L230.897 177.754C232.06 178.426 232.06 179.505 230.897 180.177L68.1166 274.027C67.467 274.358 66.748 274.531 66.0186 274.531C65.2893 274.531 64.5703 274.358 63.9206 274.027L56.3098 269.635C55.1472 268.963 55.1472 267.884 56.3098 267.212Z" fill="#37474F"/>
<path d="M75.9909 278.563L238.735 184.705C239.387 184.374 240.107 184.202 240.838 184.202C241.568 184.202 242.289 184.374 242.94 184.705L289.932 211.808C291.085 212.479 291.085 213.559 289.932 214.231L127.36 307.971C126.709 308.3 125.991 308.471 125.262 308.471C124.533 308.471 123.814 308.3 123.164 307.971L76 280.986C74.8375 280.315 74.8375 279.235 75.9909 278.563Z" fill="#263238"/>
<path d="M219.009 224.611L224.131 221.662C224.349 221.535 224.358 221.335 224.131 221.208L218.727 218.087C218.605 218.029 218.472 217.999 218.337 217.999C218.201 217.999 218.068 218.029 217.946 218.087L212.824 221.045C212.606 221.163 212.597 221.372 212.824 221.49L218.228 224.611C218.35 224.669 218.483 224.699 218.618 224.699C218.753 224.699 218.887 224.669 219.009 224.611ZM210.226 213.641L205.104 216.59C204.886 216.717 204.886 216.916 205.104 217.043L210.553 220.165C210.675 220.223 210.808 220.253 210.944 220.253C211.079 220.253 211.212 220.223 211.334 220.165L216.457 217.216C216.674 217.089 216.674 216.88 216.457 216.762L211.007 213.641C210.885 213.583 210.752 213.553 210.617 213.553C210.482 213.553 210.348 213.583 210.226 213.641ZM193.678 223.214L185.005 228.213C184.787 228.34 184.778 228.54 185.005 228.667L190.409 231.788C190.531 231.846 190.664 231.876 190.799 231.876C190.934 231.876 191.068 231.846 191.19 231.788L199.863 226.789C200.081 226.662 200.081 226.462 199.863 226.335L194.414 223.214C194.299 223.159 194.173 223.13 194.046 223.13C193.919 223.13 193.793 223.159 193.678 223.214ZM202.761 217.987L197.629 220.936C197.42 221.063 197.411 221.272 197.629 221.39L203.033 224.511C203.155 224.569 203.288 224.599 203.424 224.599C203.559 224.599 203.692 224.569 203.814 224.511L208.936 221.562C209.154 221.435 209.163 221.236 208.936 221.109L203.533 217.987C203.411 217.923 203.277 217.888 203.141 217.883C203.004 217.878 202.868 217.905 202.742 217.96L202.761 217.987ZM182.634 229.565L177.512 232.514C177.294 232.641 177.294 232.841 177.512 232.968L182.961 236.089C183.083 236.147 183.217 236.177 183.352 236.177C183.487 236.177 183.62 236.147 183.742 236.089L188.865 233.131C188.911 233.115 188.95 233.085 188.979 233.045C189.007 233.005 189.022 232.958 189.022 232.909C189.022 232.86 189.007 232.813 188.979 232.773C188.95 232.733 188.911 232.703 188.865 232.687L183.461 229.565C183.333 229.5 183.191 229.466 183.048 229.466C182.904 229.466 182.762 229.5 182.634 229.565ZM175.151 233.884L170.028 236.824C169.81 236.951 169.801 237.151 170.028 237.278L175.478 240.399C175.6 240.457 175.733 240.487 175.868 240.487C176.003 240.487 176.137 240.457 176.259 240.399L181.381 237.45C181.599 237.323 181.608 237.115 181.381 236.997L175.977 233.875C175.849 233.81 175.707 233.776 175.564 233.776C175.42 233.776 175.279 233.81 175.151 233.875V233.884ZM196.385 246.588L201.507 243.63C201.725 243.503 201.734 243.303 201.507 243.176L196.103 240.064C195.983 240.001 195.849 239.968 195.713 239.968C195.577 239.968 195.443 240.001 195.322 240.064L190.2 243.022C189.982 243.149 189.973 243.348 190.2 243.475L195.649 246.588C195.765 246.642 195.891 246.669 196.018 246.667C196.145 246.666 196.271 246.635 196.385 246.579V246.588ZM188.91 250.898L194.033 247.94C194.25 247.813 194.25 247.613 194.033 247.486L188.583 244.374C188.463 244.311 188.329 244.278 188.193 244.278C188.057 244.278 187.923 244.311 187.802 244.374L182.68 247.332C182.462 247.459 182.462 247.658 182.68 247.785L188.129 250.898C188.25 250.96 188.384 250.993 188.52 250.993C188.656 250.993 188.79 250.96 188.91 250.898ZM181.417 255.217L186.54 252.259C186.758 252.132 186.767 251.932 186.54 251.814L181.136 248.693C181.015 248.63 180.881 248.597 180.745 248.597C180.609 248.597 180.475 248.63 180.355 248.693L175.223 251.651C175.014 251.778 175.005 251.977 175.223 252.104L180.627 255.217C180.748 255.28 180.882 255.312 181.018 255.312C181.154 255.312 181.288 255.28 181.408 255.217H181.417ZM173.915 259.509L179.047 256.551C179.265 256.423 179.265 256.224 179.047 256.106L173.643 252.985C173.521 252.927 173.388 252.896 173.252 252.896C173.117 252.896 172.984 252.927 172.862 252.985L167.739 255.943C167.522 256.07 167.522 256.269 167.739 256.396L173.143 259.509C173.263 259.57 173.395 259.602 173.529 259.602C173.664 259.602 173.796 259.57 173.915 259.509ZM211.525 228.93L216.647 225.981C216.865 225.854 216.865 225.654 216.647 225.527L211.198 222.406C211.076 222.348 210.942 222.318 210.807 222.318C210.672 222.318 210.539 222.348 210.417 222.406L205.294 225.364C205.248 225.38 205.209 225.411 205.181 225.45C205.152 225.49 205.137 225.538 205.137 225.586C205.137 225.635 205.152 225.683 205.181 225.722C205.209 225.762 205.248 225.792 205.294 225.809L210.744 228.93C210.864 228.993 210.998 229.026 211.134 229.026C211.27 229.026 211.404 228.993 211.525 228.93ZM203.878 242.268L215.303 235.672C215.521 235.545 215.53 235.345 215.303 235.218L202.17 227.651C202.05 227.588 201.916 227.555 201.78 227.555C201.644 227.555 201.51 227.588 201.389 227.651L195.477 231.062C195.259 231.189 195.259 231.389 195.477 231.516L202.434 235.527C202.642 235.645 202.642 235.844 202.434 235.971L197.702 238.693C197.484 238.82 197.484 239.02 197.702 239.138L203.151 242.259C203.264 242.315 203.388 242.344 203.513 242.346C203.639 242.348 203.763 242.321 203.878 242.268ZM167.658 238.203L162.572 241.143C162.354 241.27 162.354 241.479 162.572 241.597L168.021 244.718C168.143 244.776 168.276 244.807 168.412 244.807C168.547 244.807 168.68 244.776 168.802 244.718L173.924 241.769C174.142 241.642 174.142 241.443 173.924 241.316L168.475 238.194C168.348 238.131 168.208 238.097 168.066 238.097C167.924 238.097 167.785 238.131 167.658 238.194V238.203ZM160.174 242.523L155.043 245.472C154.834 245.599 154.825 245.807 155.043 245.925L160.446 249.047C160.568 249.105 160.702 249.135 160.837 249.135C160.972 249.135 161.106 249.105 161.228 249.047L166.35 246.098C166.568 245.971 166.577 245.771 166.35 245.644L160.946 242.523C160.826 242.464 160.694 242.434 160.561 242.432C160.428 242.43 160.295 242.458 160.174 242.513V242.523ZM120.721 289.788C120.84 289.85 120.972 289.883 121.107 289.883C121.241 289.883 121.374 289.85 121.493 289.788L126.624 286.839C126.674 286.825 126.717 286.795 126.748 286.754C126.779 286.713 126.796 286.663 126.796 286.612C126.796 286.561 126.779 286.511 126.748 286.47C126.717 286.429 126.674 286.399 126.624 286.385L121.22 283.264C121.098 283.206 120.965 283.175 120.83 283.175C120.695 283.175 120.561 283.206 120.439 283.264L115.344 286.213C115.298 286.229 115.258 286.259 115.23 286.299C115.202 286.339 115.187 286.386 115.187 286.435C115.187 286.484 115.202 286.531 115.23 286.571C115.258 286.611 115.298 286.641 115.344 286.657L120.721 289.788ZM100.259 277.084L95.1362 280.042C94.9183 280.169 94.9183 280.369 95.1362 280.496L100.586 283.608C100.706 283.671 100.84 283.704 100.976 283.704C101.112 283.704 101.246 283.671 101.367 283.608L106.498 280.65C106.716 280.523 106.716 280.324 106.498 280.206L101.049 277.084C100.929 277.017 100.794 276.98 100.656 276.977C100.518 276.974 100.382 277.005 100.259 277.066V277.084ZM111.021 286.476C111.143 286.534 111.276 286.564 111.412 286.564C111.547 286.564 111.68 286.534 111.802 286.476L116.924 283.518C117.142 283.391 117.142 283.191 116.924 283.064L111.475 279.952C111.356 279.889 111.224 279.856 111.089 279.856C110.955 279.856 110.822 279.889 110.703 279.952L105.572 282.91C105.354 283.037 105.354 283.236 105.572 283.354L111.021 286.476ZM133.163 291.974L138.286 289.016C138.504 288.889 138.513 288.69 138.286 288.572L132.837 285.45C132.715 285.392 132.581 285.362 132.446 285.362C132.311 285.362 132.177 285.392 132.055 285.45L126.933 288.408C126.715 288.535 126.706 288.735 126.933 288.862L132.337 291.974C132.465 292.042 132.608 292.076 132.753 292.073C132.897 292.07 133.039 292.03 133.163 291.956V291.974ZM124.899 296.303C125.018 296.363 125.151 296.395 125.285 296.395C125.419 296.395 125.551 296.363 125.671 296.303L130.802 293.345C131.02 293.218 131.02 293.018 130.802 292.9L125.353 289.779C125.231 289.72 125.097 289.69 124.962 289.69C124.827 289.69 124.694 289.72 124.572 289.779L119.449 292.737C119.231 292.864 119.231 293.063 119.449 293.19L124.899 296.303ZM107.751 272.765L102.629 275.705C102.411 275.832 102.402 276.032 102.629 276.159L108.078 279.271C108.199 279.334 108.333 279.367 108.469 279.367C108.605 279.367 108.739 279.334 108.859 279.271L113.982 276.313C114.2 276.186 114.209 275.986 113.982 275.869L108.533 272.747C108.412 272.684 108.278 272.652 108.142 272.652C108.006 272.652 107.872 272.684 107.751 272.747V272.765ZM145.197 251.17L140.066 254.128C140.02 254.144 139.98 254.174 139.952 254.214C139.924 254.254 139.909 254.301 139.909 254.35C139.909 254.399 139.924 254.446 139.952 254.486C139.98 254.526 140.02 254.556 140.066 254.572L145.515 257.694C145.637 257.752 145.771 257.782 145.906 257.782C146.041 257.782 146.174 257.752 146.296 257.694L151.419 254.736C151.637 254.609 151.637 254.409 151.419 254.282L145.969 251.161C145.85 251.099 145.719 251.066 145.584 251.064C145.45 251.062 145.318 251.092 145.197 251.152V251.17ZM115.226 268.41L110.104 271.368C109.886 271.495 109.886 271.695 110.104 271.813L115.553 274.934C115.674 274.997 115.808 275.03 115.944 275.03C116.08 275.03 116.214 274.997 116.334 274.934L121.457 271.976C121.674 271.849 121.674 271.649 121.457 271.522L116.007 268.41C115.886 268.351 115.753 268.323 115.619 268.326C115.485 268.329 115.353 268.364 115.235 268.428L115.226 268.41ZM152.681 246.805L147.559 249.763C147.513 249.78 147.473 249.81 147.445 249.85C147.417 249.889 147.402 249.937 147.402 249.986C147.402 250.034 147.417 250.082 147.445 250.122C147.473 250.162 147.513 250.192 147.559 250.208L152.963 253.329C153.085 253.387 153.218 253.418 153.353 253.418C153.488 253.418 153.622 253.387 153.744 253.329L158.875 250.38C158.925 250.366 158.968 250.337 158.999 250.296C159.03 250.255 159.047 250.205 159.047 250.154C159.047 250.102 159.03 250.052 158.999 250.011C158.968 249.971 158.925 249.941 158.875 249.927L153.489 246.805C153.364 246.743 153.226 246.711 153.085 246.711C152.945 246.711 152.807 246.743 152.681 246.805ZM137.705 255.444L132.6 258.429C132.382 258.556 132.373 258.755 132.6 258.873L138.004 261.995C138.126 262.053 138.26 262.083 138.395 262.083C138.53 262.083 138.663 262.053 138.785 261.995L143.908 259.037C144.126 258.91 144.135 258.71 143.908 258.583L138.458 255.462C138.339 255.409 138.211 255.383 138.081 255.384C137.95 255.386 137.822 255.415 137.705 255.471V255.444ZM130.212 259.763L125.089 262.721C124.871 262.848 124.871 263.047 125.089 263.165L130.539 266.287C130.661 266.345 130.794 266.375 130.929 266.375C131.064 266.375 131.198 266.345 131.32 266.287L136.442 263.329C136.66 263.202 136.66 263.002 136.442 262.875L130.993 259.763C130.87 259.704 130.735 259.676 130.599 259.681C130.463 259.685 130.33 259.723 130.212 259.79V259.763ZM122.728 264.082L117.606 267.04C117.388 267.167 117.379 267.366 117.606 267.484L123.055 270.606C123.176 270.669 123.31 270.701 123.446 270.701C123.581 270.701 123.715 270.669 123.836 270.606L128.958 267.648C129.176 267.521 129.185 267.321 128.958 267.194L123.518 264.109C123.396 264.045 123.261 264.011 123.123 264.011C122.985 264.011 122.85 264.045 122.728 264.109V264.082ZM158.939 268.174L164.061 265.216C164.279 265.098 164.288 264.889 164.061 264.771L158.612 261.65C158.491 261.587 158.357 261.554 158.221 261.554C158.085 261.554 157.951 261.587 157.831 261.65L152.708 264.599C152.49 264.726 152.481 264.926 152.708 265.053L158.112 268.174C158.24 268.239 158.382 268.273 158.526 268.273C158.669 268.273 158.811 268.239 158.939 268.174ZM226.783 204.086L221.661 207.044C221.443 207.171 221.434 207.371 221.661 207.498L227.065 210.61C227.185 210.673 227.319 210.706 227.455 210.706C227.591 210.706 227.725 210.673 227.846 210.61L232.968 207.652C233.186 207.525 233.195 207.326 232.968 207.208L227.564 204.086C227.443 204.023 227.31 203.991 227.174 203.991C227.038 203.991 226.904 204.023 226.783 204.086ZM217.701 209.322L212.578 212.271C212.36 212.398 212.351 212.597 212.578 212.724L218.028 215.846C218.15 215.904 218.283 215.934 218.418 215.934C218.553 215.934 218.687 215.904 218.809 215.846L223.931 212.888C224.149 212.77 224.158 212.561 223.931 212.443L218.527 209.322C218.402 209.259 218.263 209.227 218.123 209.227C217.983 209.227 217.845 209.259 217.719 209.322H217.701ZM234.321 199.767L229.19 202.725C228.972 202.852 228.972 203.052 229.19 203.179L234.639 206.291C234.76 206.354 234.894 206.387 235.03 206.387C235.166 206.387 235.3 206.354 235.42 206.291L240.543 203.333C240.761 203.206 240.761 203.006 240.543 202.879L235.139 199.767C235.014 199.698 234.873 199.662 234.73 199.662C234.587 199.662 234.446 199.698 234.321 199.767ZM194.178 238.938L199.3 235.98C199.518 235.853 199.527 235.654 199.3 235.536L193.896 232.414C193.776 232.352 193.642 232.319 193.506 232.319C193.37 232.319 193.236 232.352 193.115 232.414L188.002 235.372C187.784 235.499 187.775 235.699 188.002 235.826L193.406 238.938C193.525 239 193.658 239.032 193.792 239.032C193.926 239.032 194.058 239 194.178 238.938ZM242.541 195.448C242.42 195.385 242.286 195.352 242.15 195.352C242.014 195.352 241.88 195.385 241.76 195.448L236.637 198.406C236.419 198.533 236.419 198.733 236.637 198.86L242.087 201.972C242.205 202.035 242.338 202.068 242.473 202.068C242.607 202.068 242.74 202.035 242.858 201.972L247.99 199.014C248.039 199 248.083 198.97 248.114 198.929C248.145 198.888 248.161 198.838 248.161 198.787C248.161 198.736 248.145 198.686 248.114 198.645C248.083 198.604 248.039 198.574 247.99 198.56L242.541 195.448ZM166.432 263.855L171.554 260.897C171.772 260.77 171.772 260.57 171.554 260.452L166.105 257.331C165.985 257.27 165.853 257.239 165.719 257.239C165.585 257.239 165.452 257.27 165.333 257.331L160.201 260.289C159.983 260.416 159.983 260.616 160.201 260.743L165.651 263.864C165.773 263.921 165.907 263.949 166.042 263.948C166.177 263.946 166.31 263.914 166.432 263.855ZM258.271 210.882L263.393 207.924C263.611 207.797 263.611 207.598 263.393 207.48L257.944 204.358C257.822 204.3 257.689 204.27 257.554 204.27C257.418 204.27 257.285 204.3 257.163 204.358L252.041 207.316C251.823 207.443 251.823 207.643 252.041 207.77L257.49 210.882C257.611 210.945 257.745 210.978 257.881 210.978C258.016 210.978 258.15 210.945 258.271 210.882ZM243.058 210.746L248.181 207.788C248.399 207.661 248.399 207.462 248.181 207.344L242.731 204.222C242.609 204.164 242.476 204.134 242.341 204.134C242.206 204.134 242.072 204.164 241.95 204.222L236.828 207.18C236.61 207.307 236.61 207.507 236.828 207.634L242.277 210.746C242.398 210.809 242.532 210.842 242.668 210.842C242.804 210.842 242.938 210.809 243.058 210.746ZM250.27 199.903C250.149 199.84 250.015 199.808 249.879 199.808C249.743 199.808 249.609 199.84 249.489 199.903L244.366 202.861C244.148 202.988 244.139 203.188 244.366 203.315L249.761 206.427C249.882 206.49 250.016 206.523 250.152 206.523C250.288 206.523 250.421 206.49 250.542 206.427L255.664 203.469C255.882 203.342 255.891 203.143 255.664 203.025L250.27 199.903ZM251.841 198.996L264.974 206.563C265.094 206.626 265.228 206.659 265.364 206.659C265.5 206.659 265.634 206.626 265.755 206.563L270.877 203.605C271.095 203.478 271.104 203.279 270.877 203.161L257.744 195.584C257.624 195.521 257.49 195.489 257.354 195.489C257.218 195.489 257.084 195.521 256.963 195.584L251.841 198.542C251.632 198.715 251.632 198.869 251.841 198.996ZM234.512 208.541L229.381 211.499C229.331 211.514 229.288 211.543 229.257 211.584C229.226 211.625 229.209 211.675 229.209 211.726C229.209 211.778 229.226 211.827 229.257 211.868C229.288 211.909 229.331 211.939 229.381 211.953L234.784 215.065C234.905 215.128 235.039 215.161 235.175 215.161C235.311 215.161 235.445 215.128 235.565 215.065L240.688 212.107C240.906 211.98 240.906 211.781 240.688 211.663L235.284 208.541C235.163 208.485 235.031 208.455 234.898 208.455C234.765 208.455 234.633 208.485 234.512 208.541ZM178.148 241.053L173.016 244.011C172.967 244.025 172.924 244.054 172.893 244.095C172.862 244.136 172.845 244.186 172.845 244.237C172.845 244.289 172.862 244.339 172.893 244.38C172.924 244.42 172.967 244.45 173.016 244.464L178.42 247.586C178.542 247.644 178.676 247.674 178.811 247.674C178.946 247.674 179.079 247.644 179.201 247.586L184.324 244.628C184.542 244.501 184.542 244.301 184.324 244.183L178.874 241.062C178.76 241.01 178.637 240.983 178.512 240.981C178.387 240.98 178.263 241.004 178.148 241.053ZM249.997 215.211C250.119 215.269 250.253 215.299 250.388 215.299C250.523 215.299 250.656 215.269 250.778 215.211L255.901 212.253C256.119 212.126 256.128 211.926 255.901 211.808L250.506 208.696C250.384 208.638 250.25 208.607 250.115 208.607C249.98 208.607 249.847 208.638 249.725 208.696L244.602 211.654C244.384 211.781 244.375 211.98 244.602 212.107L249.997 215.211ZM185.631 236.733L180.509 239.692C180.291 239.819 180.291 240.018 180.509 240.145L185.958 243.258C186.079 243.32 186.213 243.353 186.349 243.353C186.485 243.353 186.619 243.32 186.739 243.258L191.862 240.299C192.08 240.172 192.08 239.973 191.862 239.855L186.413 236.733C186.291 236.675 186.157 236.645 186.022 236.645C185.887 236.645 185.753 236.675 185.631 236.733ZM128.205 285.459C128.327 285.518 128.46 285.548 128.595 285.548C128.73 285.548 128.864 285.518 128.986 285.459L134.108 282.51C134.326 282.383 134.335 282.184 134.108 282.057L128.704 278.935C128.582 278.877 128.449 278.847 128.314 278.847C128.178 278.847 128.045 278.877 127.923 278.935L122.801 281.884C122.583 282.011 122.574 282.22 122.801 282.338L128.205 285.459ZM118.214 275.614L113.11 278.563C113.064 278.58 113.024 278.61 112.996 278.65C112.968 278.689 112.953 278.737 112.953 278.786C112.953 278.834 112.968 278.882 112.996 278.922C113.024 278.962 113.064 278.992 113.11 279.008L118.514 282.129C118.636 282.187 118.769 282.218 118.904 282.218C119.04 282.218 119.173 282.187 119.295 282.129L124.426 279.171C124.476 279.157 124.519 279.128 124.55 279.087C124.581 279.046 124.598 278.996 124.598 278.945C124.598 278.893 124.581 278.843 124.55 278.802C124.519 278.762 124.476 278.732 124.426 278.718L118.977 275.596C118.859 275.547 118.731 275.522 118.603 275.526C118.474 275.529 118.348 275.559 118.232 275.614H118.214ZM136.46 281.131L141.583 278.182C141.801 278.055 141.801 277.856 141.583 277.729L136.133 274.607C136.011 274.549 135.878 274.519 135.743 274.519C135.608 274.519 135.474 274.549 135.352 274.607L130.23 277.556C130.012 277.683 130.012 277.883 130.23 278.01L135.679 281.131C135.804 281.192 135.94 281.224 136.079 281.224C136.217 281.224 136.354 281.192 136.478 281.131H136.46ZM143.944 276.812L149.066 273.863C149.284 273.736 149.294 273.527 149.066 273.41L143.663 270.288C143.541 270.23 143.407 270.2 143.272 270.2C143.137 270.2 143.003 270.23 142.881 270.288L137.759 273.237C137.541 273.364 137.532 273.564 137.759 273.691L143.208 276.812C143.327 276.866 143.455 276.894 143.585 276.894C143.715 276.894 143.844 276.866 143.962 276.812H143.944ZM151.437 272.493L156.559 269.535C156.605 269.519 156.645 269.489 156.673 269.449C156.701 269.409 156.716 269.361 156.716 269.313C156.716 269.264 156.701 269.216 156.673 269.177C156.645 269.137 156.605 269.107 156.559 269.09L151.11 265.969C150.988 265.911 150.855 265.881 150.719 265.881C150.584 265.881 150.451 265.911 150.329 265.969L145.315 268.927C145.098 269.054 145.098 269.254 145.315 269.381L150.765 272.502C150.987 272.59 151.235 272.587 151.455 272.493H151.437ZM125.725 271.304L120.594 274.262C120.548 274.279 120.508 274.309 120.48 274.349C120.452 274.389 120.437 274.436 120.437 274.485C120.437 274.534 120.452 274.581 120.48 274.621C120.508 274.661 120.548 274.691 120.594 274.707L125.998 277.828C126.118 277.891 126.252 277.924 126.388 277.924C126.524 277.924 126.658 277.891 126.779 277.828L131.901 274.879C132.119 274.752 132.128 274.553 131.901 274.426L126.452 271.304C126.337 271.254 126.213 271.229 126.088 271.229C125.963 271.229 125.84 271.254 125.725 271.304ZM133.209 266.985L128.059 269.934C128.013 269.951 127.974 269.981 127.945 270.021C127.917 270.06 127.902 270.108 127.902 270.157C127.902 270.205 127.917 270.253 127.945 270.293C127.974 270.332 128.013 270.363 128.059 270.379L133.509 273.5C133.631 273.558 133.764 273.588 133.899 273.588C134.034 273.588 134.168 273.558 134.29 273.5L139.412 270.551C139.63 270.424 139.63 270.225 139.412 270.098L133.963 266.976C133.844 266.922 133.716 266.894 133.586 266.894C133.456 266.894 133.327 266.922 133.209 266.976V266.985ZM163.18 249.745L158.031 252.649C157.813 252.776 157.813 252.975 158.031 253.103L163.48 256.224C163.602 256.282 163.735 256.312 163.87 256.312C164.006 256.312 164.139 256.282 164.261 256.224L169.383 253.266C169.429 253.25 169.469 253.219 169.497 253.18C169.525 253.14 169.54 253.092 169.54 253.044C169.54 252.995 169.525 252.947 169.497 252.907C169.469 252.868 169.429 252.838 169.383 252.821L163.934 249.7C163.816 249.639 163.685 249.607 163.553 249.607C163.42 249.607 163.289 249.639 163.171 249.7L163.18 249.745ZM155.678 254.064L150.556 257.013C150.338 257.14 150.329 257.34 150.556 257.467L156.005 260.588C156.127 260.646 156.261 260.677 156.396 260.677C156.531 260.677 156.664 260.646 156.786 260.588L161.909 257.639C162.127 257.512 162.136 257.304 161.909 257.186L156.505 254.064C156.377 253.999 156.235 253.965 156.092 253.965C155.948 253.965 155.806 253.999 155.678 254.064ZM170.655 245.417L165.533 248.375C165.315 248.502 165.315 248.702 165.533 248.829L170.936 251.95C171.058 252.008 171.192 252.038 171.327 252.038C171.462 252.038 171.596 252.008 171.718 251.95L176.849 248.992C176.895 248.976 176.935 248.946 176.963 248.906C176.991 248.866 177.006 248.819 177.006 248.77C177.006 248.721 176.991 248.674 176.963 248.634C176.935 248.594 176.895 248.564 176.849 248.548L171.4 245.426C171.286 245.365 171.162 245.328 171.033 245.319C170.905 245.31 170.776 245.328 170.655 245.372V245.417ZM140.684 262.703L135.561 265.651C135.343 265.779 135.334 265.987 135.561 266.105L140.965 269.227C141.087 269.285 141.221 269.315 141.356 269.315C141.491 269.315 141.624 269.285 141.746 269.227L146.869 266.278C147.087 266.151 147.096 265.951 146.869 265.824L141.465 262.703C141.348 262.64 141.22 262.604 141.088 262.596C140.956 262.588 140.825 262.609 140.702 262.657L140.684 262.703ZM148.167 258.383L143.063 261.323C142.845 261.45 142.845 261.65 143.063 261.777L148.512 264.898C148.634 264.956 148.768 264.987 148.903 264.987C149.038 264.987 149.172 264.956 149.294 264.898L154.416 261.949C154.634 261.822 154.634 261.614 154.416 261.496L148.967 258.374C148.847 258.311 148.715 258.274 148.58 258.268C148.445 258.262 148.31 258.286 148.185 258.338L148.167 258.383ZM140.656 287.637L145.779 284.679C145.997 284.552 145.997 284.352 145.779 284.234L140.329 281.113C140.209 281.05 140.075 281.018 139.939 281.018C139.803 281.018 139.669 281.05 139.548 281.113L134.426 284.071C134.208 284.198 134.208 284.398 134.426 284.525L139.875 287.637C139.996 287.7 140.13 287.733 140.266 287.733C140.402 287.733 140.536 287.7 140.656 287.637ZM98.9962 284.507L93.5468 281.385C93.4272 281.325 93.295 281.293 93.1609 281.293C93.0267 281.293 92.8945 281.325 92.7749 281.385L87.6434 284.343C87.5941 284.357 87.5507 284.387 87.5197 284.428C87.4888 284.469 87.4721 284.519 87.4721 284.57C87.4721 284.621 87.4888 284.671 87.5197 284.712C87.5507 284.753 87.5941 284.783 87.6434 284.797L93.0927 287.909C93.2133 287.972 93.3473 288.005 93.4833 288.005C93.6193 288.005 93.7532 287.972 93.8738 287.909L98.9962 284.915C99.1687 284.824 99.1687 284.625 98.9962 284.507ZM109.477 287.365L104.028 284.253C103.907 284.19 103.773 284.157 103.637 284.157C103.501 284.157 103.367 284.19 103.247 284.253L95.3633 288.79C95.1453 288.917 95.1453 289.116 95.3633 289.243L100.813 292.365C100.932 292.425 101.064 292.457 101.199 292.457C101.333 292.457 101.465 292.425 101.585 292.365L109.468 287.828C109.65 287.692 109.659 287.492 109.441 287.365H109.477ZM90.804 278.409L85.3547 275.297C85.2341 275.234 85.1001 275.201 84.9642 275.201C84.8282 275.201 84.6942 275.234 84.5736 275.297L78.2706 278.926C78.0526 279.053 78.0526 279.253 78.2706 279.38L83.7199 282.492C83.8388 282.555 83.9714 282.588 84.1059 282.588C84.2404 282.588 84.3729 282.555 84.4919 282.492L90.8494 278.863C90.9766 278.736 90.9766 278.563 90.7677 278.409H90.804ZM95.6358 275.624C95.7578 275.682 95.8912 275.712 96.0263 275.712C96.1614 275.712 96.2948 275.682 96.4168 275.624L101.539 272.665C101.757 272.538 101.766 272.339 101.539 272.212L96.0899 269.09C95.9679 269.032 95.8345 269.002 95.6993 269.002C95.5642 269.002 95.4308 269.032 95.3088 269.09L90.1864 272.048C89.9685 272.176 89.9594 272.375 90.1864 272.493L95.6358 275.624ZM119.177 290.686L113.728 287.565C113.608 287.504 113.476 287.472 113.342 287.472C113.207 287.472 113.075 287.504 112.956 287.565L103.101 293.245C102.883 293.372 102.874 293.571 103.101 293.698L108.505 296.82C108.627 296.878 108.761 296.908 108.896 296.908C109.031 296.908 109.164 296.878 109.286 296.82L119.141 291.14C119.349 291.013 119.349 290.813 119.141 290.686H119.177ZM123.355 297.192L117.905 294.07C117.786 294.01 117.653 293.978 117.519 293.978C117.385 293.978 117.253 294.01 117.133 294.07L110.776 297.7C110.558 297.827 110.558 298.027 110.776 298.154L116.225 301.275C116.347 301.333 116.481 301.363 116.616 301.363C116.751 301.363 116.884 301.333 117.006 301.275L123.309 297.645C123.359 297.632 123.403 297.604 123.435 297.563C123.466 297.523 123.484 297.473 123.485 297.422C123.486 297.371 123.471 297.321 123.44 297.279C123.41 297.237 123.367 297.207 123.318 297.192H123.355ZM151.319 243.512C151.441 243.57 151.574 243.6 151.709 243.6C151.844 243.6 151.978 243.57 152.1 243.512L157.222 240.554C157.44 240.426 157.44 240.227 157.222 240.109L151.773 236.988C151.651 236.93 151.518 236.899 151.382 236.899C151.247 236.899 151.114 236.93 150.992 236.988L145.87 239.946C145.652 240.073 145.652 240.272 145.87 240.399L151.319 243.512ZM136.342 252.15C136.464 252.208 136.598 252.238 136.733 252.238C136.868 252.238 137.001 252.208 137.123 252.15L142.246 249.192C142.292 249.175 142.331 249.145 142.36 249.105C142.388 249.066 142.403 249.018 142.403 248.969C142.403 248.921 142.388 248.873 142.36 248.833C142.331 248.794 142.292 248.763 142.246 248.747L136.796 245.626C136.676 245.563 136.542 245.53 136.406 245.53C136.27 245.53 136.136 245.563 136.015 245.626L130.902 248.62C130.684 248.747 130.684 248.947 130.902 249.074L136.342 252.15ZM103.092 271.304C103.214 271.362 103.348 271.393 103.483 271.393C103.618 271.393 103.751 271.362 103.873 271.304L108.996 268.346C109.214 268.219 109.214 268.02 108.996 267.893L103.546 264.771C103.424 264.713 103.291 264.683 103.156 264.683C103.021 264.683 102.887 264.713 102.765 264.771L97.6429 267.729C97.597 267.746 97.5572 267.776 97.5291 267.816C97.5009 267.855 97.4858 267.903 97.4858 267.952C97.4858 268 97.5009 268.048 97.5291 268.088C97.5572 268.128 97.597 268.158 97.6429 268.174L103.092 271.304ZM143.79 247.831C143.912 247.889 144.045 247.919 144.18 247.919C144.315 247.919 144.449 247.889 144.571 247.831L149.693 244.873C149.911 244.755 149.92 244.546 149.693 244.428L144.244 241.307C144.122 241.249 143.988 241.218 143.853 241.218C143.718 241.218 143.585 241.249 143.463 241.307L138.34 244.265C138.122 244.392 138.113 244.591 138.34 244.718L143.79 247.831ZM128.813 256.469C128.935 256.527 129.069 256.557 129.204 256.557C129.339 256.557 129.472 256.527 129.594 256.469L134.717 253.511C134.935 253.393 134.944 253.184 134.717 253.066L129.267 249.945C129.145 249.887 129.012 249.857 128.877 249.857C128.742 249.857 128.608 249.887 128.486 249.945L123.364 252.894C123.146 253.021 123.137 253.22 123.364 253.348L128.813 256.469ZM127.215 297.618C127.094 297.555 126.96 297.523 126.824 297.523C126.688 297.523 126.554 297.555 126.434 297.618L118.55 302.155C118.332 302.282 118.323 302.491 118.55 302.609L123.954 305.73C124.076 305.788 124.21 305.818 124.345 305.818C124.48 305.818 124.613 305.788 124.735 305.73L132.619 301.193C132.837 301.066 132.846 300.867 132.619 300.749L127.215 297.618ZM118.069 262.666C118.191 262.724 118.324 262.754 118.459 262.754C118.594 262.754 118.728 262.724 118.85 262.666L123.972 259.717C124.19 259.59 124.19 259.391 123.972 259.264L118.523 256.142C118.401 256.084 118.268 256.054 118.132 256.054C117.997 256.054 117.864 256.084 117.742 256.142L112.62 259.1C112.574 259.117 112.534 259.147 112.506 259.187C112.478 259.226 112.462 259.274 112.462 259.323C112.462 259.371 112.478 259.419 112.506 259.459C112.534 259.498 112.574 259.529 112.62 259.545L118.069 262.666ZM110.576 266.985C110.697 267.048 110.831 267.081 110.967 267.081C111.103 267.081 111.237 267.048 111.357 266.985L116.479 264.036C116.697 263.909 116.707 263.71 116.479 263.583L111.085 260.416C110.963 260.358 110.829 260.328 110.694 260.328C110.559 260.328 110.426 260.358 110.304 260.416L105.181 263.374C104.963 263.492 104.954 263.701 105.181 263.819L110.576 266.985ZM265.955 217.588C265.833 217.53 265.699 217.5 265.564 217.5C265.429 217.5 265.296 217.53 265.174 217.588L252.558 224.847C252.34 224.974 252.34 225.174 252.558 225.301L258.008 228.422C258.13 228.48 258.263 228.51 258.398 228.51C258.533 228.51 258.667 228.48 258.789 228.422L271.395 221.163C271.613 221.045 271.622 220.836 271.395 220.718L265.955 217.588ZM249.398 227.143C249.277 227.08 249.143 227.047 249.007 227.047C248.871 227.047 248.737 227.08 248.617 227.143L243.494 230.101C243.276 230.228 243.276 230.427 243.494 230.545L248.944 233.667C249.066 233.725 249.199 233.755 249.334 233.755C249.469 233.755 249.603 233.725 249.725 233.667L254.847 230.709C255.065 230.582 255.065 230.382 254.847 230.255L249.398 227.143ZM148.14 283.318L153.262 280.36C153.48 280.233 153.489 280.033 153.262 279.906L147.859 276.794C147.738 276.731 147.604 276.698 147.468 276.698C147.332 276.698 147.198 276.731 147.077 276.794L141.955 279.752C141.737 279.879 141.728 280.079 141.955 280.206L147.359 283.318C147.48 283.381 147.614 283.414 147.75 283.414C147.886 283.414 148.019 283.381 148.14 283.318ZM234.421 235.781C234.301 235.718 234.167 235.685 234.031 235.685C233.895 235.685 233.761 235.718 233.64 235.781L228.518 238.739C228.3 238.866 228.3 239.065 228.518 239.183L233.967 242.305C234.088 242.368 234.222 242.4 234.358 242.4C234.494 242.4 234.628 242.368 234.748 242.305L239.88 239.347C239.929 239.333 239.972 239.303 240.003 239.262C240.034 239.221 240.051 239.171 240.051 239.12C240.051 239.069 240.034 239.019 240.003 238.978C239.972 238.937 239.929 238.907 239.88 238.893L234.421 235.781ZM273.475 213.269C273.356 213.206 273.223 213.173 273.089 213.173C272.954 213.173 272.822 213.206 272.703 213.269L267.571 216.218C267.522 216.232 267.478 216.262 267.448 216.303C267.417 216.343 267.4 216.393 267.4 216.445C267.4 216.496 267.417 216.546 267.448 216.587C267.478 216.628 267.522 216.657 267.571 216.671L272.975 219.793C273.097 219.851 273.231 219.881 273.366 219.881C273.501 219.881 273.634 219.851 273.756 219.793L278.824 216.862C278.87 216.846 278.91 216.816 278.938 216.776C278.966 216.736 278.981 216.688 278.981 216.64C278.981 216.591 278.966 216.543 278.938 216.504C278.91 216.464 278.87 216.434 278.824 216.417L273.475 213.269ZM286.371 212.071L273.239 204.495C273.119 204.434 272.987 204.402 272.853 204.402C272.718 204.402 272.586 204.434 272.467 204.495L267.335 207.453C267.117 207.58 267.117 207.779 267.335 207.906L280.468 215.483C280.59 215.541 280.723 215.571 280.858 215.571C280.994 215.571 281.127 215.541 281.249 215.483L286.381 212.525C286.429 212.506 286.47 212.473 286.498 212.428C286.525 212.384 286.537 212.332 286.532 212.281C286.527 212.229 286.505 212.18 286.469 212.142C286.434 212.104 286.386 212.079 286.335 212.071H286.371ZM206.448 251.923C206.327 251.86 206.193 251.827 206.057 251.827C205.921 251.827 205.787 251.86 205.667 251.923L199.355 255.552C199.305 255.567 199.262 255.596 199.231 255.637C199.2 255.678 199.183 255.728 199.183 255.779C199.183 255.831 199.2 255.88 199.231 255.921C199.262 255.962 199.305 255.992 199.355 256.006L204.759 259.118C204.879 259.181 205.013 259.214 205.149 259.214C205.285 259.214 205.419 259.181 205.54 259.118L211.843 255.489C212.061 255.362 212.07 255.162 211.843 255.035L206.448 251.923ZM225.366 241.034C225.244 240.976 225.111 240.946 224.976 240.946C224.841 240.946 224.707 240.976 224.585 241.034L216.702 245.571C216.656 245.588 216.616 245.618 216.588 245.658C216.56 245.697 216.545 245.745 216.545 245.794C216.545 245.842 216.56 245.89 216.588 245.93C216.616 245.969 216.656 246 216.702 246.016L222.151 249.137C222.271 249.198 222.403 249.229 222.537 249.229C222.671 249.229 222.803 249.198 222.923 249.137L230.806 244.6C231.024 244.473 231.033 244.274 230.806 244.156L225.366 241.034ZM189.092 261.922C188.971 261.859 188.837 261.827 188.701 261.827C188.565 261.827 188.431 261.859 188.311 261.922L146.142 286.249C145.924 286.367 145.915 286.576 146.142 286.693L151.546 289.815C151.668 289.873 151.801 289.903 151.936 289.903C152.072 289.903 152.205 289.873 152.327 289.815L194.505 265.488C194.551 265.472 194.591 265.442 194.619 265.402C194.647 265.362 194.662 265.315 194.662 265.266C194.662 265.217 194.647 265.17 194.619 265.13C194.591 265.09 194.551 265.06 194.505 265.044L189.092 261.922ZM144.589 287.61C144.467 287.552 144.334 287.522 144.198 287.522C144.063 287.522 143.93 287.552 143.808 287.61L137.505 291.239C137.287 291.366 137.287 291.566 137.505 291.684L142.954 294.805C143.075 294.868 143.209 294.901 143.345 294.901C143.481 294.901 143.615 294.868 143.735 294.805L150.093 291.176C150.311 291.049 150.311 290.849 150.093 290.722L144.589 287.61ZM197.802 256.923C197.681 256.86 197.547 256.827 197.411 256.827C197.275 256.827 197.141 256.86 197.021 256.923L190.717 260.552C190.5 260.679 190.49 260.879 190.717 261.006L196.121 264.127C196.243 264.185 196.377 264.215 196.512 264.215C196.647 264.215 196.78 264.185 196.902 264.127L203.215 260.498C203.433 260.371 203.433 260.171 203.215 260.053L197.802 256.923ZM135.915 292.619C135.796 292.556 135.664 292.523 135.529 292.523C135.395 292.523 135.262 292.556 135.143 292.619L128.831 296.248C128.613 296.375 128.613 296.575 128.831 296.702L134.281 299.814C134.401 299.877 134.535 299.91 134.671 299.91C134.807 299.91 134.941 299.877 135.062 299.814L141.365 296.185C141.583 296.058 141.583 295.858 141.365 295.731L135.915 292.619ZM215.149 246.914C215.027 246.856 214.893 246.826 214.758 246.826C214.623 246.826 214.49 246.856 214.368 246.914L208.01 250.544C207.792 250.671 207.792 250.87 208.01 250.988L213.459 254.11C213.581 254.168 213.715 254.198 213.85 254.198C213.985 254.198 214.118 254.168 214.24 254.11L220.543 250.48C220.761 250.353 220.761 250.154 220.543 250.027L215.149 246.914ZM241.95 231.489C241.83 231.426 241.696 231.393 241.56 231.393C241.424 231.393 241.29 231.426 241.169 231.489L236.038 234.447C235.829 234.574 235.82 234.774 236.038 234.892L241.442 238.013C241.564 238.071 241.697 238.101 241.832 238.101C241.967 238.101 242.101 238.071 242.223 238.013L247.309 235.009C247.527 234.882 247.527 234.683 247.309 234.556L241.95 231.489ZM258.544 219.693L263.666 216.735C263.712 216.719 263.752 216.689 263.78 216.649C263.808 216.609 263.823 216.561 263.823 216.513C263.823 216.464 263.808 216.416 263.78 216.377C263.752 216.337 263.712 216.307 263.666 216.29L258.217 213.169C258.096 213.106 257.962 213.073 257.826 213.073C257.69 213.073 257.556 213.106 257.435 213.169L252.313 216.118C252.095 216.245 252.095 216.445 252.313 216.572L257.762 219.693C257.882 219.74 258.01 219.761 258.139 219.755C258.267 219.749 258.393 219.715 258.507 219.657L258.544 219.693ZM226.538 220.328L231.66 217.379C231.878 217.252 231.878 217.053 231.66 216.926L226.211 213.804C226.089 213.746 225.955 213.716 225.82 213.716C225.685 213.716 225.552 213.746 225.43 213.804L220.307 216.753C220.089 216.88 220.089 217.08 220.307 217.207L225.757 220.328C225.876 220.375 226.005 220.396 226.133 220.39C226.261 220.384 226.387 220.35 226.501 220.292L226.538 220.328ZM208.092 248.792L223.068 240.154C223.286 240.027 223.286 239.828 223.068 239.71L217.619 236.588C217.498 236.525 217.364 236.493 217.228 236.493C217.093 236.493 216.959 236.525 216.838 236.588L201.861 245.227C201.643 245.354 201.643 245.562 201.861 245.68L207.311 248.802C207.431 248.847 207.56 248.867 207.688 248.859C207.816 248.851 207.942 248.816 208.055 248.756L208.092 248.792ZM250.27 224.021C250.392 224.079 250.525 224.109 250.66 224.109C250.795 224.109 250.929 224.079 251.051 224.021L256.173 221.063C256.391 220.945 256.4 220.737 256.173 220.619L250.769 217.497C250.647 217.439 250.514 217.409 250.379 217.409C250.243 217.409 250.11 217.439 249.988 217.497L244.866 220.446C244.648 220.573 244.639 220.773 244.866 220.9L250.27 224.021ZM243.331 219.557L248.453 216.599C248.499 216.583 248.539 216.552 248.567 216.513C248.595 216.473 248.61 216.425 248.61 216.377C248.61 216.328 248.595 216.28 248.567 216.241C248.539 216.201 248.499 216.171 248.453 216.154L243.004 213.033C242.882 212.975 242.748 212.945 242.613 212.945C242.478 212.945 242.345 212.975 242.223 213.033L237.109 215.955C236.892 216.082 236.892 216.281 237.109 216.408L242.559 219.53C242.675 219.58 242.801 219.604 242.928 219.603C243.054 219.601 243.179 219.573 243.294 219.521L243.331 219.557ZM200.644 253.13L205.767 250.181C205.985 250.054 205.994 249.854 205.767 249.727L200.363 246.606C200.241 246.548 200.107 246.518 199.972 246.518C199.837 246.518 199.704 246.548 199.582 246.606L194.359 249.527C194.141 249.645 194.132 249.854 194.359 249.972L199.763 253.093C199.889 253.152 200.027 253.18 200.165 253.177C200.304 253.174 200.44 253.139 200.563 253.075L200.644 253.13ZM233.758 233.585C233.88 233.643 234.014 233.673 234.149 233.673C234.284 233.673 234.417 233.643 234.539 233.585L239.671 230.627C239.72 230.613 239.763 230.583 239.794 230.542C239.825 230.501 239.842 230.451 239.842 230.4C239.842 230.349 239.825 230.299 239.794 230.258C239.763 230.217 239.72 230.187 239.671 230.173L234.267 227.052C234.145 226.994 234.011 226.964 233.876 226.964C233.741 226.964 233.608 226.994 233.486 227.052L228.363 230.01C228.145 230.137 228.145 230.337 228.363 230.454L233.758 233.585ZM163.117 274.68L168.239 271.722C168.457 271.595 168.466 271.395 168.239 271.268L162.835 268.156C162.715 268.093 162.581 268.06 162.445 268.06C162.309 268.06 162.175 268.093 162.054 268.156L156.932 271.114C156.714 271.241 156.705 271.441 156.932 271.558L162.381 274.68C162.496 274.735 162.621 274.764 162.749 274.764C162.876 274.764 163.002 274.735 163.117 274.68ZM170.609 270.361L175.732 267.403C175.95 267.276 175.95 267.076 175.732 266.949L170.283 263.828C170.163 263.767 170.031 263.736 169.897 263.736C169.762 263.736 169.63 263.767 169.511 263.828L164.388 266.768C164.17 266.895 164.17 267.094 164.388 267.212L169.837 270.334C169.952 270.405 170.081 270.448 170.216 270.459C170.35 270.47 170.485 270.449 170.609 270.397V270.361ZM155.633 278.999L160.755 276.041C160.973 275.914 160.973 275.714 160.755 275.587L155.306 272.475C155.185 272.412 155.051 272.379 154.915 272.379C154.779 272.379 154.645 272.412 154.525 272.475L149.402 275.433C149.185 275.56 149.185 275.76 149.402 275.887L154.852 278.999C154.972 279.062 155.106 279.095 155.242 279.095C155.378 279.095 155.512 279.062 155.633 278.999ZM185.604 261.759L190.727 258.801C190.945 258.674 190.954 258.474 190.727 258.347L185.277 255.226C185.155 255.168 185.022 255.138 184.887 255.138C184.752 255.138 184.618 255.168 184.496 255.226L179.365 258.184C179.319 258.2 179.279 258.23 179.251 258.27C179.223 258.31 179.208 258.357 179.208 258.406C179.208 258.455 179.223 258.502 179.251 258.542C179.279 258.582 179.319 258.612 179.365 258.628L184.769 261.75C184.898 261.809 185.039 261.838 185.181 261.833C185.323 261.829 185.461 261.791 185.586 261.723L185.604 261.759ZM178.111 266.078L183.243 263.12C183.292 263.106 183.336 263.076 183.366 263.035C183.397 262.994 183.414 262.944 183.414 262.893C183.414 262.842 183.397 262.792 183.366 262.751C183.336 262.71 183.292 262.68 183.243 262.666L177.793 259.545C177.672 259.487 177.538 259.457 177.403 259.457C177.268 259.457 177.134 259.487 177.012 259.545L171.89 262.503C171.672 262.63 171.672 262.83 171.89 262.948L177.339 266.069C177.459 266.122 177.589 266.148 177.719 266.143C177.85 266.138 177.978 266.104 178.093 266.042L178.111 266.078ZM193.097 257.431L198.219 254.482C198.437 254.355 198.437 254.155 198.219 254.028L192.77 250.907C192.648 250.849 192.515 250.818 192.38 250.818C192.244 250.818 192.111 250.849 191.989 250.907L186.867 253.865C186.821 253.881 186.781 253.911 186.753 253.951C186.725 253.991 186.71 254.038 186.71 254.087C186.71 254.136 186.725 254.183 186.753 254.223C186.781 254.263 186.821 254.293 186.867 254.309L192.316 257.431C192.438 257.48 192.57 257.503 192.701 257.497C192.833 257.49 192.962 257.455 193.079 257.394L193.097 257.431ZM230.697 195.457C230.819 195.515 230.953 195.545 231.088 195.545C231.223 195.545 231.356 195.515 231.478 195.457L236.601 192.499C236.819 192.372 236.819 192.172 236.601 192.045L235.157 191.22C235.036 191.157 234.902 191.124 234.766 191.124C234.63 191.124 234.496 191.157 234.376 191.22L229.244 194.178C229.026 194.305 229.026 194.504 229.244 194.631L230.697 195.457ZM193.66 219.112C193.782 219.17 193.916 219.2 194.051 219.2C194.186 219.2 194.319 219.17 194.441 219.112L199.564 216.163C199.782 216.036 199.782 215.837 199.564 215.71L194.114 212.588C193.992 212.53 193.859 212.5 193.724 212.5C193.589 212.5 193.455 212.53 193.333 212.588L188.211 215.537C187.993 215.664 187.993 215.864 188.211 215.991L193.66 219.112ZM208.637 210.474C208.759 210.532 208.892 210.562 209.027 210.562C209.162 210.562 209.296 210.532 209.418 210.474L214.54 207.516C214.586 207.5 214.626 207.47 214.654 207.43C214.682 207.39 214.697 207.342 214.697 207.294C214.697 207.245 214.682 207.198 214.654 207.158C214.626 207.118 214.586 207.088 214.54 207.071L209.091 203.95C208.97 203.887 208.836 203.854 208.7 203.854C208.564 203.854 208.43 203.887 208.31 203.95L203.215 206.881C202.997 207.008 202.997 207.208 203.215 207.335L208.637 210.474ZM184.514 224.384C184.636 224.442 184.77 224.472 184.905 224.472C185.04 224.472 185.173 224.442 185.295 224.384L190.418 221.426C190.636 221.299 190.636 221.099 190.418 220.972L184.968 217.851C184.846 217.793 184.713 217.763 184.578 217.763C184.443 217.763 184.309 217.793 184.187 217.851L179.065 220.809C178.847 220.936 178.847 221.136 179.065 221.254L184.514 224.384ZM201.144 214.793C201.266 214.851 201.399 214.881 201.534 214.881C201.67 214.881 201.803 214.851 201.925 214.793L207.047 211.835C207.265 211.717 207.274 211.509 207.047 211.391L201.598 208.269C201.476 208.211 201.343 208.181 201.207 208.181C201.072 208.181 200.939 208.211 200.817 208.269L195.695 211.218C195.477 211.345 195.467 211.545 195.695 211.672L201.144 214.793ZM169.538 233.022C169.658 233.085 169.792 233.118 169.928 233.118C170.064 233.118 170.198 233.085 170.319 233.022L175.441 230.064C175.659 229.937 175.659 229.738 175.441 229.611L169.992 226.498C169.871 226.436 169.737 226.403 169.601 226.403C169.465 226.403 169.331 226.436 169.211 226.498L164.088 229.456C163.87 229.583 163.87 229.783 164.088 229.901L169.538 233.022ZM177.022 228.703C177.144 228.761 177.277 228.791 177.412 228.791C177.547 228.791 177.681 228.761 177.803 228.703L182.925 225.745C183.143 225.618 183.152 225.419 182.925 225.292L177.476 222.179C177.355 222.116 177.221 222.084 177.085 222.084C176.949 222.084 176.815 222.116 176.695 222.179L171.654 225.101C171.436 225.228 171.427 225.428 171.654 225.546L177.022 228.703ZM215.721 204.095C215.84 204.158 215.972 204.191 216.107 204.191C216.241 204.191 216.374 204.158 216.493 204.095L221.624 201.137C221.842 201.01 221.842 200.811 221.624 200.684L220.18 199.858C220.058 199.8 219.925 199.77 219.79 199.77C219.655 199.77 219.521 199.8 219.399 199.858L214.277 202.816C214.059 202.943 214.059 203.143 214.277 203.27L215.721 204.095ZM238.181 191.138C238.303 191.196 238.437 191.226 238.572 191.226C238.707 191.226 238.84 191.196 238.962 191.138L244.085 188.18C244.303 188.053 244.312 187.853 244.085 187.726L242.65 186.901C242.529 186.838 242.395 186.805 242.259 186.805C242.123 186.805 241.989 186.838 241.869 186.901L236.746 189.859C236.528 189.986 236.519 190.185 236.746 190.312L238.181 191.138ZM249.543 197.689C249.664 197.752 249.798 197.785 249.934 197.785C250.07 197.785 250.204 197.752 250.324 197.689L255.446 194.731C255.664 194.604 255.674 194.405 255.446 194.277L250.043 191.165C249.922 191.102 249.788 191.07 249.652 191.07C249.516 191.07 249.382 191.102 249.261 191.165L244.13 194.123C243.921 194.25 243.912 194.45 244.13 194.568L249.543 197.689ZM266.009 215.374L271.131 212.416C271.349 212.298 271.359 212.089 271.131 211.971L265.728 208.85C265.606 208.792 265.472 208.762 265.337 208.762C265.202 208.762 265.068 208.792 264.946 208.85L259.824 211.808C259.606 211.935 259.597 212.135 259.824 212.262L265.228 215.383C265.351 215.431 265.483 215.452 265.614 215.444C265.746 215.437 265.875 215.4 265.991 215.338L266.009 215.374ZM223.205 199.776C223.325 199.839 223.459 199.872 223.595 199.872C223.731 199.872 223.865 199.839 223.986 199.776L229.108 196.818C229.326 196.691 229.335 196.491 229.108 196.364L227.673 195.539C227.552 195.476 227.418 195.443 227.283 195.443C227.147 195.443 227.013 195.476 226.892 195.539L221.761 198.497C221.552 198.624 221.543 198.823 221.761 198.95L223.205 199.776ZM162.045 237.341C162.166 237.404 162.299 237.437 162.435 237.437C162.571 237.437 162.705 237.404 162.826 237.341L167.948 234.383C168.166 234.256 168.175 234.057 167.948 233.93L162.572 230.781C162.451 230.718 162.317 230.686 162.181 230.686C162.045 230.686 161.911 230.718 161.791 230.781L156.668 233.739C156.45 233.866 156.441 234.066 156.668 234.193L162.045 237.341Z" fill="#455A64"/>
<path d="M189.455 281.286L235.611 254.663C236.391 254.269 237.253 254.064 238.127 254.064C239.001 254.064 239.862 254.269 240.642 254.663L267.108 269.925C268.498 270.733 268.498 272.03 267.108 272.829L220.961 299.433C220.181 299.831 219.317 300.039 218.441 300.039C217.565 300.039 216.701 299.831 215.921 299.433L189.455 284.198C188.066 283.4 188.066 282.093 189.455 281.286Z" fill="#263238"/>
<path d="M181.644 79.4676C167.222 92.4158 154.761 91.7352 146.968 85.7375C139.185 100.718 126.733 115.762 112.302 119.465L104.064 141.695C104.064 141.695 108.478 146.777 108.478 158.935C108.439 164.031 107.752 169.102 106.435 174.025C104.936 180.023 103.001 186.229 103.001 196.591C103.001 203.623 103.91 210.456 107.488 216.671C109.644 220.435 112.755 223.565 116.507 225.745L103.982 218.486C100.018 216.306 96.7242 213.088 94.4551 209.177C90.8948 202.952 89.9685 196.129 89.9685 189.096C89.9685 178.734 91.903 172.528 93.4106 166.521C94.7247 161.6 95.4113 156.533 95.4541 151.44C95.4541 139.282 91.0402 134.2 91.0402 134.2L99.2686 111.97C113.7 108.268 126.161 93.2233 133.935 78.2426C141.728 84.2403 154.189 84.9209 168.62 71.9727L181.644 79.4676Z" fill="url(#paint3_linear_11_793)"/>
<path opacity="0.8" d="M138.54 80.8831L133.999 78.2427C135.392 79.3154 136.918 80.203 138.54 80.8831Z" fill="white"/>
<path opacity="0.85" d="M168.657 71.9727C156.777 82.6252 146.224 84.0498 138.54 80.8831L146.968 85.7375C154.761 91.7352 167.222 92.4158 181.644 79.4676L168.657 71.9727Z" fill="white"/>
<path opacity="0.65" d="M133.972 78.2427C126.197 93.2234 113.737 108.268 99.305 111.97L112.302 119.465C126.733 115.763 139.185 100.718 146.968 85.7376L133.972 78.2427Z" fill="white"/>
<path opacity="0.55" d="M99.305 111.97L91.0765 134.2L104.064 141.695L112.302 119.465L99.305 111.97Z" fill="white"/>
<path opacity="0.4" d="M107.488 216.671C103.928 210.456 103.001 203.623 103.001 196.591C103.001 186.229 104.936 180.023 106.435 174.025C107.752 169.102 108.439 164.031 108.478 158.935C108.478 146.776 104.064 141.695 104.064 141.695L91.0765 134.2C91.0765 134.2 95.4904 139.281 95.4904 151.44C95.4476 156.533 94.761 161.6 93.4469 166.521C91.9393 172.528 90.0048 178.734 90.0048 189.096C90.0048 196.128 90.913 202.952 94.4914 209.176C96.7519 213.079 100.033 216.294 103.982 218.477L116.507 225.736C112.756 223.558 109.645 220.432 107.488 216.671Z" fill="white"/>
<path opacity="0.05" d="M107.488 216.671C103.928 210.456 103.001 203.623 103.001 196.591C103.001 186.229 104.936 180.023 106.435 174.025C107.752 169.102 108.439 164.031 108.478 158.935C108.478 146.776 104.064 141.695 104.064 141.695L91.0765 134.2C91.0765 134.2 95.4904 139.281 95.4904 151.44C95.4476 156.533 94.761 161.6 93.4469 166.521C91.9393 172.528 90.0048 178.734 90.0048 189.096C90.0048 196.128 90.913 202.952 94.4914 209.176C96.7519 213.079 100.033 216.294 103.982 218.477L116.507 225.736C112.756 223.558 109.645 220.432 107.488 216.671Z" fill="black"/>
<path d="M146.978 231.897C125.425 232.133 113.083 226.453 107.488 216.671C103.928 210.456 103.001 203.623 103.001 196.591C103.001 186.229 104.936 180.023 106.435 174.016C107.749 169.098 108.435 164.034 108.478 158.944C108.478 146.776 104.064 141.704 104.064 141.704L112.302 119.474C126.724 115.771 139.185 100.727 146.978 85.7465C154.761 91.7443 167.222 92.4157 181.644 79.4766L189.882 92.1798C187.058 99.2945 185.562 106.866 185.468 114.519C185.39 118.841 186.082 123.143 187.511 127.223C189.019 131.487 190.945 135.471 190.945 145.833C190.921 154.446 189.403 162.99 186.458 171.085C180.863 187.363 168.521 207.28 146.978 231.897Z" fill="url(#paint4_linear_11_793)"/>
<path opacity="0.75" d="M146.978 231.897C125.425 232.133 113.083 226.453 107.488 216.671C103.928 210.456 103.001 203.623 103.001 196.591C103.001 186.229 104.936 180.023 106.435 174.016C107.749 169.098 108.435 164.034 108.478 158.944C108.478 146.776 104.064 141.704 104.064 141.704L112.302 119.474C126.724 115.771 139.185 100.727 146.978 85.7465C154.761 91.7443 167.222 92.4157 181.644 79.4766L189.882 92.1798C187.058 99.2945 185.562 106.866 185.468 114.519C185.39 118.841 186.082 123.143 187.511 127.223C189.019 131.487 190.945 135.471 190.945 145.833C190.921 154.446 189.403 162.99 186.458 171.085C180.863 187.363 168.521 207.28 146.978 231.897Z" fill="white"/>
<path opacity="0.75" d="M144.407 226.308C127.714 226.108 116.924 221.934 112.329 213.895C109.74 209.358 108.578 204.032 108.578 196.591C108.577 190.104 109.494 183.649 111.303 177.418C111.475 176.729 111.657 176.048 111.82 175.377C113.256 170.016 114.001 164.494 114.036 158.944C114.036 150.079 111.911 144.281 110.222 141.069L116.579 124.01C132.019 118.648 143.181 103.413 149.094 93.4229C152.278 94.7756 155.705 95.4671 159.166 95.4554C166.15 95.4554 173.243 92.8603 180.318 87.7336L183.633 92.8694C181.21 99.8414 179.925 107.158 179.828 114.537C179.747 119.499 180.547 124.436 182.189 129.119C182.362 129.609 182.544 130.099 182.725 130.589C184.051 134.218 185.314 137.639 185.314 145.869C185.283 153.861 183.87 161.787 181.136 169.297C175.659 185.285 163.298 204.458 144.407 226.308Z" fill="url(#paint5_linear_11_793)"/>
<path opacity="0.4" d="M144.407 226.308C127.714 226.108 116.924 221.934 112.329 213.895C109.74 209.358 108.578 204.032 108.578 196.591C108.577 190.104 109.494 183.649 111.303 177.418C111.475 176.729 111.657 176.048 111.82 175.377C113.256 170.016 114.001 164.494 114.036 158.944C114.036 150.079 111.911 144.281 110.222 141.069L116.579 124.01C132.019 118.648 143.181 103.413 149.094 93.4229C152.278 94.7756 155.705 95.4671 159.166 95.4554C166.15 95.4554 173.243 92.8603 180.318 87.7336L183.633 92.8694C181.21 99.8414 179.925 107.158 179.828 114.537C179.747 119.499 180.547 124.436 182.189 129.119C182.362 129.609 182.544 130.099 182.725 130.589C184.051 134.218 185.314 137.639 185.314 145.869C185.283 153.861 183.87 161.787 181.136 169.297C175.659 185.285 163.298 204.458 144.407 226.308Z" fill="white"/>
<path opacity="0.15" d="M144.407 226.308C127.714 226.108 116.924 221.934 112.329 213.895C109.74 209.358 108.578 204.032 108.578 196.591C108.577 190.104 109.494 183.649 111.303 177.418C111.475 176.729 111.657 176.048 111.82 175.377C113.256 170.016 114.001 164.494 114.036 158.944C114.036 150.079 111.911 144.281 110.222 141.069L116.579 124.01C132.019 118.648 143.181 103.413 149.094 93.4229C152.278 94.7756 155.705 95.4671 159.166 95.4554C166.15 95.4554 173.243 92.8603 180.318 87.7336L183.633 92.8694C181.21 99.8414 179.925 107.158 179.828 114.537C179.747 119.499 180.547 124.436 182.189 129.119C182.362 129.609 182.544 130.099 182.725 130.589C184.051 134.218 185.314 137.639 185.314 145.869C185.283 153.861 183.87 161.787 181.136 169.297C175.659 185.285 163.298 204.458 144.407 226.308Z" fill="black"/>
<path opacity="0.8" d="M116.171 218.522C121.856 223.531 131.311 226.153 144.425 226.308L136.052 221.544C129.303 221.635 122.586 220.614 116.171 218.522Z" fill="white"/>
<path opacity="0.15" d="M179.292 90.356L183.642 92.8694L180.327 87.7336L178.438 89.0312L179.292 90.356Z" fill="black"/>
<path d="M177.866 126.606C176.228 121.921 175.429 116.985 175.505 112.024C175.593 104.646 176.869 97.3296 179.283 90.356L178.438 89.0312C171.99 93.2959 165.532 95.4554 159.175 95.4554C155.717 95.4787 152.29 94.7995 149.103 93.4592C143.19 103.44 132.028 118.684 116.588 124.047L110.231 141.105C111.92 144.317 114.045 150.116 114.045 158.981C114.01 164.53 113.265 170.052 111.829 175.413C111.666 176.085 111.484 176.765 111.312 177.455C109.503 183.685 108.586 190.14 108.587 196.628C108.587 204.068 109.75 209.403 112.338 213.931C113.705 216.271 115.565 218.286 117.787 219.838C123.364 222.379 130.793 223.71 140.075 223.831C158.957 201.981 171.309 182.808 176.822 166.82C179.556 159.31 180.969 151.384 181 143.392C181 135.162 179.746 131.741 178.411 128.112L177.866 126.606Z" fill="#455A64"/>
<path d="M116.588 124.01L110.231 141.069C111.92 144.281 114.045 150.079 114.045 158.944C114.01 164.494 113.265 170.016 111.829 175.377C111.666 176.048 111.484 176.729 111.312 177.418C109.503 183.649 108.586 190.104 108.587 196.591C108.587 204.032 109.75 209.367 112.338 213.895C113.705 216.234 115.565 218.25 117.787 219.802C123.364 222.343 130.793 223.673 140.075 223.794V160.931L149.112 158.209V93.4592C146.443 97.9962 143.422 102.317 140.075 106.38C134.017 113.621 126.125 120.68 116.588 124.01Z" fill="#37474F"/>
<path d="M161.881 137.694C161.785 137.518 161.669 137.354 161.536 137.204V137.149C161.271 136.862 160.965 136.614 160.628 136.414L157.604 134.672C157.057 134.366 156.47 134.14 155.86 134.001C155.495 133.919 155.125 133.861 154.752 133.828V124.881C154.752 120.39 153.054 116.842 150.093 115.127C147.132 113.412 143.735 113.721 140.257 115.753C133.79 119.483 128.731 128.584 128.731 136.469V146.994L122.61 150.506C122.432 150.611 122.262 150.729 122.101 150.86L121.938 150.987C121.691 151.186 121.489 151.435 121.347 151.718C121.204 152.002 121.124 152.312 121.111 152.629V188.86C121.115 189.017 121.136 189.172 121.175 189.323C121.369 189.931 121.771 190.451 122.31 190.793L122.646 191.011L124.127 191.855L125.68 192.762C126.287 193.096 126.943 193.331 127.623 193.461C129.482 193.871 131.425 193.621 133.118 192.753L160.555 176.937C160.981 176.749 161.349 176.45 161.62 176.072C161.891 175.694 162.057 175.25 162.099 174.787V138.565C162.096 138.261 162.022 137.963 161.881 137.694ZM134.589 136.469C134.589 130.698 138.513 123.566 143.154 120.889C144.734 119.982 146.16 119.746 147.059 120.263C148.113 120.88 148.749 122.604 148.749 124.881V135.443L140.938 139.98L134.58 143.61L134.589 136.469Z" fill="#263238"/>
<path d="M165.296 140.162C165.254 139.698 165.088 139.255 164.817 138.877C164.546 138.499 164.178 138.2 163.752 138.011L160.755 136.269C159.604 135.681 158.329 135.375 157.036 135.375C155.743 135.375 154.468 135.681 153.317 136.269L125.861 152.103C125.436 152.291 125.068 152.59 124.797 152.968C124.525 153.346 124.36 153.79 124.317 154.253V190.485C124.36 190.948 124.525 191.391 124.797 191.77C125.068 192.148 125.436 192.446 125.861 192.635L128.886 194.377C130.037 194.965 131.312 195.272 132.605 195.272C133.898 195.272 135.173 194.965 136.324 194.377L163.78 178.544C164.206 178.356 164.575 178.058 164.847 177.68C165.118 177.301 165.283 176.857 165.324 176.393V140.162H165.296Z" fill="url(#paint6_linear_11_793)"/>
<path opacity="0.4" d="M128.859 158.146L125.834 156.395C123.782 155.215 123.782 153.291 125.834 152.103L153.29 136.269C154.441 135.681 155.716 135.375 157.009 135.375C158.302 135.375 159.577 135.681 160.728 136.269L163.752 138.011C165.814 139.2 165.814 141.123 163.752 142.303L136.297 158.146C135.143 158.727 133.87 159.03 132.578 159.03C131.286 159.03 130.012 158.727 128.859 158.146Z" fill="white"/>
<path opacity="0.1" d="M132.6 159.026V195.266C131.305 195.286 130.026 194.973 128.886 194.359L125.852 192.608C125.425 192.419 125.056 192.119 124.784 191.739C124.513 191.359 124.348 190.913 124.308 190.448V154.253C124.35 154.716 124.515 155.159 124.786 155.535C125.058 155.912 125.426 156.209 125.852 156.395L128.886 158.146C130.029 158.75 131.307 159.053 132.6 159.026Z" fill="black"/>
<path d="M152.581 176.938L146.024 180.721L147.041 168.871C146.26 168.454 145.761 167.437 145.761 165.977C145.761 163.363 147.35 160.333 149.303 159.208C151.255 158.082 152.854 159.271 152.854 161.93C152.815 163.475 152.37 164.983 151.564 166.303L152.581 176.938Z" fill="#455A64"/>
<path d="M152.563 176.956L146.623 173.526L146.006 180.74L152.563 176.956Z" fill="#37474F"/>
<path d="M149.284 159.226C147.859 160.186 146.795 161.594 146.26 163.227L151.546 166.276C152.352 164.956 152.796 163.448 152.836 161.902C152.836 159.289 151.246 158.091 149.284 159.226Z" fill="#37474F"/>
<path d="M157.876 140.969V126.451C157.876 121.96 156.178 118.412 153.217 116.706C150.392 115.073 146.905 115.291 143.381 117.323C136.924 121.052 131.856 130.153 131.856 138.038V152.602C131.883 152.866 131.982 153.119 132.142 153.331C132.302 153.544 132.517 153.709 132.764 153.809C133.413 154.14 134.132 154.313 134.862 154.313C135.591 154.313 136.31 154.14 136.96 153.809C137.206 153.708 137.421 153.543 137.581 153.331C137.741 153.118 137.84 152.866 137.868 152.602V138.066C137.868 132.295 141.792 125.163 146.433 122.486C148.013 121.579 149.439 121.343 150.338 121.86C151.391 122.477 152.027 124.201 152.027 126.478V140.996C152.057 141.259 152.157 141.509 152.317 141.72C152.476 141.931 152.69 142.095 152.935 142.194C153.585 142.521 154.302 142.691 155.029 142.691C155.756 142.691 156.473 142.521 157.122 142.194C157.368 142.095 157.581 141.931 157.741 141.72C157.901 141.509 158.001 141.259 158.031 140.996L157.876 140.969Z" fill="#E0E0E0"/>
<path d="M193.17 204.649L197.166 202.344L198.746 200.429L194.75 202.734L193.17 204.649Z" fill="url(#paint7_linear_11_793)"/>
<path opacity="0.4" d="M193.17 204.649L197.166 202.344L198.746 200.429L194.75 202.734L193.17 204.649Z" fill="black"/>
<path d="M204.041 210.928L208.037 208.623L211.38 205.665L207.383 207.97L204.041 210.928Z" fill="url(#paint8_linear_11_793)"/>
<path opacity="0.4" d="M204.041 210.928L208.037 208.623L211.38 205.665L207.383 207.97L204.041 210.928Z" fill="black"/>
<path d="M238.027 218.895C238.962 220.157 239.534 221.65 239.68 223.214C238.737 221.956 238.164 220.46 238.027 218.895ZM247.318 219.013C245.974 209.866 241.051 200.82 235.184 197.435C232.378 195.811 229.735 195.747 227.682 196.972L223.922 199.141C223.85 199.175 223.78 199.214 223.713 199.259C223.55 199.35 223.386 199.459 223.223 199.568C222.915 199.781 222.626 200.02 222.36 200.284L222.233 200.402C222.111 200.523 221.996 200.65 221.888 200.783C221.751 200.938 221.615 201.101 221.488 201.273C221.216 201.63 220.97 202.006 220.752 202.399C220.643 202.598 220.525 202.807 220.425 203.025L187.557 184.07L183.57 186.365V188.906L183.906 189.106L184.224 189.287V189.831L183.57 190.203V191.692L188.392 201.899L193.17 204.622L194.75 202.698L198.964 205.211L201.389 209.358L204.05 210.892L207.383 207.934L211.489 210.302L212.86 215.973L219.726 219.929C220.078 221.374 220.512 222.798 221.025 224.194C221.025 224.339 221.125 224.484 221.188 224.647C223.468 230.636 227.101 235.772 231.179 238.131C231.668 238.423 232.182 238.672 232.714 238.875C232.996 238.987 233.284 239.083 233.576 239.165C233.828 239.236 234.082 239.293 234.339 239.338C235.144 239.483 235.969 239.483 236.773 239.338L237.109 239.256C237.268 239.224 237.423 239.179 237.573 239.12L237.927 238.984C238.055 238.936 238.18 238.878 238.299 238.811L238.635 238.639L238.808 238.539L238.89 238.494L242.659 236.325C245.692 234.565 247.663 230.119 247.663 223.831C247.664 222.218 247.549 220.608 247.318 219.013Z" fill="url(#paint9_linear_11_793)"/>
<path d="M236.855 226.607C235.275 225.7 233.994 222.978 233.994 220.573C233.994 218.169 235.275 216.944 236.855 217.851C238.435 218.758 239.707 221.481 239.707 223.885C239.707 226.29 238.426 227.515 236.855 226.607ZM243.322 221.308C241.978 212.171 237.055 203.161 231.197 199.74C228.472 198.179 225.966 198.061 223.931 199.141C223.859 199.175 223.789 199.214 223.722 199.259C223.559 199.35 223.395 199.459 223.232 199.568C222.924 199.781 222.635 200.02 222.369 200.284L222.242 200.402C222.12 200.523 222.005 200.65 221.897 200.783C221.761 200.938 221.624 201.101 221.497 201.273C221.225 201.63 220.979 202.006 220.761 202.399C220.653 202.598 220.534 202.807 220.435 203.025C219.845 204.255 219.421 205.558 219.172 206.899L183.579 186.365V188.906L183.915 189.106L184.233 189.287V189.831L183.579 190.203V191.692L188.402 201.899L193.179 204.622L194.759 202.698L198.973 205.211L201.398 209.358L204.059 210.892L207.392 207.934L211.498 210.302L212.869 215.973L219.735 219.929C220.087 221.374 220.521 222.798 221.034 224.194C221.034 224.339 221.134 224.484 221.197 224.647C223.477 230.636 227.11 235.772 231.188 238.131C231.677 238.423 232.191 238.672 232.723 238.875C233.005 238.987 233.293 239.083 233.586 239.165C233.837 239.236 234.091 239.293 234.348 239.338C235.153 239.483 235.978 239.483 236.783 239.338L237.119 239.256C237.277 239.224 237.432 239.179 237.582 239.12L237.936 238.984C238.064 238.936 238.189 238.878 238.308 238.811L238.644 238.639L238.817 238.539L238.899 238.494C241.805 236.679 243.676 232.269 243.676 226.135C243.673 224.52 243.555 222.907 243.322 221.308Z" fill="url(#paint10_linear_11_793)"/>
<path opacity="0.4" d="M239.707 223.858C239.707 226.281 238.426 227.487 236.855 226.58C235.284 225.673 233.994 222.951 233.994 220.546C233.994 218.141 235.275 216.917 236.855 217.824C237.31 218.1 237.705 218.464 238.018 218.895C238.162 220.467 238.734 221.97 239.671 223.241C239.696 223.446 239.708 223.652 239.707 223.858Z" fill="black"/>
<path opacity="0.4" d="M247.681 223.858C247.681 230.146 245.71 234.592 242.677 236.352L238.908 238.521C241.814 236.706 243.685 232.296 243.685 226.163C243.68 224.538 243.559 222.916 243.322 221.308C241.978 212.171 237.055 203.161 231.197 199.74C228.472 198.179 225.966 198.061 223.931 199.141L227.691 196.972C229.78 195.747 232.387 195.811 235.193 197.435C241.06 200.82 245.983 209.866 247.327 219.012C247.562 220.617 247.68 222.236 247.681 223.858Z" fill="white"/>
<path d="M243.685 226.163C243.685 232.296 241.814 236.679 238.908 238.521L242.677 236.352C245.71 234.592 247.681 230.146 247.681 223.858C247.681 223.622 247.681 223.386 247.681 223.15L243.685 225.455C243.676 225.691 243.685 225.936 243.685 226.163Z" fill="url(#paint11_linear_11_793)"/>
<path opacity="0.1" d="M243.685 226.163C243.685 232.296 241.814 236.679 238.908 238.521L242.677 236.352C245.71 234.592 247.681 230.146 247.681 223.858C247.681 223.622 247.681 223.386 247.681 223.15L243.685 225.455C243.676 225.691 243.685 225.936 243.685 226.163Z" fill="black"/>
<path opacity="0.15" d="M219.299 209.522V210.819L183.57 190.204L184.224 189.832V189.287L219.299 209.522Z" fill="black"/>
<path opacity="0.15" d="M219.299 210.057V210.819L183.57 190.203L184.224 189.831V189.822L219.299 210.057Z" fill="black"/>
<path opacity="0.15" d="M236.367 235.832C241.35 234.304 243.07 225.516 240.209 216.203C237.348 206.889 230.99 200.578 226.008 202.105C221.026 203.633 219.306 212.421 222.166 221.734C225.027 231.048 231.385 237.359 236.367 235.832Z" stroke="black" stroke-width="0.73" stroke-miterlimit="10"/>
<path opacity="0.5" d="M220.425 203.025C219.836 204.255 219.412 205.558 219.163 206.899L183.57 186.365L187.557 184.07L220.425 203.025Z" fill="white"/>
<path d="M356.096 303.407C356.232 304.651 356.404 308.135 362.726 308.997C369.047 309.859 373.025 307.781 374.714 304.741C376.403 301.702 376.013 299.224 376.285 296.412C376.558 293.599 378.883 292.102 379.546 290.65C380.536 288.517 379.092 285.206 379.092 285.206L356.096 303.407Z" fill="#263238"/>
<path d="M309.967 293.508C309.821 294.018 309.783 294.553 309.853 295.079C309.923 295.605 310.101 296.111 310.376 296.566C311.79 297.686 313.419 298.505 315.162 298.973C316.905 299.441 318.726 299.548 320.511 299.288C324.369 298.769 328.044 297.331 331.229 295.096C333.675 293.461 336.57 292.627 339.512 292.709C342.545 292.61 344.77 291.929 345.006 291.131C345.406 289.733 345.406 288.844 344.743 288.889L309.967 293.508Z" fill="#263238"/>
<path d="M377.62 280.306C376.83 286.067 365.65 285.596 366.558 281.004L364.569 267.022L377.221 267.412L377.62 280.306Z" fill="#FFA8A7"/>
<path d="M356.55 300.531C357.113 299.497 358.739 298.009 359.456 297.065C363.239 292.245 365.52 286.42 366.013 280.315C366.013 279.979 366.086 279.317 366.422 279.117C366.758 278.917 367.103 279.199 367.467 279.353C368.092 279.618 368.753 279.789 369.428 279.861C371.663 280.106 374.142 279.571 374.705 279.652C375.268 279.734 375.268 281.059 375.232 282.511C376.031 282.012 376.294 281.013 377.048 280.424C377.43 280.115 377.602 280.106 377.593 279.589C377.593 279.244 377.593 278.945 377.593 278.609C378.165 278.436 378.647 280.641 379.119 282.32C379.664 284.271 380.345 286.467 379.582 288.436C379.086 289.516 378.477 290.541 377.766 291.494C376.558 293.14 375.769 295.055 375.468 297.074C375.377 297.981 375.468 298.889 375.323 299.742C375.117 301.227 374.487 302.621 373.51 303.759C372.532 304.896 371.248 305.729 369.81 306.157C365.95 307.364 360.164 307.173 356.768 304.478C355.587 303.553 356.023 301.575 356.55 300.531Z" fill="#37474F"/>
<path d="M342.163 279.344C339.103 281.721 335.406 283.119 331.637 281.404L330.729 257.875L343.444 260.153L342.163 279.344Z" fill="#FFA8A7"/>
<path d="M312.519 289.452C313.364 289.18 314.19 288.88 315.017 288.545C317.31 287.629 319.524 286.527 321.638 285.251C322.546 284.688 323.454 284.09 324.362 283.436C325.271 282.783 326.179 282.048 327.087 281.331C327.563 280.916 327.995 280.454 328.377 279.952C329.139 279.015 329.777 277.984 330.275 276.885C330.353 276.625 330.52 276.4 330.747 276.25C330.901 276.196 331.066 276.184 331.226 276.216C331.386 276.248 331.534 276.322 331.655 276.431C331.873 276.613 332.107 276.774 332.355 276.912L333.099 277.212C333.893 277.542 334.732 277.75 335.588 277.829C338.803 278.11 338.903 277.466 339.039 278.5C339.075 278.886 339.075 279.275 339.039 279.662C340.738 279.38 342.073 278.836 342.145 278.192L342.354 276.141C344.034 275.987 344.171 279.008 344.707 282.402C345.152 285.124 345.815 287.129 345.061 289.144C342.5 291.376 338.004 290.84 335.434 291.258C331.801 291.857 330.111 294.542 325.062 296.285C316.888 299.097 311.793 295.858 310.267 294.47C309.259 292.682 309.059 290.55 312.519 289.452Z" fill="#37474F"/>
<path d="M374.051 140.207C374.696 150.188 375.868 164.806 376.276 176.339C377.039 198.007 376.739 222.706 376.739 222.706C377.953 227.253 378.738 231.904 379.083 236.598C379.6 250.444 379.5 281.531 379.5 281.531C379.5 281.531 373.76 287.311 365.16 282.774C365.16 282.774 357.54 239.22 355.414 225.528C353.38 212.516 349.411 186.511 349.411 186.511L347.595 223.459C348.974 229.264 349.431 235.251 348.948 241.198C348.485 247.55 344.861 278.863 344.861 278.863C341.555 281.957 331.928 280.269 329.821 277.81C329.821 277.81 326.451 231.534 326.079 224.838C325.261 210.374 323.109 156.476 324.19 148.101C325.271 139.726 374.051 140.207 374.051 140.207Z" fill="#263238"/>
<path d="M349.411 186.483L346.941 169.806C346.941 169.806 340.002 168.49 334.943 164.743C334.943 164.743 336.914 169.198 344.57 172.374L347.068 187.908L347.658 223.432L349.411 186.483Z" fill="black"/>
<path d="M363.57 73.2794C364.033 75.1668 367.203 74.8764 368.62 74.5225C369.462 74.346 370.21 73.867 370.722 73.1763C371.234 72.4857 371.475 71.6313 371.399 70.7751C372.12 70.586 372.772 70.1958 373.279 69.6499C373.615 69.2073 373.806 68.6729 373.829 68.1182C373.852 67.5636 373.704 67.0152 373.406 66.5467C373.977 66.1443 374.426 65.593 374.705 64.953C374.984 64.313 375.081 63.6088 374.987 62.9172C374.798 61.9041 374.242 60.9961 373.424 60.3675C372.635 59.7347 371.657 59.3834 370.645 59.3694C370.318 59.4238 369.991 60.0318 370.464 60.0771C371.2 60.2185 371.894 60.5291 372.489 60.9845C373.11 61.4181 373.589 62.0237 373.87 62.7267C374.043 63.2849 374.042 63.8826 373.867 64.4402C373.691 64.9979 373.35 65.4889 372.889 65.848C372.723 65.6401 372.537 65.4487 372.335 65.2764C372.023 64.9952 371.659 64.7782 371.263 64.6381C370.867 64.4979 370.447 64.4373 370.028 64.4598C369.715 64.452 369.406 64.5332 369.138 64.6938C368.869 64.8545 368.652 65.0879 368.511 65.3671C368.293 66.0749 369.029 66.6737 369.574 66.9823C369.969 67.2051 370.408 67.3414 370.861 67.3821C371.313 67.4228 371.769 67.3669 372.198 67.2182C372.257 67.1967 372.315 67.1725 372.371 67.1456C372.416 67.2363 372.462 67.3361 372.498 67.4269C372.989 68.7335 372.207 69.541 371.136 69.904C370.491 68.5702 368.747 67.5993 367.348 68.2979C367.172 68.3772 367.019 68.4986 366.901 68.6516C366.783 68.8046 366.705 68.9842 366.673 69.1746C366.642 69.365 366.658 69.5603 366.72 69.7429C366.783 69.9256 366.889 70.09 367.031 70.2216C367.608 70.7711 368.376 71.0766 369.174 71.0745C369.54 71.1059 369.907 71.1059 370.273 71.0745C370.355 71.6589 370.219 72.2532 369.891 72.7441C369.562 73.115 369.154 73.4077 368.696 73.6008C368.239 73.7939 367.744 73.8825 367.249 73.8601C366.131 73.9224 365.034 73.5408 364.197 72.7985C363.879 72.5898 363.498 73.0072 363.57 73.2794ZM371.862 66.3108C371.568 66.398 371.257 66.418 370.954 66.3693C370.651 66.3206 370.362 66.2045 370.109 66.0295C369.728 65.7754 369.31 65.4034 369.982 65.349C370.348 65.3559 370.708 65.4462 371.034 65.6128C371.359 65.7795 371.643 66.0182 371.862 66.3108ZM369.964 70.0764C369.58 70.0998 369.194 70.0662 368.82 69.9766C368.547 69.904 367.358 69.3051 367.966 69.0692C368.575 68.8333 369.247 69.3233 369.574 69.6227C369.724 69.7555 369.855 69.9081 369.964 70.0764Z" fill="#263238"/>
<path d="M365.777 38.1913C365.976 38.2194 366.173 38.2588 366.368 38.3092C366.229 37.7105 366.297 37.0824 366.561 36.5272C366.824 35.972 367.269 35.5223 367.821 35.2514C368.526 34.9685 369.315 34.9713 370.018 35.2593C370.722 35.5473 371.286 36.0977 371.59 36.7939L367.476 38.6722C368.814 39.1445 369.93 40.0947 370.609 41.3399C371.735 43.6537 370.255 48.5988 368.747 54.6782C367.904 58.5098 366.797 62.2784 365.432 65.9569C364.742 67.7716 363.507 67.7716 363.507 67.7716V61.7013L363.761 56.6654C363.761 56.6654 360.528 52.2556 360.174 48.6351C359.719 43.9803 360.7 42.0748 360.7 42.0748L365.777 38.1913Z" fill="#263238"/>
<path d="M343.417 32.9649C345.444 32.9721 347.424 33.5797 349.106 34.7109C350.788 35.8421 352.097 37.4462 352.867 39.3203C353.637 41.1943 353.833 43.2544 353.431 45.2399C353.029 47.2254 352.047 49.0473 350.609 50.4753C349.17 51.9032 347.341 52.8732 345.351 53.2624C343.361 53.6517 341.3 53.4428 339.429 52.6622C337.558 51.8816 335.961 50.5644 334.839 48.8769C333.717 47.1895 333.121 45.2077 333.127 43.1819C333.13 41.8359 333.399 40.5037 333.918 39.2616C334.438 38.0195 335.197 36.8918 336.152 35.9429C337.108 34.994 338.242 34.2426 339.488 33.7317C340.734 33.2207 342.07 32.9601 343.417 32.9649Z" fill="#263238"/>
<path d="M363.57 55.876C364.787 56.9286 365.777 54.1974 366.804 53.1539C367.83 52.1104 371.154 50.6495 372.807 54.152C374.46 57.6545 371.281 62.5633 368.793 63.7157C365.16 65.4125 363.507 61.7286 363.507 61.7286V76.918C359.656 83.8322 351.346 82.217 347.413 83.1879C346.831 81.4198 346.831 79.5118 347.413 77.7437V72.7894C345.76 73.1124 344.069 73.204 342.391 73.0616C339.076 72.5898 337.295 69.8677 336.305 66.2382C334.707 60.4673 334.371 50.8129 336.596 39.5614C340.311 36.6851 352.899 37.1478 360.7 42.093C360.128 52.0287 362.381 54.8235 363.57 55.876Z" fill="#FFA8A7"/>
<path d="M347.422 72.8075C347.422 72.8075 354.842 71.3375 357.413 69.9765C358.954 69.1953 360.221 67.9643 361.045 66.4468C360.651 67.9582 359.956 69.3747 359.002 70.6116C357.095 73.0252 347.431 74.7765 347.431 74.7765L347.422 72.8075Z" fill="#F28F8F"/>
<path d="M331.501 49.9054C331.568 50.4924 331.805 51.0472 332.182 51.5024C332.312 51.6718 332.405 51.8665 332.455 52.074C332.643 53.5235 332.946 54.9557 333.363 56.3568C333.694 57.2889 334.311 58.0927 335.127 58.6533C335.942 59.2139 336.914 59.5026 337.904 59.4782C338.427 59.5126 338.952 59.479 339.466 59.3784H339.584C340.035 59.2851 340.469 59.1261 340.874 58.9065H340.946L341.065 58.843C341.103 58.8047 341.145 58.7712 341.192 58.7432C341.238 58.7182 341.28 58.6878 341.319 58.6525C341.371 58.6211 341.419 58.5846 341.464 58.5436L341.6 58.4256C341.69 58.3487 341.775 58.267 341.855 58.1806C342.289 57.7045 342.645 57.1624 342.908 56.5746C343.598 55.1046 343.462 53.0086 344.561 52.7999C344.603 52.7948 344.646 52.7948 344.688 52.7999H344.834C346.323 52.8544 346.105 55.1228 346.904 56.7651C347.349 57.8034 348.1 58.6812 349.058 59.2812C350.016 59.8811 351.134 60.1746 352.263 60.1224H352.672C352.783 60.1318 352.896 60.1318 353.008 60.1224C353.266 60.1111 353.524 60.0838 353.78 60.0408L354.025 59.9772C354.105 59.9678 354.185 59.9495 354.261 59.9228H354.406C354.722 59.8252 355.026 59.6944 355.315 59.5326C355.414 59.4691 355.514 59.4147 355.614 59.3421C355.796 59.2121 355.966 59.0664 356.123 58.9065C356.548 58.4791 356.887 57.9739 357.122 57.4184C357.564 56.045 357.889 54.6366 358.094 53.2082C358.14 52.9901 358.23 52.7835 358.357 52.6003C358.745 52.1804 359.004 51.6573 359.102 51.0941C359.13 50.7975 359.055 50.5004 358.889 50.2525C358.724 50.0047 358.478 49.8213 358.194 49.733L357.413 49.606C354.879 49.2521 351.573 49.0525 349.584 49.5515C347.086 50.1776 346.205 50.958 344.816 50.9126C343.426 50.8672 342.708 50.0052 340.356 49.1976C338.54 48.5443 335.406 48.5171 333.036 48.6804C332.782 48.6804 332.545 48.6804 332.3 48.7349C331.91 48.5897 331.501 49.1886 331.501 49.9054ZM347.849 51.7201C348.045 51.4854 348.29 51.2965 348.566 51.1666C348.61 51.1389 348.655 51.1147 348.703 51.0941L348.766 51.0487L349.13 50.8944L349.447 50.7674C349.799 50.646 350.157 50.543 350.519 50.4589L350.946 50.3682C351.3 50.3046 351.673 50.2502 352.036 50.2139H352.299C354.688 50.0687 356.168 50.6585 356.695 51.1213C357.222 51.584 356.949 53.8434 356.695 54.9595C356.695 54.9595 356.695 55.0139 356.695 55.0411C356.703 55.0708 356.703 55.1022 356.695 55.1319C356.668 55.2823 356.632 55.4308 356.586 55.5765C356.586 55.6672 356.541 55.767 356.513 55.8578L356.332 56.3205C356.318 56.3775 356.296 56.4324 356.268 56.4839C356.251 56.5163 356.236 56.5496 356.223 56.5837C356.202 56.6142 356.187 56.6479 356.177 56.6835L356.105 56.8196C356.08 56.8712 356.049 56.9198 356.014 56.9648C355.989 57.0213 355.956 57.0734 355.914 57.119C355.886 57.1737 355.852 57.2254 355.814 57.2733C355.432 57.8137 354.915 58.2441 354.314 58.5213C353.713 58.7984 353.049 58.9125 352.39 58.8521C351.739 58.8758 351.09 58.7619 350.486 58.518C349.882 58.2741 349.336 57.9056 348.884 57.4366C348.319 56.7846 347.934 55.9964 347.767 55.15C347.477 53.8888 347.34 52.4188 347.849 51.7201ZM333.817 50.2774C333.989 50.1229 334.19 50.0028 334.407 49.9235L334.662 49.8237L334.816 49.7784H334.952C334.952 49.7784 335.025 49.7784 335.043 49.7784H335.17C335.352 49.7365 335.538 49.7092 335.724 49.6967H336.024C336.084 49.6873 336.145 49.6873 336.206 49.6967H336.95H337.087C337.458 49.7159 337.828 49.7553 338.195 49.8147C339.884 50.0959 341.655 50.9217 342.1 51.6294C342.545 52.3372 342.427 53.7799 342.182 55.0321C342.118 55.277 342.055 55.5493 341.946 55.8578C341.939 55.8784 341.939 55.9007 341.946 55.9213V56.012C341.946 56.012 341.946 56.012 341.946 56.0665C341.946 56.1209 341.946 56.13 341.9 56.1663C341.855 56.2026 341.837 56.3024 341.8 56.3659C341.774 56.4282 341.743 56.4888 341.709 56.5474C341.708 56.5655 341.708 56.5837 341.709 56.6018C341.709 56.6018 341.664 56.6835 341.628 56.7288L341.564 56.8287C341.162 57.3978 340.609 57.8442 339.967 58.1181C339.326 58.3921 338.621 58.4828 337.931 58.3803C337.298 58.3605 336.677 58.1993 336.115 57.9084C334.444 57.0011 334.053 55.1046 333.862 54.2245C333.544 53.0086 333.263 50.8128 333.781 50.3046L333.817 50.2774Z" fill="#263238"/>
<path d="M358.048 49.5789L368.902 52.0197C367.916 52.2679 367.038 52.832 366.404 53.6257L358.039 52.0469L358.048 49.5789Z" fill="#263238"/>
<path d="M347.749 55.1501C347.916 55.9965 348.301 56.7847 348.866 57.4367C349.32 57.908 349.869 58.2779 350.476 58.5219C351.084 58.7659 351.736 58.8785 352.39 58.8522C353.035 58.9099 353.683 58.8008 354.273 58.5354C354.864 58.27 355.375 57.8572 355.76 57.3369C355.798 57.289 355.831 57.2373 355.859 57.1826C355.901 57.137 355.935 57.0849 355.959 57.0284C355.995 56.9835 356.025 56.9348 356.05 56.8832L356.123 56.7471C356.132 56.7116 356.148 56.6779 356.168 56.6473C356.182 56.6133 356.197 56.5799 356.214 56.5475C356.242 56.496 356.263 56.4411 356.277 56.3842L356.459 55.9214C356.459 55.8307 356.513 55.7308 356.532 55.6401C356.578 55.4944 356.614 55.3459 356.641 55.1955C356.649 55.1658 356.649 55.1345 356.641 55.1048C356.641 55.1048 356.641 55.0503 356.641 55.0231C356.886 53.907 357.195 51.7021 356.641 51.1849C356.087 50.6677 354.633 50.0961 352.245 50.2775H351.981C351.618 50.2775 351.246 50.3683 350.892 50.4318L350.465 50.5225C350.102 50.6067 349.745 50.7096 349.393 50.831L349.075 50.9581L348.712 51.1123L348.648 51.1577C348.601 51.1783 348.555 51.2026 348.512 51.2303C348.261 51.348 348.035 51.5145 347.849 51.7203C347.34 52.4189 347.477 53.8889 347.749 55.1501Z" fill="#37474F"/>
<path d="M334.071 31.6219C334.071 31.4949 334.071 31.3769 334.117 31.2499C334.132 31.0154 334.217 30.7909 334.362 30.6056C334.861 30.0884 335.86 31.395 336.178 31.6945C336.496 31.9939 336.878 32.2661 337.241 32.5293C337.588 32.7017 337.922 32.8988 338.24 33.1191C338.022 31.8824 338.022 30.6173 338.24 29.3807C338.385 28.564 338.612 26.6586 339.63 26.468C340.229 26.35 340.756 26.8582 341.21 27.2756C345.261 31.0684 350.565 29.3172 355.451 29.4714C359.547 29.5984 364.479 31.2862 366.349 35.2332C367.194 37.048 367.339 38.9716 365.677 40.2238C364.597 41.0404 363.543 40.9951 362.953 42.2926C362.807 42.6102 361.872 46.4847 362.426 46.4393C361.424 46.5438 360.417 46.2891 359.585 45.7207C358.753 45.1523 358.151 44.3072 357.885 43.3361C357.785 42.9096 357.558 42.1383 357.467 41.7028C357.445 41.5751 357.395 41.4537 357.322 41.3468C357.249 41.2398 357.153 41.1498 357.042 41.0827C356.931 41.0157 356.807 40.9732 356.678 40.958C356.55 40.9429 356.419 40.9555 356.295 40.9951C355.06 41.2673 354.252 41.7754 353.071 42.093C349.729 43.0541 346.214 43.2618 342.781 42.7009C340.319 42.2328 338.059 41.0233 336.305 39.2347C335.418 38.1945 334.76 36.9786 334.374 35.6667C333.989 34.3548 333.886 32.9765 334.071 31.6219Z" fill="#263238"/>
<path d="M350.038 47.5736L353.625 48.127C353.684 47.6397 353.554 47.1483 353.262 46.7535C352.97 46.3588 352.538 46.0906 352.054 46.0038C351.818 45.9682 351.576 45.981 351.345 46.0416C351.114 46.1021 350.897 46.2091 350.708 46.3559C350.52 46.5028 350.363 46.6865 350.248 46.8958C350.132 47.1052 350.061 47.3358 350.038 47.5736Z" fill="#263238"/>
<path d="M349.193 64.251L346.169 65.0313C346.208 65.2363 346.289 65.431 346.406 65.6039C346.523 65.7767 346.674 65.924 346.85 66.0368C347.026 66.1496 347.223 66.2257 347.429 66.2603C347.635 66.2949 347.846 66.2873 348.049 66.2381C348.462 66.1234 348.814 65.8507 349.029 65.4789C349.243 65.107 349.302 64.666 349.193 64.251Z" fill="#F28F8F"/>
<path d="M336.424 47.773L340.056 47.3738C340.042 47.1369 339.979 46.9055 339.872 46.6935C339.766 46.4816 339.617 46.2935 339.435 46.1408C339.253 45.988 339.042 45.8738 338.815 45.805C338.588 45.7362 338.349 45.7142 338.113 45.7405C337.624 45.7976 337.176 46.0406 336.861 46.419C336.547 46.7974 336.39 47.2823 336.424 47.773Z" fill="#263238"/>
<path d="M345.27 52.7638L344.779 61.2386L340.056 60.0046L344.77 52.673C344.941 52.6686 345.111 52.6995 345.27 52.7638Z" fill="#F28F8F"/>
<path d="M365.532 58.6525C365.534 59.0882 365.665 59.5136 365.908 59.875C366.152 60.2364 366.497 60.5176 366.901 60.6831C367.304 60.8486 367.748 60.8909 368.175 60.8048C368.603 60.7187 368.995 60.508 369.303 60.1993C369.611 59.8906 369.82 59.4977 369.904 59.0702C369.989 58.6428 369.944 58.1999 369.777 57.7975C369.61 57.3952 369.327 57.0513 368.964 56.8095C368.601 56.5676 368.175 56.4385 367.739 56.4385C367.448 56.4385 367.161 56.4958 366.892 56.6072C366.624 56.7186 366.38 56.8818 366.175 57.0875C365.97 57.2932 365.808 57.5373 365.697 57.8059C365.587 58.0745 365.531 58.3621 365.532 58.6525Z" fill="#263238"/>
<path d="M365.287 54.6147C365.48 53.9467 365.815 53.3278 366.268 52.7999C366.502 52.5836 366.779 52.4185 367.081 52.3154C367.383 52.2123 367.703 52.1733 368.021 52.2011C368.021 52.2011 368.084 52.2827 368.021 52.3009C367.784 52.4461 367.603 52.5186 367.367 52.691C367.119 52.8597 366.891 53.0544 366.685 53.2718C366.508 53.4777 366.364 53.7104 366.259 53.9614C366.127 54.2488 366.041 54.5549 366.004 54.8687C365.945 55.3626 366.017 55.8635 366.213 56.3205C366.313 56.5722 366.454 56.8053 366.631 57.0101C366.82 57.1667 366.985 57.3501 367.121 57.5546C367.258 57.8359 366.867 58.3168 366.567 58.1534C366 57.758 365.57 57.1965 365.336 56.5465C365.102 55.8964 365.075 55.1898 365.26 54.5239L365.287 54.6147Z" fill="#263238"/>
<path d="M333.808 84.7576C330.738 86.7629 326.542 89.3852 325.47 92.2162C324.399 95.0472 321.447 111.534 321.111 116.833C323.831 118.119 326.747 118.941 329.739 119.265L333.808 84.7576Z" fill="#455A64"/>
<path d="M370.073 76.9089C377.848 81.1645 385.513 87.5433 387.166 89.9933C387.166 89.9933 382.625 105.119 378.62 112.296C374.614 119.474 372.48 140.697 372.48 140.697C372.48 140.697 345.079 149.771 336.496 150.488C327.913 151.205 326.824 147.557 326.824 147.557C326.824 147.557 326.642 123.829 328.64 107.996C330.638 92.1619 330.202 87.4526 333.835 84.7577C336.187 83.0246 346.323 78.6329 346.323 78.6329V83.1698C351.863 83.2696 370.073 76.9089 370.073 76.9089Z" fill="#37474F"/>
<path d="M344.216 85.6106C343.715 84.5862 343.514 83.4414 343.635 82.3077L345.924 80.6382V83.5236L344.216 85.6106Z" fill="url(#paint12_linear_11_793)"/>
<path opacity="0.25" d="M344.216 85.6106C343.715 84.5862 343.514 83.4414 343.635 82.3077L345.924 80.6382V83.5236L344.216 85.6106Z" fill="black"/>
<path d="M348.639 83.8503L354.561 80.4749L359.011 83.9955L350.02 87.7248L348.639 83.8503Z" fill="url(#paint13_linear_11_793)"/>
<path opacity="0.25" d="M348.639 83.8503L354.561 80.4749L359.011 83.9955L350.02 87.7248L348.639 83.8503Z" fill="black"/>
<path d="M363.507 70.4846V71.6824C363.28 72.8256 361.036 75.448 355.405 77.9795C349.774 80.5111 347.413 83.1969 347.413 83.1969C348.936 83.2377 350.444 83.5163 351.881 84.0226C354.452 84.93 358.72 88.1875 359.937 88.1603C361.154 88.133 362.835 84.7667 366.032 81.4185C368.756 78.6056 370.073 76.8816 370.073 76.8816C370.073 76.8816 365.696 70.5118 363.507 70.4846Z" fill="#455A64"/>
<path d="M347.413 83.1879C345.379 83.4148 343.462 84.8303 342.963 84.0953C342.463 83.3603 344.216 76.5096 347.404 74.4045L347.413 83.1879Z" fill="#455A64"/>
<path d="M327.623 118.993C327.623 118.993 327.369 123.23 327.305 124.673C327.241 126.116 329.675 150.987 329.675 150.987L321.111 154.616C321.111 154.616 320.076 145.035 319.739 139.699C319.463 134.202 319.709 128.69 320.475 123.239C321.156 118.703 321.383 116.96 321.383 116.96C323.386 117.855 325.477 118.536 327.623 118.993Z" fill="#F28F8F"/>
<path d="M321.801 166.775C321.801 166.775 321.801 167.156 321.801 168.59C322.011 170.992 322.49 173.363 323.227 175.658C323.763 177.001 325.044 179.941 325.716 180.286C326.348 180.648 327.086 180.78 327.804 180.658C329.158 180.531 330.575 181.23 331.855 180.658C332.333 180.372 332.842 180.14 333.372 179.968C334.171 179.778 335.07 180.014 335.779 179.596C336.233 179.333 336.514 178.843 336.959 178.571C337.622 178.172 338.476 178.317 339.175 177.999C339.45 177.858 339.693 177.663 339.891 177.426C340.089 177.189 340.238 176.915 340.329 176.62C340.728 175.413 340.329 174.071 340.093 172.873C340.512 172.279 340.728 171.566 340.71 170.84C340.729 169.293 340.546 167.749 340.165 166.249C339.866 165.342 333.653 161.812 333.653 161.812L332.427 161.004C329.824 160.424 327.097 160.862 324.807 162.229C321.211 164.498 321.801 166.775 321.801 166.775Z" fill="#FFA8A7"/>
<path d="M323.481 166.603C321.838 169.325 322.8 174.225 322.809 174.288C322.292 172.429 321.958 170.523 321.81 168.599C321.81 167.156 321.81 166.784 321.81 166.784C321.81 166.784 321.22 164.507 324.826 162.247C327.115 160.88 329.842 160.442 332.446 161.022C332.446 161.022 325.143 163.853 323.481 166.603Z" fill="#F28F8F"/>
<path d="M340.102 172.845C339.524 171.074 338.629 169.423 337.459 167.973C336.769 167.338 336.196 166.53 336.887 166.793C337.577 167.056 338.531 167.229 338.912 166.793C339.293 166.358 339.375 167.147 338.912 167.8C338.449 168.454 338.839 168.953 339.339 170.023C339.719 170.926 339.976 171.875 340.102 172.845Z" fill="#F28F8F"/>
<path d="M384.795 90.2927C387.384 91.2001 387.729 98.2776 387.166 104.62C386.603 110.963 381.653 125.998 379.382 131.224C376.848 137.086 375.314 140.48 373.624 142.322C371.935 144.163 368.402 145.67 363.888 148.011C359.792 150.134 356.995 151.205 350.029 153.364C342.163 155.805 339.13 155.95 337.459 157.121C335.788 158.291 335.306 160.832 333.663 161.785L332.436 160.977C329.671 161.638 327.03 162.741 324.617 164.244C323.535 164.914 322.582 165.771 321.801 166.775V168.59C321.801 168.59 319.803 169.434 318.114 165.868C316.424 162.302 315.653 156.976 317.596 154.644C319.54 152.312 325.697 149.154 330.665 147.557C335.633 145.96 338.14 144.363 343.971 140.842C350.183 137.086 354.497 134.591 357.594 132.912C358.766 132.232 359.556 131.406 360.083 129.283C360.5 127.577 361.745 122.523 362.517 118.739C363.761 112.396 366.495 93.2145 384.795 90.2927Z" fill="#FFA8A7"/>
<path d="M387.166 89.9932C387.166 89.9932 388.374 90.2019 388.537 95.2288C388.752 99.9822 388.524 104.745 387.856 109.456C387.202 113.313 383.315 124.709 383.315 124.709C383.315 124.709 372.171 128.339 360.764 124.011C360.764 124.011 363.443 107.587 364.451 103.232C365.459 98.8764 379.637 85.4382 387.166 89.9932Z" fill="#455A64"/>
<path d="M347.731 90.3199C347.104 94.4031 346.223 104.103 346.223 117.795C346.223 121.152 341.319 127.967 340.165 127.822C339.012 127.676 336.896 121.27 336.596 117.55C337.059 108.549 342.509 94.5846 344.888 89.8118L347.731 90.3199Z" fill="url(#paint14_linear_11_793)"/>
<path opacity="0.15" d="M344.707 90.2019C344.77 90.0658 344.825 89.9297 344.888 89.8118L347.731 90.3199L347.567 91.5176C346.495 91.4033 345.491 90.9411 344.707 90.2019Z" fill="black"/>
<path d="M348.639 83.8503C347.746 83.6405 346.832 83.5309 345.914 83.5237C345.193 84.0897 344.599 84.8007 344.171 85.6106C344.095 87.0452 344.334 88.4788 344.87 89.8118C345.278 90.0977 345.744 90.2912 346.235 90.379C346.726 90.4667 347.23 90.4466 347.713 90.3199C348.714 89.6978 349.51 88.7953 350.001 87.7248C350.071 86.3052 349.582 84.9146 348.639 83.8503Z" fill="url(#paint15_linear_11_793)"/>
</g>
<defs>
<linearGradient id="paint0_linear_11_793" x1="412.641" y1="277.539" x2="360.698" y2="247.219" gradientUnits="userSpaceOnUse">
<stop stop-color="#9C42E2"/>
<stop offset="1" stop-color="#CC9BF2"/>
</linearGradient>
<linearGradient id="paint1_linear_11_793" x1="413.958" y1="283.712" x2="376.343" y2="251.197" gradientUnits="userSpaceOnUse">
<stop stop-color="#9C42E2"/>
<stop offset="1" stop-color="#CC9BF2"/>
</linearGradient>
<linearGradient id="paint2_linear_11_793" x1="205.299" y1="240.09" x2="28.5617" y2="99.6823" gradientUnits="userSpaceOnUse">
<stop stop-color="#9C42E2"/>
<stop offset="1" stop-color="#CC9BF2"/>
</linearGradient>
<linearGradient id="paint3_linear_11_793" x1="176.015" y1="214.583" x2="67.591" y2="145.632" gradientUnits="userSpaceOnUse">
<stop stop-color="#9C42E2"/>
<stop offset="1" stop-color="#CC9BF2"/>
</linearGradient>
<linearGradient id="paint4_linear_11_793" x1="185.544" y1="220.839" x2="79.5989" y2="155.638" gradientUnits="userSpaceOnUse">
<stop stop-color="#9C42E2"/>
<stop offset="1" stop-color="#CC9BF2"/>
</linearGradient>
<linearGradient id="paint5_linear_11_793" x1="180.601" y1="216.249" x2="86.1124" y2="160.436" gradientUnits="userSpaceOnUse">
<stop stop-color="#9C42E2"/>
<stop offset="1" stop-color="#CC9BF2"/>
</linearGradient>
<linearGradient id="paint6_linear_11_793" x1="162.805" y1="190.924" x2="118.384" y2="158.484" gradientUnits="userSpaceOnUse">
<stop stop-color="#9C42E2"/>
<stop offset="1" stop-color="#CC9BF2"/>
</linearGradient>
<linearGradient id="paint7_linear_11_793" x1="198.404" y1="204.342" x2="195.303" y2="199.972" gradientUnits="userSpaceOnUse">
<stop stop-color="#9C42E2"/>
<stop offset="1" stop-color="#CC9BF2"/>
</linearGradient>
<linearGradient id="paint8_linear_11_793" x1="210.929" y1="210.546" x2="207.135" y2="204.902" gradientUnits="userSpaceOnUse">
<stop stop-color="#9C42E2"/>
<stop offset="1" stop-color="#CC9BF2"/>
</linearGradient>
<linearGradient id="paint9_linear_11_793" x1="243.727" y1="235.427" x2="201.552" y2="183.358" gradientUnits="userSpaceOnUse">
<stop stop-color="#9C42E2"/>
<stop offset="1" stop-color="#CC9BF2"/>
</linearGradient>
<linearGradient id="paint10_linear_11_793" x1="239.985" y1="235.594" x2="199.383" y2="186.559" gradientUnits="userSpaceOnUse">
<stop stop-color="#9C42E2"/>
<stop offset="1" stop-color="#CC9BF2"/>
</linearGradient>
<linearGradient id="paint11_linear_11_793" x1="247.142" y1="237.405" x2="236.511" y2="230.932" gradientUnits="userSpaceOnUse">
<stop stop-color="#9C42E2"/>
<stop offset="1" stop-color="#CC9BF2"/>
</linearGradient>
<linearGradient id="paint12_linear_11_793" x1="345.781" y1="85.2496" x2="342.69" y2="83.7094" gradientUnits="userSpaceOnUse">
<stop stop-color="#9C42E2"/>
<stop offset="1" stop-color="#CC9BF2"/>
</linearGradient>
<linearGradient id="paint13_linear_11_793" x1="358.374" y1="87.1985" x2="353.199" y2="79.3008" gradientUnits="userSpaceOnUse">
<stop stop-color="#9C42E2"/>
<stop offset="1" stop-color="#CC9BF2"/>
</linearGradient>
<linearGradient id="paint14_linear_11_793" x1="347.047" y1="125.065" x2="330.197" y2="119.8" gradientUnits="userSpaceOnUse">
<stop stop-color="#9C42E2"/>
<stop offset="1" stop-color="#CC9BF2"/>
</linearGradient>
<linearGradient id="paint15_linear_11_793" x1="349.649" y1="89.9311" x2="344.297" y2="85.097" gradientUnits="userSpaceOnUse">
<stop stop-color="#9C42E2"/>
<stop offset="1" stop-color="#CC9BF2"/>
</linearGradient>
<clipPath id="clip0_11_793">
<rect width="418" height="389" fill="white"/>
</clipPath>
</defs>
</svg>
