<svg width="20" height="20" viewBox="0 0 20 20" fill="none" xmlns="http://www.w3.org/2000/svg">
<path fill-rule="evenodd" clip-rule="evenodd" d="M17.2968 16.1111L14.5793 15.225C13.9431 15.7445 13.2161 16.1506 12.4322 16.4243L11.8697 19.1666H8.13014L7.56762 16.4548C6.78994 16.1734 6.06682 15.768 5.42847 15.2555L2.70303 16.1111L0.833252 13.0555L2.98825 11.2222C2.84176 10.4315 2.84176 9.62196 2.98825 8.83123L0.833252 6.94442L2.70303 3.88887L5.42055 4.77498C6.0567 4.25545 6.78375 3.84934 7.56762 3.57567L8.13014 0.833313H11.8697L12.4322 3.54512C13.2099 3.82655 13.933 4.23196 14.5714 4.74442L17.2968 3.88887L19.1666 6.94442L17.0116 8.77776C17.1581 9.56849 17.1581 10.378 17.0116 11.1687L19.1666 13.0555L17.2968 16.1111ZM7.55649 13.6274C8.28096 14.1067 9.13272 14.3626 10.004 14.3626C10.5842 14.3684 11.1597 14.2596 11.6969 14.0424C12.234 13.8252 12.722 13.5041 13.1323 13.0978C13.5426 12.6915 13.8669 12.2083 14.0862 11.6764C14.3055 11.1444 14.4154 10.5745 14.4095 9.99998C14.4095 9.13714 14.1511 8.29367 13.6671 7.57624C13.183 6.85881 12.4949 6.29965 11.6899 5.96945C10.8849 5.63925 9.99915 5.55286 9.14457 5.72119C8.28999 5.88952 7.50501 6.30502 6.8889 6.91515C6.27278 7.52527 5.8532 8.30261 5.68321 9.14888C5.51323 9.99514 5.60047 10.8723 5.93391 11.6695C6.26735 12.4666 6.83201 13.148 7.55649 13.6274Z" fill="#232323"/>
</svg>
