<svg width="349" height="576" viewBox="0 0 349 576" fill="none" xmlns="http://www.w3.org/2000/svg">
<path fill-rule="evenodd" clip-rule="evenodd" d="M59.8136 27.2717C118.68 36.876 175.164 51.1381 224.843 84.1461C276.398 118.401 334.072 157.456 346.888 218.013C359.442 277.336 307.2 327.913 288.649 385.642C270.008 443.653 287.086 520.443 238.073 556.642C189.073 592.83 119.455 567.034 59.8136 554.648C11.1209 544.535 -25.9164 511.718 -71.7032 492.307C-137.023 464.614 -239.997 483.216 -265.152 416.877C-289.88 351.663 -188.102 304.04 -168.466 237.117C-147.794 166.659 -203.66 72.7463 -149.602 23.0537C-96.9108 -25.3821 -10.8232 15.747 59.8136 27.2717Z" fill="#FBFBFB"/>
</svg>
