<svg width="21" height="16" viewBox="0 0 21 16" fill="none" xmlns="http://www.w3.org/2000/svg">
<path d="M20.4789 1.93654C19.7516 2.25554 18.9768 2.46699 18.1689 2.56965C19 2.07343 19.6343 1.29365 19.9325 0.353764C19.1576 0.815764 18.3021 1.1421 17.3903 1.32421C16.6545 0.540764 15.6059 0.055542 14.4619 0.055542C12.2423 0.055542 10.4554 1.8571 10.4554 4.06565C10.4554 4.38343 10.4823 4.68899 10.5483 4.97988C7.21531 4.81732 4.26609 3.21988 2.28486 0.786431C1.93898 1.38654 1.73609 2.07343 1.73609 2.81288C1.73609 4.20132 2.45109 5.4321 3.51686 6.14465C2.87275 6.13243 2.24086 5.94543 1.70553 5.65088C1.70553 5.6631 1.70553 5.67899 1.70553 5.69488C1.70553 7.6431 3.0952 9.26132 4.91753 9.6341C4.5912 9.72332 4.23553 9.7661 3.86642 9.7661C3.60975 9.7661 3.35064 9.75143 3.10742 9.69765C3.62686 11.2853 5.10086 12.4525 6.85353 12.4904C5.48953 13.5574 3.75764 14.2003 1.88275 14.2003C1.55398 14.2003 1.23864 14.1857 0.923309 14.1453C2.6992 15.2905 4.80386 15.9444 7.07353 15.9444C14.4509 15.9444 18.4842 9.83332 18.4842 4.53621C18.4842 4.35899 18.4781 4.18788 18.4695 4.01799C19.2652 3.45332 19.9338 2.7481 20.4789 1.93654Z" fill="#232323"/>
</svg>
